{"glyphs":{"0":{"ha":956,"x_min":136,"x_max":821,"o":"m 271 210 q 353 131 271 164 q 478 109 410 109 q 603 131 546 109 q 685 210 685 163 l 685 814 q 603 893 685 860 q 478 916 546 916 q 353 893 410 916 q 271 814 271 861 l 271 210 m 136 210 q 136 814 136 210 q 290 1002 136 938 q 478 1038 376 1038 q 667 1002 581 1038 q 821 814 821 938 l 821 210 q 667 22 821 86 q 478 -14 581 -14 q 290 22 376 -14 q 136 210 136 86 z "},"1":{"ha":484,"x_min":14,"x_max":315,"o":"m 179 -27 l 179 863 l 14 772 l 14 911 l 308 1051 l 315 1051 l 315 34 l 186 -27 l 179 -27 z "},"2":{"ha":904,"x_min":102,"x_max":795,"o":"m 102 0 l 102 7 l 157 123 l 481 438 q 658 676 658 610 l 658 814 q 576 893 658 861 q 451 916 519 916 q 326 893 383 916 q 244 814 244 861 l 244 712 l 115 651 l 109 651 l 109 814 q 262 1002 109 938 q 451 1038 349 1038 q 640 1002 553 1038 q 793 814 793 938 l 793 669 q 610 382 793 546 l 320 123 l 795 123 l 795 117 l 741 0 l 102 0 z "},"3":{"ha":902,"x_min":109,"x_max":793,"o":"m 109 312 l 237 373 l 244 373 l 244 210 q 326 131 244 163 q 451 109 383 109 q 576 131 519 109 q 658 210 658 163 l 658 408 q 576 487 658 455 q 451 509 519 509 q 300 479 357 509 l 524 901 l 169 901 l 169 907 l 224 1024 l 734 1024 l 507 629 q 640 595 578 621 q 793 408 793 531 l 793 210 q 640 22 793 87 q 451 -14 553 -14 q 262 22 349 -14 q 109 210 109 86 l 109 312 z "},"4":{"ha":806,"x_min":3,"x_max":738,"o":"m 500 366 l 500 804 l 205 366 l 500 366 m 500 -27 l 500 243 l 3 243 l 3 250 l 58 366 l 500 990 l 629 1051 l 636 1051 l 636 366 l 738 366 l 738 359 l 683 243 l 636 243 l 636 34 l 507 -27 l 500 -27 z "},"5":{"ha":902,"x_min":109,"x_max":793,"o":"m 109 312 l 237 373 l 244 373 l 244 210 q 326 131 244 163 q 451 109 383 109 q 576 131 519 109 q 658 210 658 163 l 658 408 q 576 487 658 455 q 451 509 519 509 q 300 479 357 509 l 158 548 l 271 1024 l 741 1024 l 741 1017 l 686 901 l 374 901 l 292 598 q 451 631 354 631 q 640 595 553 631 q 793 408 793 532 l 793 210 q 640 22 793 87 q 451 -14 553 -14 q 262 22 349 -14 q 109 210 109 86 l 109 312 z "},"6":{"ha":956,"x_min":136,"x_max":821,"o":"m 807 766 l 678 705 l 671 705 l 671 814 q 589 893 671 861 q 468 916 532 916 q 353 893 410 916 q 271 814 271 861 l 271 608 q 290 616 280 612 q 478 652 374 652 q 667 616 581 652 q 821 429 821 552 l 821 210 q 667 22 821 87 q 478 -14 581 -14 q 290 22 376 -14 q 136 210 136 86 l 136 814 q 290 1002 136 939 q 468 1038 376 1038 q 653 1002 567 1038 q 807 814 807 938 l 807 766 m 271 210 q 353 131 271 163 q 478 109 410 109 q 603 131 546 109 q 685 210 685 163 l 685 429 q 603 508 685 475 q 478 530 546 530 q 353 508 410 530 q 271 429 271 475 l 271 210 z "},"7":{"ha":710,"x_min":34,"x_max":676,"o":"m 311 -27 l 304 -27 l 182 31 l 492 901 l 34 901 l 34 907 l 89 1024 l 676 1024 l 676 1017 l 311 -27 z "},"8":{"ha":902,"x_min":109,"x_max":793,"o":"m 305 733 q 357 654 305 686 q 451 631 393 631 q 545 654 509 631 q 597 733 597 685 l 597 814 q 545 893 597 862 q 451 916 509 916 q 357 893 393 916 q 305 814 305 861 l 305 733 m 244 210 q 326 131 244 163 q 451 109 383 109 q 576 131 519 109 q 658 210 658 163 l 658 408 q 576 487 658 454 q 451 509 519 509 q 326 487 383 509 q 244 408 244 454 l 244 210 m 109 210 l 109 408 q 253 581 109 518 q 170 733 170 656 l 170 814 q 293 1002 170 939 q 451 1038 365 1038 q 609 1002 537 1038 q 732 814 732 940 l 732 733 q 649 581 732 656 q 793 408 793 518 l 793 210 q 640 22 793 87 q 451 -14 553 -14 q 262 22 349 -14 q 109 210 109 87 z "},"9":{"ha":956,"x_min":136,"x_max":821,"o":"m 136 258 l 264 319 l 271 319 l 271 210 q 353 131 271 163 q 478 109 410 109 q 603 131 546 109 q 685 210 685 163 l 685 416 q 667 408 676 412 q 478 372 583 372 q 290 408 376 372 q 136 595 136 472 l 136 814 q 290 1002 136 937 q 478 1038 376 1038 q 667 1002 581 1038 q 821 814 821 938 l 821 210 q 667 22 821 87 q 478 -14 581 -14 q 290 22 376 -14 q 136 210 136 86 l 136 258 m 685 814 q 603 893 685 861 q 478 916 546 916 q 353 893 410 916 q 271 814 271 861 l 271 595 q 353 516 271 549 q 478 494 410 494 q 603 516 546 494 q 685 595 685 549 l 685 814 z "}," ":{"ha":543,"x_min":0,"x_max":0,"o":""},"!":{"ha":407,"x_min":122,"x_max":285,"o":"m 146 11 q 134 23 146 11 q 122 70 122 35 q 146 128 122 104 q 203 153 170 153 q 261 128 237 153 q 285 70 285 104 q 261 11 285 35 q 203 -14 237 -14 q 146 11 170 -14 m 264 1051 l 271 1051 l 271 346 l 142 285 l 136 285 l 136 990 l 264 1051 z "},"\"":{"ha":507,"x_min":102,"x_max":405,"o":"m 398 1051 l 405 1051 l 405 723 l 299 673 l 292 673 l 292 1001 l 398 1051 m 208 1051 l 214 1051 l 214 723 l 109 673 l 102 673 l 102 1001 l 208 1051 z "},"#":{"ha":928,"x_min":102,"x_max":826,"o":"m 311 151 l 304 151 l 304 353 l 102 353 l 102 359 l 157 476 l 304 476 l 304 549 l 102 549 l 102 556 l 157 673 l 304 673 l 304 820 l 420 875 l 427 875 l 427 673 l 500 673 l 500 820 l 617 875 l 624 875 l 624 673 l 826 673 l 826 666 l 771 549 l 624 549 l 624 476 l 826 476 l 826 469 l 771 353 l 624 353 l 624 205 l 507 151 l 500 151 l 500 353 l 427 353 l 427 205 l 311 151 m 427 476 l 500 476 l 500 549 l 427 549 l 427 476 z "},"$":{"ha":902,"x_min":109,"x_max":793,"o":"m 109 312 l 237 373 l 244 373 l 244 210 q 326 131 244 163 q 412 111 366 115 l 412 511 q 296 536 349 515 q 170 675 170 586 l 170 871 q 296 1011 170 962 q 412 1036 349 1031 l 412 1153 l 484 1187 l 490 1187 l 490 1036 q 606 1011 553 1031 q 732 871 732 962 l 732 785 l 604 724 l 597 724 l 597 848 q 555 899 597 882 q 490 913 526 910 l 490 630 q 640 595 570 625 q 793 408 793 531 l 793 210 q 640 22 793 87 q 490 -12 570 -7 l 490 -129 l 418 -163 l 412 -163 l 412 -12 q 262 22 332 -7 q 109 210 109 87 l 109 312 m 412 633 l 412 913 q 347 899 376 910 q 305 848 305 881 l 305 699 q 347 648 305 666 q 412 633 376 637 m 490 507 l 490 111 q 576 131 536 115 q 658 210 658 163 l 658 408 q 576 487 658 455 q 490 507 536 503 z "},"%":{"ha":1454,"x_min":102,"x_max":1352,"o":"m 925 176 q 967 125 925 142 q 1071 109 1010 109 q 1174 125 1132 109 q 1217 176 1217 142 l 1217 339 q 1174 390 1217 373 q 1071 407 1132 407 q 967 390 1010 407 q 925 339 925 373 l 925 176 m 789 153 l 789 363 q 916 503 789 454 q 1071 529 985 529 q 1225 503 1159 529 q 1352 363 1352 452 l 1352 153 q 1225 13 1352 62 q 1071 -14 1157 -14 q 916 13 983 -14 q 789 153 789 63 m 237 685 q 280 634 237 651 q 383 617 322 617 q 487 634 444 617 q 529 685 529 651 l 529 848 q 487 899 529 882 q 383 916 444 916 q 280 899 322 916 q 237 848 237 882 l 237 685 m 102 661 l 102 871 q 229 1011 102 962 q 383 1038 297 1038 q 538 1011 471 1038 q 665 871 665 960 l 665 661 q 538 522 665 570 q 383 495 469 495 q 229 522 295 495 q 102 661 102 572 m 534 -27 l 439 19 l 920 1051 l 926 1051 l 1022 1005 l 541 -27 l 534 -27 z "},"&":{"ha":1166,"x_min":109,"x_max":1058,"o":"m 576 -14 q 451 -14 513 -14 q 262 22 347 -14 q 109 210 109 88 l 109 408 q 253 581 109 518 q 170 733 170 656 l 170 814 q 293 1002 170 940 q 451 1038 365 1038 q 609 1002 537 1038 q 732 814 732 939 l 732 771 l 604 710 l 597 710 l 597 814 q 545 893 597 862 q 451 916 509 916 q 357 893 393 916 q 305 814 305 861 l 305 733 q 357 651 305 678 q 443 626 397 630 q 563 620 508 620 l 762 380 l 933 608 l 940 608 l 1057 552 l 841 283 l 1058 28 l 940 -27 l 933 -27 l 750 193 l 576 -14 m 492 507 q 451 509 468 509 q 326 487 383 509 q 244 408 244 454 l 244 210 q 326 131 244 163 q 451 109 383 109 q 682 282 543 109 l 492 507 z "},"'":{"ha":316,"x_min":102,"x_max":214,"o":"m 208 1051 l 214 1051 l 214 723 l 109 673 l 102 673 l 102 1001 l 208 1051 z "},"(":{"ha":512,"x_min":136,"x_max":478,"o":"m 478 1187 l 478 1065 q 353 1042 410 1065 q 271 963 271 1010 l 271 61 q 353 -18 271 14 q 478 -41 410 -41 l 478 -163 q 290 -127 376 -163 q 136 61 136 -63 l 136 963 q 290 1151 136 1087 q 478 1187 376 1187 z "},")":{"ha":512,"x_min":34,"x_max":376,"o":"m 34 1187 q 222 1151 136 1187 q 376 963 376 1087 l 376 61 q 222 -127 376 -63 q 34 -163 136 -163 l 34 -41 q 159 -18 102 -41 q 241 61 241 14 l 241 963 q 159 1042 241 1010 q 34 1065 102 1065 l 34 1187 z "},"*":{"ha":802,"x_min":102,"x_max":701,"o":"m 463 1051 l 463 835 l 591 922 l 697 848 l 701 843 l 511 741 l 701 640 l 697 634 l 591 560 l 463 648 l 463 486 l 346 431 l 339 431 l 339 648 l 211 560 l 105 634 l 102 640 l 291 741 l 102 843 l 105 848 l 211 922 l 339 835 l 339 996 l 456 1051 l 463 1051 z "},"+":{"ha":823,"x_min":102,"x_max":722,"o":"m 473 822 l 473 574 l 722 574 l 722 567 l 667 450 l 473 450 l 473 257 l 357 202 l 350 202 l 350 450 l 102 450 l 102 457 l 157 574 l 350 574 l 350 767 l 467 822 l 473 822 z "},",":{"ha":413,"x_min":102,"x_max":311,"o":"m 231 189 l 237 189 q 311 23 311 116 q 145 -194 311 -106 l 116 -160 q 193 -14 193 -82 q 102 127 193 68 l 231 189 z "},"-":{"ha":823,"x_min":102,"x_max":722,"o":"m 102 450 l 102 457 l 157 574 l 722 574 l 722 567 l 667 450 l 102 450 z "},".":{"ha":407,"x_min":122,"x_max":285,"o":"m 146 11 q 134 23 146 11 q 122 70 122 35 q 146 128 122 104 q 203 153 170 153 q 261 128 237 153 q 285 70 285 104 q 261 11 285 35 q 203 -14 237 -14 q 146 11 170 -14 z "},"/":{"ha":661,"x_min":7,"x_max":654,"o":"m 102 -95 l 7 -49 l 551 1119 l 557 1119 l 654 1073 l 109 -95 l 102 -95 z "},":":{"ha":407,"x_min":122,"x_max":285,"o":"m 146 452 q 134 465 146 452 q 122 511 122 477 q 146 570 122 545 q 203 594 170 594 q 261 570 237 594 q 285 511 285 545 q 261 452 285 477 q 203 428 237 428 q 146 452 170 428 m 146 11 q 134 23 146 11 q 122 70 122 35 q 146 128 122 104 q 203 153 170 153 q 261 128 237 153 q 285 70 285 104 q 261 11 285 35 q 203 -14 237 -14 q 146 11 170 -14 z "},";":{"ha":407,"x_min":96,"x_max":305,"o":"m 139 -194 q 110 -160 139 -194 q 186 -14 186 -82 q 96 127 186 68 q 224 189 96 127 l 231 189 q 305 23 305 116 q 139 -194 305 -106 m 146 452 q 134 465 146 452 q 122 511 122 477 q 146 570 122 545 q 203 594 170 594 q 261 570 237 594 q 285 511 285 545 q 261 452 285 477 q 203 428 237 428 q 146 452 170 428 z "},"<":{"ha":907,"x_min":102,"x_max":772,"o":"m 102 450 l 102 457 l 157 574 l 716 812 l 772 695 l 772 688 l 308 500 l 772 313 l 772 306 l 716 189 l 102 450 z "},"=":{"ha":823,"x_min":102,"x_max":722,"o":"m 102 574 l 102 581 l 157 697 l 722 697 l 722 690 l 667 574 l 102 574 m 102 327 l 102 334 l 157 450 l 722 450 l 722 444 l 667 327 l 102 327 z "},">":{"ha":907,"x_min":136,"x_max":806,"o":"m 806 551 l 806 544 l 750 427 l 191 189 l 136 306 l 136 313 l 600 500 l 136 688 l 136 695 l 191 812 l 806 551 z "},"?":{"ha":888,"x_min":102,"x_max":787,"o":"m 358 245 q 477 490 359 417 q 651 713 651 597 l 651 814 q 569 893 651 861 q 444 916 512 916 q 319 893 376 916 q 237 814 237 861 l 237 712 l 109 651 l 102 651 l 102 814 q 256 1002 102 938 q 444 1038 342 1038 q 633 1002 547 1038 q 787 814 787 938 l 787 712 q 557 401 787 545 q 496 308 498 364 l 365 245 l 358 245 m 380 11 q 368 23 380 11 q 356 70 356 35 q 380 128 356 104 q 437 153 404 153 q 495 128 471 153 q 519 70 519 104 q 495 11 519 35 q 437 -14 471 -14 q 380 11 404 -14 z "},"@":{"ha":929,"x_min":122,"x_max":807,"o":"m 678 -27 l 613 -27 q 458 -1 525 -27 q 332 139 332 50 l 332 288 q 458 427 332 378 q 613 454 527 454 q 671 450 644 454 l 671 536 q 589 615 671 583 q 465 637 532 637 q 340 615 397 637 q 258 536 258 583 l 258 -68 q 340 -147 258 -115 q 465 -170 397 -170 l 465 -292 q 276 -256 362 -292 q 122 -68 122 -192 l 122 536 q 276 724 122 660 q 465 760 362 760 q 653 724 567 760 q 807 536 807 659 l 807 34 l 678 -27 m 671 100 l 671 327 q 613 332 645 332 q 510 315 552 332 q 467 264 467 298 l 467 163 q 510 112 467 129 q 613 95 552 95 q 671 100 645 95 z "},"A":{"ha":956,"x_min":136,"x_max":821,"o":"m 136 -27 l 136 814 q 290 1002 136 938 q 478 1038 376 1038 q 667 1002 581 1038 q 821 814 821 938 q 821 34 821 814 l 692 -27 l 685 -27 l 685 450 l 271 450 l 271 34 l 142 -27 l 136 -27 m 271 574 l 685 574 l 685 814 q 603 893 685 861 q 478 916 546 916 q 353 893 410 916 q 271 814 271 861 l 271 574 z "},"B":{"ha":929,"x_min":136,"x_max":807,"o":"m 271 628 l 465 628 q 559 650 522 628 q 610 730 610 683 l 610 800 q 556 880 610 857 q 465 902 502 902 l 271 902 l 271 628 m 271 122 l 465 122 q 589 144 532 122 q 671 224 671 176 l 671 404 q 589 484 671 451 q 465 506 532 506 l 271 506 l 271 122 m 136 0 l 136 990 l 208 1024 l 465 1024 q 623 988 551 1024 q 746 800 746 925 l 746 730 q 663 578 746 652 q 807 404 807 515 l 807 224 q 653 36 807 100 q 465 0 567 0 l 136 0 z "},"C":{"ha":956,"x_min":136,"x_max":821,"o":"m 821 373 l 821 210 q 667 22 821 86 q 478 -14 581 -14 q 290 22 376 -14 q 136 210 136 86 l 136 814 q 290 1002 136 938 q 478 1038 376 1038 q 667 1002 581 1038 q 821 814 821 938 l 821 712 l 692 651 l 685 651 l 685 814 q 603 893 685 860 q 478 916 546 916 q 353 893 410 916 q 271 814 271 861 l 271 210 q 353 131 271 164 q 478 109 410 109 q 603 131 546 109 q 685 210 685 163 l 685 312 l 814 373 l 821 373 z "},"D":{"ha":943,"x_min":136,"x_max":807,"o":"m 271 122 l 465 122 q 589 144 532 122 q 671 224 671 177 l 671 800 q 589 880 671 847 q 465 902 533 902 l 271 902 l 271 122 m 136 0 l 136 990 l 208 1024 l 465 1024 q 653 988 567 1024 q 807 800 807 924 l 807 224 q 653 36 807 100 q 465 0 567 0 l 136 0 z "},"E":{"ha":785,"x_min":136,"x_max":751,"o":"m 136 0 l 136 990 l 208 1024 l 637 1024 l 637 1017 l 583 901 l 271 901 l 271 574 l 637 574 l 637 567 l 583 450 l 271 450 l 271 123 l 751 123 l 751 117 l 696 0 l 136 0 z "},"F":{"ha":760,"x_min":136,"x_max":637,"o":"m 136 -27 l 136 990 l 208 1024 l 637 1024 l 637 1017 l 583 901 l 271 901 l 271 574 l 637 574 l 637 567 l 583 450 l 271 450 l 271 34 l 142 -27 l 136 -27 z "},"G":{"ha":956,"x_min":136,"x_max":821,"o":"m 821 574 l 821 210 q 667 22 821 86 q 478 -14 581 -14 q 290 22 376 -14 q 136 210 136 86 l 136 814 q 290 1002 136 938 q 478 1038 376 1038 q 667 1002 581 1038 q 821 814 821 938 l 821 712 l 692 651 l 685 651 l 685 814 q 603 893 685 861 q 478 916 546 916 q 353 893 410 916 q 271 814 271 861 l 271 210 q 353 131 271 163 q 478 109 410 109 q 603 131 546 109 q 685 210 685 163 l 685 450 l 449 450 l 449 457 l 504 574 l 821 574 z "},"H":{"ha":943,"x_min":136,"x_max":807,"o":"m 136 -27 l 136 990 l 264 1051 l 271 1051 l 271 574 l 671 574 l 671 990 l 800 1051 l 807 1051 l 807 34 l 678 -27 l 671 -27 l 671 450 l 271 450 l 271 34 l 142 -27 l 136 -27 z "},"I":{"ha":407,"x_min":136,"x_max":271,"o":"m 136 -27 l 136 990 l 264 1051 l 271 1051 l 271 34 l 142 -27 l 136 -27 z "},"J":{"ha":861,"x_min":54,"x_max":726,"o":"m 54 312 l 183 373 l 190 373 l 190 210 q 272 131 190 163 q 393 109 329 109 q 508 131 451 109 q 590 210 590 163 l 590 901 l 201 901 l 201 907 l 256 1024 l 726 1024 l 726 210 q 572 22 726 86 q 393 -14 486 -14 q 208 22 294 -14 q 54 210 54 86 l 54 312 z "},"K":{"ha":922,"x_min":136,"x_max":800,"o":"m 136 -27 l 136 990 l 264 1051 l 271 1051 l 271 541 l 640 1051 l 646 1051 l 766 995 l 463 592 q 646 555 557 592 q 800 367 800 490 l 800 34 l 671 -27 l 665 -27 l 665 367 q 583 446 665 414 q 463 470 518 470 q 354 449 408 470 q 271 367 271 417 l 271 34 l 142 -27 l 136 -27 z "},"L":{"ha":739,"x_min":136,"x_max":736,"o":"m 136 0 l 136 990 l 264 1051 l 271 1051 l 271 123 l 736 123 l 736 117 l 681 0 l 136 0 z "},"M":{"ha":1506,"x_min":136,"x_max":1370,"o":"m 136 -27 l 136 814 q 290 1002 136 938 q 478 1038 376 1038 q 667 1002 581 1038 q 753 952 718 980 q 839 1002 787 980 q 1027 1038 924 1038 q 1216 1002 1130 1038 q 1370 814 1370 938 l 1370 34 l 1241 -27 l 1234 -27 l 1234 814 q 1152 893 1234 861 q 1027 916 1095 916 q 903 893 960 916 q 821 814 821 861 l 821 34 l 692 -27 l 685 -27 l 685 814 q 603 893 685 861 q 478 916 546 916 q 353 893 410 916 q 271 814 271 861 l 271 34 l 142 -27 l 136 -27 z "},"N":{"ha":956,"x_min":136,"x_max":821,"o":"m 136 -27 l 136 814 q 290 1002 136 938 q 478 1038 376 1038 q 667 1002 581 1038 q 821 814 821 938 l 821 34 l 692 -27 l 685 -27 l 685 814 q 603 893 685 861 q 478 916 546 916 q 353 893 410 916 q 271 814 271 861 l 271 34 l 142 -27 l 136 -27 z "},"O":{"ha":956,"x_min":136,"x_max":821,"o":"m 271 210 q 353 131 271 164 q 478 109 410 109 q 603 131 546 109 q 685 210 685 163 l 685 814 q 603 893 685 860 q 478 916 546 916 q 353 893 410 916 q 271 814 271 861 l 271 210 m 136 210 q 136 814 136 210 q 290 1002 136 938 q 478 1038 376 1038 q 667 1002 581 1038 q 821 814 821 938 l 821 210 q 667 22 821 86 q 478 -14 581 -14 q 290 22 376 -14 q 136 210 136 86 z "},"P":{"ha":909,"x_min":136,"x_max":807,"o":"m 136 -27 l 136 990 l 208 1024 l 465 1024 q 653 988 567 1024 q 807 800 807 924 l 807 570 q 653 382 807 446 q 465 346 567 346 l 271 346 l 271 34 l 142 -27 l 136 -27 m 271 468 l 465 468 q 589 490 532 468 q 671 570 671 523 l 671 800 q 589 880 671 848 q 465 902 532 902 l 271 902 l 271 468 z "},"Q":{"ha":956,"x_min":136,"x_max":821,"o":"m 136 210 l 136 814 q 290 1002 136 938 q 478 1038 376 1038 q 667 1002 581 1038 q 821 814 821 938 l 821 210 q 756 75 821 130 l 789 29 l 669 -27 l 663 -27 l 636 11 q 478 -14 562 -14 q 290 22 376 -14 q 136 210 136 86 m 271 210 q 353 131 271 163 q 478 109 410 109 q 562 118 522 109 l 428 309 l 547 365 l 554 365 l 679 186 q 685 210 685 197 l 685 814 q 603 893 685 860 q 478 916 546 916 q 353 893 410 916 q 271 814 271 861 l 271 210 z "},"R":{"ha":925,"x_min":136,"x_max":823,"o":"m 271 468 l 465 468 q 589 490 532 468 q 671 570 671 523 l 671 800 q 589 880 671 848 q 465 902 532 902 l 271 902 l 271 468 m 136 -27 l 136 990 l 208 1024 l 465 1024 q 653 988 567 1024 q 807 800 807 924 l 807 570 q 653 382 807 445 q 591 361 623 370 l 823 29 l 704 -27 l 697 -27 l 436 346 l 271 346 l 271 34 l 142 -27 l 136 -27 z "},"S":{"ha":902,"x_min":109,"x_max":793,"o":"m 109 312 l 237 373 l 244 373 l 244 210 q 326 131 244 163 q 451 109 383 109 q 576 131 519 109 q 658 210 658 163 l 658 408 q 576 487 658 455 q 451 509 519 509 q 296 536 365 509 q 170 675 170 586 l 170 871 q 296 1011 170 962 q 451 1038 365 1038 q 606 1011 537 1038 q 732 871 732 961 l 732 785 l 604 724 l 597 724 l 597 848 q 554 899 597 882 q 451 916 512 916 q 348 899 390 916 q 305 848 305 882 l 305 699 q 348 648 305 665 q 451 631 390 631 q 640 595 553 631 q 793 408 793 532 l 793 210 q 640 22 793 87 q 451 -14 553 -14 q 262 22 349 -14 q 109 210 109 86 l 109 312 z "},"T":{"ha":723,"x_min":3,"x_max":720,"o":"m 294 -27 l 294 901 l 3 901 l 3 907 l 58 1024 l 720 1024 l 720 1017 l 665 901 l 429 901 l 429 34 l 300 -27 l 294 -27 z "},"U":{"ha":956,"x_min":136,"x_max":821,"o":"m 136 990 l 264 1051 l 271 1051 l 271 210 q 353 131 271 163 q 478 109 410 109 q 603 131 546 109 q 685 210 685 163 l 685 990 l 814 1051 l 821 1051 l 821 210 q 667 22 821 86 q 478 -14 581 -14 q 290 22 376 -14 q 136 210 136 86 l 136 990 z "},"V":{"ha":801,"x_min":3,"x_max":798,"o":"m 349 -27 l 3 996 l 121 1051 l 127 1051 l 408 199 l 673 1051 l 680 1051 l 798 996 l 473 28 l 356 -27 l 349 -27 z "},"W":{"ha":1506,"x_min":136,"x_max":1370,"o":"m 136 990 l 264 1051 l 271 1051 l 271 210 q 353 131 271 163 q 478 109 410 109 q 603 131 546 109 q 685 210 685 163 l 685 990 l 814 1051 l 821 1051 l 821 210 q 903 131 821 163 q 1027 109 960 109 q 1152 131 1095 109 q 1234 210 1234 163 l 1234 990 l 1363 1051 l 1370 1051 l 1370 210 q 1216 22 1370 86 q 1027 -14 1130 -14 q 839 22 924 -14 q 753 72 787 44 q 667 22 718 44 q 478 -14 581 -14 q 290 22 376 -14 q 136 210 136 86 l 136 990 z "},"X":{"ha":867,"x_min":68,"x_max":799,"o":"m 186 -27 l 68 28 l 354 512 l 68 995 l 186 1051 l 193 1051 l 433 632 l 673 1051 l 680 1051 l 799 995 l 513 512 l 799 28 l 681 -27 l 674 -27 l 433 392 l 193 -27 l 186 -27 z "},"Y":{"ha":888,"x_min":102,"x_max":787,"o":"m 376 -27 l 376 327 q 256 359 313 335 q 102 547 102 422 l 102 990 l 231 1051 l 237 1051 l 237 547 q 319 467 237 500 q 444 445 376 445 q 569 467 512 445 q 651 547 651 500 l 651 990 l 780 1051 l 787 1051 l 787 547 q 633 359 787 423 q 512 327 576 335 l 512 34 l 383 -27 l 376 -27 z "},"Z":{"ha":859,"x_min":102,"x_max":758,"o":"m 102 0 l 102 7 l 541 901 l 109 901 l 109 907 l 163 1024 l 751 1024 l 751 1017 l 310 123 l 758 123 l 758 117 l 703 0 l 102 0 z "},"[":{"ha":586,"x_min":136,"x_max":552,"o":"m 136 -163 l 136 1126 l 264 1187 l 552 1187 l 552 1180 l 511 1092 l 271 1092 l 271 -68 l 552 -68 l 552 -75 l 511 -163 l 136 -163 z "},"\\":{"ha":661,"x_min":7,"x_max":654,"o":"m 551 -95 l 7 1073 l 102 1119 l 109 1119 l 654 -49 l 557 -95 l 551 -95 z "},"]":{"ha":586,"x_min":34,"x_max":450,"o":"m 34 -163 l 34 -156 l 75 -68 l 315 -68 l 315 1092 l 34 1092 l 34 1099 l 75 1187 l 450 1187 l 450 -102 l 321 -163 l 34 -163 z "},"^":{"ha":896,"x_min":102,"x_max":794,"o":"m 102 738 l 358 996 l 475 1051 l 482 1051 l 794 738 l 677 682 l 670 682 l 447 901 l 226 682 l 219 682 l 102 738 z "},"_":{"ha":823,"x_min":102,"x_max":722,"o":"m 102 -278 l 102 -271 l 157 -155 l 722 -155 l 722 -161 l 667 -278 l 102 -278 z "},"`":{"ha":439,"x_min":102,"x_max":338,"o":"m 221 1051 l 228 1051 l 338 817 l 258 780 l 252 780 l 102 994 l 221 1051 z "},"a":{"ha":719,"x_min":68,"x_max":617,"o":"m 617 34 l 488 -27 l 481 -27 l 481 9 q 342 -14 416 -14 q 195 13 263 -14 q 68 153 68 63 l 68 336 q 195 475 68 427 q 342 502 263 502 q 481 479 417 502 l 481 570 q 439 621 481 604 q 336 637 397 637 l 171 637 l 171 644 l 225 760 l 336 760 q 490 733 422 760 q 617 593 617 684 l 617 34 m 203 176 q 246 125 203 142 q 342 109 288 109 q 439 125 397 109 q 481 176 481 142 l 481 312 q 439 363 481 346 q 342 380 397 380 q 245 363 288 380 q 203 312 203 346 l 203 176 z "},"b":{"ha":800,"x_min":136,"x_max":699,"o":"m 136 153 l 136 990 l 264 1051 l 271 1051 l 271 736 q 417 760 336 760 q 572 733 503 760 q 699 593 699 683 l 699 153 q 572 13 699 62 q 417 -14 503 -14 q 262 13 331 -14 q 136 153 136 63 m 271 570 l 271 176 q 314 125 271 142 q 417 109 356 109 q 520 125 478 109 q 563 176 563 142 l 563 570 q 520 621 563 604 q 417 637 478 637 q 314 621 356 637 q 271 570 271 604 z "},"c":{"ha":766,"x_min":102,"x_max":665,"o":"m 665 300 l 665 153 q 538 13 665 63 q 383 -14 469 -14 q 229 13 297 -14 q 102 153 102 63 l 102 593 q 229 733 102 683 q 383 760 297 760 q 538 733 469 760 q 665 593 665 683 l 665 507 l 536 446 l 529 446 l 529 570 q 487 621 529 604 q 383 637 444 637 q 280 621 322 637 q 237 570 237 604 l 237 176 q 280 125 237 142 q 383 109 322 109 q 487 125 444 109 q 529 176 529 142 l 529 239 l 658 300 l 665 300 z "},"d":{"ha":800,"x_min":102,"x_max":665,"o":"m 102 153 q 102 593 102 153 q 229 733 102 684 q 383 760 297 760 q 529 736 464 760 l 529 990 l 658 1051 l 665 1051 l 665 153 q 538 13 665 62 q 383 -14 469 -14 q 229 13 297 -14 q 102 153 102 63 m 237 176 q 280 125 237 142 q 383 109 322 109 q 487 125 444 109 q 529 176 529 142 l 529 570 q 487 621 529 604 q 383 637 444 637 q 280 621 322 637 q 237 570 237 604 l 237 176 z "},"e":{"ha":766,"x_min":102,"x_max":665,"o":"m 665 300 l 665 153 q 538 13 665 63 q 383 -14 469 -14 q 229 13 297 -14 q 102 153 102 63 l 102 593 q 229 733 102 683 q 383 760 297 760 q 538 733 469 760 q 665 593 665 683 l 665 507 l 237 176 q 280 125 237 142 q 383 109 322 109 q 487 125 444 109 q 529 176 529 142 l 529 239 l 658 300 l 665 300 m 237 319 l 529 554 l 529 570 q 487 621 529 604 q 383 637 444 637 q 280 621 322 637 q 237 570 237 604 l 237 319 z "},"f":{"ha":576,"x_min":34,"x_max":509,"o":"m 136 -27 l 136 555 l 34 555 l 34 562 l 89 678 l 136 678 l 136 871 q 262 1011 136 962 q 417 1038 331 1038 l 509 1038 l 509 1031 l 454 916 l 417 916 q 314 899 356 916 q 271 848 271 882 l 271 678 l 496 678 l 496 671 l 441 555 l 271 555 l 271 34 l 142 -27 l 136 -27 z "},"g":{"ha":787,"x_min":102,"x_max":665,"o":"m 102 153 l 102 593 q 229 733 102 684 q 383 760 297 760 q 538 733 469 760 q 665 593 665 683 l 665 -125 q 538 -265 665 -216 q 383 -292 469 -292 l 172 -292 l 172 -285 l 227 -170 l 383 -170 q 487 -153 444 -170 q 529 -102 529 -136 l 529 9 q 383 -14 464 -14 q 229 13 297 -14 q 102 153 102 63 m 237 176 q 280 125 237 142 q 383 109 322 109 q 487 125 445 109 q 529 176 529 142 l 529 570 q 487 621 529 604 q 383 637 444 637 q 280 621 322 637 q 237 570 237 604 l 237 176 z "},"h":{"ha":800,"x_min":136,"x_max":699,"o":"m 136 -27 l 136 990 l 264 1051 l 271 1051 l 271 736 q 417 760 336 760 q 572 733 503 760 q 699 593 699 684 l 699 34 l 570 -27 l 563 -27 l 563 570 q 520 621 563 604 q 417 637 478 637 q 314 621 356 637 q 271 570 271 604 l 271 34 l 142 -27 l 136 -27 z "},"i":{"ha":407,"x_min":122,"x_max":285,"o":"m 146 896 q 134 908 146 896 q 122 955 122 920 q 146 1013 122 989 q 203 1038 170 1038 q 261 1013 237 1038 q 285 955 285 989 q 261 896 285 920 q 203 871 237 871 q 146 896 170 871 m 136 -27 l 136 712 l 264 773 l 271 773 l 271 34 l 142 -27 l 136 -27 z "},"j":{"ha":407,"x_min":-10,"x_max":285,"o":"m 136 712 l 264 773 l 271 773 l 271 -125 q 144 -265 271 -216 q -10 -292 76 -292 l -10 -285 l 46 -165 q 94 -153 72 -161 q 136 -102 136 -135 l 136 712 m 146 896 q 134 908 146 896 q 122 955 122 920 q 146 1013 122 989 q 203 1038 170 1038 q 261 1013 237 1038 q 285 955 285 989 q 261 896 285 920 q 203 871 237 871 q 146 896 170 871 z "},"k":{"ha":800,"x_min":136,"x_max":699,"o":"m 136 -27 l 136 990 l 264 1051 l 271 1051 l 271 486 l 555 773 l 562 773 l 681 717 l 454 508 q 572 483 518 503 q 699 343 699 435 l 699 34 l 570 -27 l 563 -27 l 563 319 q 520 370 563 353 q 417 387 478 387 q 314 370 356 387 q 271 319 271 353 l 271 34 l 142 -27 l 136 -27 z "},"l":{"ha":407,"x_min":136,"x_max":271,"o":"m 136 -27 l 136 990 l 264 1051 l 271 1051 l 271 34 l 142 -27 l 136 -27 z "},"m":{"ha":1194,"x_min":102,"x_max":1092,"o":"m 102 -27 l 102 593 q 229 733 102 684 q 383 760 297 760 q 538 733 468 760 q 597 704 572 720 q 656 733 622 720 q 810 760 726 760 q 965 733 897 760 q 1092 593 1092 684 l 1092 34 l 963 -27 l 956 -27 l 956 570 q 914 621 956 604 q 810 637 871 637 q 707 621 749 637 q 665 570 665 604 l 665 34 l 536 -27 l 529 -27 l 529 570 q 487 621 529 604 q 383 637 444 637 q 280 621 322 637 q 237 570 237 604 l 237 34 l 109 -27 l 102 -27 z "},"n":{"ha":766,"x_min":102,"x_max":665,"o":"m 102 -27 l 102 593 q 229 733 102 684 q 383 760 297 760 q 538 733 469 760 q 665 593 665 684 l 665 34 l 536 -27 l 529 -27 l 529 570 q 487 621 529 604 q 383 637 444 637 q 280 621 322 637 q 237 570 237 604 l 237 34 l 109 -27 l 102 -27 z "},"o":{"ha":766,"x_min":102,"x_max":665,"o":"m 237 176 q 280 125 237 142 q 383 109 322 109 q 487 125 444 109 q 529 176 529 142 l 529 570 q 487 621 529 604 q 383 637 444 637 q 280 621 322 637 q 237 570 237 604 l 237 176 m 102 153 l 102 593 q 229 733 102 683 q 383 760 297 760 q 538 733 469 760 q 665 593 665 683 l 665 153 q 538 13 665 63 q 383 -14 469 -14 q 229 13 297 -14 q 102 153 102 63 z "},"p":{"ha":800,"x_min":136,"x_max":699,"o":"m 699 593 q 699 153 699 593 q 572 13 699 62 q 417 -14 503 -14 q 271 9 336 -14 l 271 -244 l 142 -305 l 136 -305 l 136 593 q 262 733 136 684 q 417 760 331 760 q 572 733 503 760 q 699 593 699 683 m 563 570 q 520 621 563 604 q 417 637 478 637 q 314 621 356 637 q 271 570 271 604 l 271 176 q 314 125 271 142 q 417 109 356 109 q 520 125 478 109 q 563 176 563 142 l 563 570 z "},"q":{"ha":800,"x_min":102,"x_max":665,"o":"m 102 153 l 102 593 q 229 733 102 684 q 383 760 297 760 q 538 733 469 760 q 665 593 665 683 l 665 -244 l 536 -305 l 529 -305 l 529 9 q 383 -14 464 -14 q 229 13 297 -14 q 102 153 102 63 m 237 176 q 280 125 237 142 q 383 109 322 109 q 487 125 444 109 q 529 176 529 142 l 529 570 q 487 621 529 604 q 383 637 444 637 q 280 621 322 637 q 237 570 237 604 l 237 176 z "},"r":{"ha":488,"x_min":102,"x_max":475,"o":"m 102 -27 l 102 593 q 229 733 102 684 q 383 760 297 760 l 475 760 l 475 753 l 420 637 l 383 637 q 280 621 322 637 q 237 570 237 604 l 237 34 l 109 -27 l 102 -27 z "},"s":{"ha":726,"x_min":81,"x_max":644,"o":"m 81 239 l 210 300 l 217 300 l 217 176 q 259 125 217 142 q 363 109 302 109 q 467 125 426 109 q 509 176 509 143 l 509 282 q 465 333 509 315 q 362 350 423 350 q 229 376 295 350 q 110 516 110 425 l 110 593 q 222 729 110 680 q 363 760 292 760 q 479 739 430 760 q 596 593 596 689 l 467 532 l 460 532 l 460 570 q 433 623 460 609 q 363 637 405 637 q 275 621 304 637 q 245 570 245 604 l 245 540 q 273 489 245 506 q 362 472 301 472 q 517 446 448 472 q 644 306 644 397 l 644 153 q 517 13 644 62 q 363 -14 449 -14 q 208 13 277 -14 q 81 153 81 63 l 81 239 z "},"t":{"ha":518,"x_min":17,"x_max":501,"o":"m 191 -27 l 191 623 l 17 623 l 17 629 l 72 746 l 191 746 l 191 990 l 320 1051 l 327 1051 l 327 746 l 501 746 l 501 739 l 446 623 l 327 623 l 327 34 l 198 -27 l 191 -27 z "},"u":{"ha":766,"x_min":102,"x_max":665,"o":"m 102 712 l 231 773 l 237 773 l 237 176 q 280 125 237 142 q 383 109 322 109 q 487 125 444 109 q 529 176 529 142 l 529 712 l 658 773 l 665 773 l 665 153 q 538 13 665 62 q 383 -14 469 -14 q 229 13 297 -14 q 102 153 102 62 l 102 712 z "},"v":{"ha":696,"x_min":34,"x_max":662,"o":"m 296 -27 l 34 718 l 151 773 l 158 773 l 350 208 l 538 773 l 545 773 l 662 718 l 420 28 l 302 -27 l 296 -27 z "},"w":{"ha":1194,"x_min":102,"x_max":1092,"o":"m 102 712 l 231 773 l 237 773 l 237 176 q 280 125 237 142 q 383 109 322 109 q 487 125 444 109 q 529 176 529 142 l 529 712 l 658 773 l 665 773 l 665 176 q 707 125 665 142 q 810 109 749 109 q 914 125 871 109 q 956 176 956 142 l 956 712 l 1085 773 l 1092 773 l 1092 153 q 965 13 1092 62 q 810 -14 897 -14 q 656 13 726 -14 q 597 42 622 26 q 538 13 572 26 q 383 -14 468 -14 q 229 13 297 -14 q 102 153 102 62 l 102 712 z "},"x":{"ha":688,"x_min":54,"x_max":634,"o":"m 179 -27 l 172 -27 l 54 28 l 264 373 l 54 717 l 173 773 l 180 773 l 345 484 l 509 773 l 515 773 l 634 717 l 424 373 l 634 28 l 516 -27 l 509 -27 l 345 263 l 179 -27 z "},"y":{"ha":800,"x_min":102,"x_max":665,"o":"m 102 712 l 231 773 l 237 773 l 237 176 q 280 125 237 142 q 383 109 322 109 q 487 125 444 109 q 529 176 529 142 l 529 712 l 658 773 l 665 773 l 665 -125 q 538 -265 665 -216 q 383 -292 469 -292 l 172 -292 l 172 -285 l 227 -170 l 383 -170 q 487 -153 444 -170 q 529 -102 529 -136 l 529 9 q 383 -14 464 -14 q 229 13 297 -14 q 102 153 102 62 l 102 712 z "},"z":{"ha":714,"x_min":68,"x_max":646,"o":"m 68 0 l 68 7 l 422 623 l 75 623 l 75 629 l 130 746 l 640 746 l 640 739 l 286 123 l 646 123 l 646 117 l 591 0 l 68 0 z "},"{":{"ha":559,"x_min":34,"x_max":526,"o":"m 526 1187 l 526 1065 q 401 1042 458 1065 q 319 963 319 1010 l 319 61 q 401 -18 319 14 q 526 -41 458 -41 l 526 -163 q 337 -127 423 -163 q 183 61 183 -63 l 183 450 l 34 450 l 34 457 l 89 574 l 183 574 l 183 963 q 337 1151 183 1087 q 526 1187 423 1187 z "},"|":{"ha":452,"x_min":170,"x_max":282,"o":"m 170 -163 l 170 1137 l 275 1187 l 282 1187 l 282 -113 l 176 -163 l 170 -163 z "},"}":{"ha":559,"x_min":34,"x_max":526,"o":"m 34 1187 q 222 1151 136 1187 q 376 963 376 1087 l 376 574 l 526 574 l 526 567 l 471 450 l 376 450 l 376 61 q 222 -127 376 -63 q 34 -163 136 -163 l 34 -41 q 159 -18 102 -41 q 241 61 241 14 l 241 963 q 159 1042 241 1010 q 34 1065 102 1065 l 34 1187 z "},"~":{"ha":772,"x_min":102,"x_max":670,"o":"m 102 395 q 262 640 102 640 q 414 572 353 640 q 500 515 463 515 q 549 585 549 515 l 663 640 l 670 640 q 509 395 670 395 q 358 464 418 395 q 271 520 309 520 q 222 450 222 520 l 109 395 l 102 395 z "}," ":{"ha":543,"x_min":0,"x_max":0,"o":""},"¡":{"ha":407,"x_min":122,"x_max":285,"o":"m 261 1013 q 273 1001 261 1013 q 285 955 285 989 q 261 896 285 920 q 203 871 237 871 q 146 896 170 871 q 122 955 122 920 q 146 1013 122 989 q 203 1038 170 1038 q 261 1013 237 1038 m 142 -27 l 136 -27 l 136 678 l 264 739 l 271 739 l 271 34 l 142 -27 z "},"¢":{"ha":766,"x_min":102,"x_max":665,"o":"m 665 300 l 665 153 q 538 13 665 62 q 422 -12 486 -7 l 422 -129 l 351 -163 l 344 -163 l 344 -12 q 229 13 281 -7 q 102 153 102 62 l 102 593 q 229 733 102 684 q 344 758 281 753 l 344 875 l 416 909 l 422 909 l 422 758 q 538 733 486 753 q 665 593 665 684 l 665 507 l 536 446 l 529 446 l 529 570 q 487 621 529 604 q 422 635 458 632 l 422 111 q 487 125 458 114 q 529 176 529 143 l 529 239 l 658 300 l 665 300 m 344 111 l 344 635 q 279 621 308 632 q 237 570 237 603 l 237 176 q 279 125 237 143 q 344 111 308 114 z "},"£":{"ha":905,"x_min":102,"x_max":804,"o":"m 102 0 l 102 7 l 157 123 l 203 123 l 203 406 l 102 406 l 102 412 l 157 529 l 203 529 l 203 871 q 330 1011 203 962 q 485 1038 399 1038 q 640 1011 573 1038 q 766 871 766 961 l 766 771 l 637 710 l 631 710 l 631 848 q 588 899 631 882 q 485 916 546 916 q 381 899 424 916 q 339 848 339 882 l 339 529 l 621 529 l 621 522 l 566 406 l 339 406 l 339 123 l 804 123 l 804 117 l 749 0 l 102 0 z "},"¤":{"ha":977,"x_min":102,"x_max":875,"o":"m 102 223 l 177 298 q 151 391 151 340 l 151 623 q 188 729 151 683 l 113 804 l 118 808 l 239 852 l 288 803 q 305 810 296 807 q 494 846 399 846 q 682 810 596 846 q 699 804 690 807 l 748 852 l 869 809 l 874 804 l 800 730 q 836 623 836 683 l 836 391 q 800 284 836 330 l 875 209 l 870 204 l 749 161 l 699 210 q 682 203 691 206 q 494 167 589 167 q 305 203 381 167 q 271 219 293 209 l 228 175 l 106 218 l 102 223 m 287 391 q 369 311 287 344 q 494 289 426 289 q 618 311 562 289 q 701 391 701 344 l 701 623 q 618 702 701 669 q 494 724 562 724 q 369 702 426 724 q 287 623 287 669 l 287 391 z "},"¥":{"ha":867,"x_min":68,"x_max":799,"o":"m 350 -27 l 350 292 l 123 292 l 123 298 l 178 415 l 328 415 l 283 515 l 123 515 l 123 522 l 178 639 l 228 639 l 68 995 l 186 1051 l 193 1051 l 375 639 l 530 639 l 721 1051 l 728 1051 l 799 1017 l 618 639 l 743 639 l 743 632 l 688 515 l 559 515 l 511 415 l 743 415 l 743 408 l 688 292 l 486 292 l 486 34 l 357 -27 l 350 -27 m 472 515 l 429 515 l 450 468 l 472 515 z "},"¦":{"ha":452,"x_min":170,"x_max":282,"o":"m 170 -163 l 170 398 l 275 448 l 282 448 l 282 -113 l 176 -163 l 170 -163 m 275 1187 l 282 1187 l 282 626 l 176 576 l 170 576 l 170 1137 l 275 1187 z "},"§":{"ha":766,"x_min":102,"x_max":665,"o":"m 150 153 l 279 214 l 286 214 l 286 176 q 313 123 286 137 q 383 109 341 109 q 471 125 441 109 q 500 176 500 142 l 500 206 q 473 257 500 240 q 384 274 445 274 q 229 300 298 274 q 102 440 102 349 l 102 628 l 237 584 l 237 464 q 281 413 237 431 q 384 396 323 396 q 517 370 451 396 q 636 230 636 321 l 636 153 q 524 17 636 66 q 383 -14 454 -14 q 267 7 316 -14 q 150 153 150 57 m 616 871 l 488 810 l 481 810 l 481 848 q 453 901 481 887 q 383 916 425 916 q 295 899 325 916 q 266 848 266 882 l 266 818 q 294 767 266 784 q 382 750 321 750 q 537 724 469 750 q 665 584 665 675 l 665 396 l 529 440 l 529 560 q 486 611 529 593 q 382 628 444 628 q 249 654 315 628 q 130 794 130 703 l 130 871 q 243 1007 130 958 q 383 1038 313 1038 q 499 1017 450 1038 q 616 871 616 967 z "},"¨":{"ha":570,"x_min":102,"x_max":468,"o":"m 329 896 q 317 908 329 896 q 305 955 305 920 q 329 1013 305 989 q 387 1038 353 1038 q 444 1013 420 1038 q 468 955 468 989 q 444 896 468 920 q 387 871 420 871 q 329 896 353 871 m 125 896 q 114 908 125 896 q 102 955 102 920 q 125 1013 102 989 q 183 1038 149 1038 q 241 1013 217 1038 q 264 955 264 989 q 241 896 264 920 q 183 871 217 871 q 125 896 149 871 z "},"©":{"ha":950,"x_min":102,"x_max":848,"o":"m 667 463 l 667 365 q 580 255 667 290 q 479 236 533 236 q 378 255 426 236 q 290 361 290 290 l 290 653 q 378 760 290 726 q 479 779 427 779 q 580 760 534 779 q 667 650 667 723 l 667 588 l 589 551 l 566 551 l 566 650 q 562 658 565 654 q 535 673 555 665 q 479 684 510 684 q 422 674 447 684 q 396 659 404 667 q 392 651 392 655 l 392 363 q 396 355 393 359 q 422 340 404 347 q 479 331 448 331 q 535 341 509 331 q 562 357 553 348 q 566 365 566 361 l 566 427 l 643 463 l 667 463 m 475 903 q 618 873 550 903 q 739 787 683 846 q 821 661 793 731 q 848 511 848 593 q 821 363 848 433 q 739 237 795 296 q 618 151 686 181 q 475 122 551 122 q 332 151 400 122 q 211 237 267 179 q 129 363 156 294 q 102 511 102 431 q 129 661 102 592 q 211 787 156 730 q 332 874 266 845 q 475 903 399 903 m 475 848 q 353 824 409 848 q 248 749 296 800 q 176 640 201 700 q 152 515 152 581 l 152 511 q 176 384 152 444 q 248 275 199 328 q 352 201 296 225 q 475 176 410 176 q 599 201 541 176 q 703 275 655 225 q 774 383 750 324 q 798 511 798 442 q 774 641 798 581 q 703 749 751 699 q 599 824 656 799 q 475 848 541 848 z "},"ª":{"ha":648,"x_min":102,"x_max":546,"o":"m 473 652 l 399 617 l 378 617 l 378 631 q 323 624 352 624 q 244 638 281 624 q 172 720 172 666 l 172 812 q 244 895 172 867 q 323 909 280 909 q 378 902 352 909 l 378 929 q 373 938 378 934 q 359 945 370 940 q 319 949 348 949 l 224 949 l 224 969 l 256 1038 l 319 1038 q 401 1023 365 1038 q 473 941 473 996 l 473 652 m 267 732 q 273 724 267 729 q 286 717 275 722 q 323 712 298 712 q 359 717 347 712 q 373 724 363 718 q 378 732 378 726 l 378 800 q 373 809 378 804 q 359 816 371 811 q 323 821 348 821 q 279 813 302 821 q 273 810 275 812 q 267 800 267 806 l 267 732 m 102 450 l 102 457 l 157 574 l 546 574 l 546 567 l 491 450 l 102 450 z "},"«":{"ha":819,"x_min":102,"x_max":684,"o":"m 559 206 l 363 537 l 559 871 l 566 871 l 684 815 l 519 539 l 684 262 l 566 206 l 559 206 m 298 206 l 102 537 l 298 871 l 304 871 l 422 815 l 258 539 l 422 262 l 304 206 l 298 206 z "},"¬":{"ha":823,"x_min":102,"x_max":722,"o":"m 435 273 l 532 450 l 102 450 l 102 457 l 157 574 l 722 574 l 722 567 l 581 273 l 435 273 z "},"­":{"ha":823,"x_min":102,"x_max":722,"o":"m 102 450 l 102 457 l 157 574 l 722 574 l 722 567 l 667 450 l 102 450 z "},"®":{"ha":950,"x_min":102,"x_max":848,"o":"m 401 688 l 401 522 l 481 522 q 538 531 514 522 q 564 545 557 538 q 568 553 568 549 l 568 658 q 564 665 568 662 q 538 680 556 673 q 481 688 512 688 l 401 688 m 300 241 l 300 760 l 349 783 l 481 783 q 583 764 537 783 q 670 660 670 728 l 670 550 q 582 446 670 484 q 572 442 577 444 l 686 279 l 605 241 l 589 241 l 458 427 l 401 427 l 401 277 l 324 241 l 300 241 m 475 848 q 353 824 409 848 q 248 749 296 800 q 176 640 201 700 q 152 515 152 581 l 152 511 q 176 384 152 444 q 248 275 199 328 q 352 201 296 225 q 475 176 410 176 q 599 201 541 176 q 703 275 655 225 q 774 383 750 324 q 798 511 798 442 q 774 641 798 581 q 703 749 751 699 q 599 824 656 799 q 475 848 541 848 m 475 903 q 618 873 550 903 q 739 787 683 846 q 821 661 793 731 q 848 511 848 593 q 821 363 848 433 q 739 237 795 296 q 618 151 686 181 q 475 122 551 122 q 332 151 400 122 q 211 237 267 179 q 129 363 156 294 q 102 511 102 431 q 129 661 102 593 q 211 787 156 730 q 332 874 267 845 q 475 903 398 903 z "},"¯":{"ha":823,"x_min":102,"x_max":722,"o":"m 102 901 l 102 907 l 157 1024 l 722 1024 l 722 1017 l 667 901 l 102 901 z "},"°":{"ha":766,"x_min":102,"x_max":665,"o":"m 237 685 q 280 634 237 651 q 383 617 322 617 q 487 634 444 617 q 529 685 529 651 l 529 848 q 487 899 529 882 q 383 916 444 916 q 280 899 322 916 q 237 848 237 882 l 237 685 m 102 661 l 102 871 q 229 1011 102 962 q 383 1038 297 1038 q 538 1011 471 1038 q 665 871 665 960 l 665 661 q 538 522 665 570 q 383 495 469 495 q 229 522 295 495 q 102 661 102 572 z "},"±":{"ha":823,"x_min":102,"x_max":722,"o":"m 102 165 l 102 172 l 157 288 l 722 288 l 722 281 l 667 165 l 102 165 m 473 938 l 473 690 l 722 690 l 722 683 l 667 566 l 473 566 l 473 373 l 357 318 l 350 318 l 350 566 l 102 566 l 102 573 l 157 690 l 350 690 l 350 883 l 467 938 l 473 938 z "},"²":{"ha":585,"x_min":102,"x_max":483,"o":"m 102 495 l 102 519 l 132 584 l 297 736 q 380 836 380 813 q 380 838 380 837 l 380 910 q 376 918 379 915 q 349 933 369 926 q 293 943 323 943 q 237 932 262 943 q 210 917 219 926 q 206 909 206 913 l 207 840 l 130 804 l 105 804 l 104 909 q 192 1019 104 982 q 293 1038 239 1038 q 394 1019 347 1038 q 481 913 481 983 l 481 837 q 384 687 481 770 l 272 591 l 483 591 l 483 566 l 449 495 l 102 495 z "},"³":{"ha":580,"x_min":102,"x_max":478,"o":"m 102 659 l 180 696 l 203 696 l 203 611 q 208 603 203 607 q 234 587 216 595 q 292 577 259 577 q 346 587 320 577 q 373 602 367 595 q 376 610 376 606 l 376 709 q 372 718 376 713 q 346 732 365 726 q 290 742 319 742 q 195 730 220 742 l 298 928 l 132 928 l 132 953 l 165 1024 l 461 1024 l 345 829 q 391 815 370 823 q 478 709 478 781 l 478 607 q 391 501 478 537 q 288 482 346 482 q 189 501 234 482 q 102 611 102 538 l 102 659 z "},"´":{"ha":439,"x_min":102,"x_max":338,"o":"m 212 1051 l 218 1051 l 338 994 l 188 780 l 181 780 l 102 817 l 212 1051 z "},"µ":{"ha":800,"x_min":136,"x_max":699,"o":"m 136 -305 l 136 712 l 264 773 l 271 773 l 271 176 q 314 125 271 142 q 417 109 356 109 q 520 125 478 109 q 563 176 563 142 l 563 712 l 692 773 l 699 773 l 699 153 q 572 13 699 62 q 417 -14 503 -14 q 271 9 336 -14 l 271 -244 l 142 -305 l 136 -305 z "},"¶":{"ha":800,"x_min":102,"x_max":665,"o":"m 529 -27 l 529 399 q 383 376 465 376 q 229 402 295 376 q 102 542 102 452 l 102 871 q 229 1011 102 962 q 383 1038 297 1038 q 538 1011 471 1038 q 665 871 665 960 l 665 34 l 620 13 l 620 771 l 576 771 l 576 -8 l 536 -27 l 529 -27 z "},"·":{"ha":407,"x_min":122,"x_max":285,"o":"m 146 452 q 134 465 146 452 q 122 511 122 477 q 146 570 122 545 q 203 594 170 594 q 261 570 237 594 q 285 511 285 545 q 261 452 285 477 q 203 428 237 428 q 146 452 170 428 z "},"¸":{"ha":413,"x_min":102,"x_max":311,"o":"m 145 189 q 311 -28 311 101 q 237 -194 311 -121 l 231 -194 l 102 -133 q 193 8 193 -74 q 116 155 193 77 l 145 189 z "},"¹":{"ha":456,"x_min":102,"x_max":286,"o":"m 262 1051 l 286 1051 l 286 518 l 209 481 l 184 481 l 184 937 l 102 899 l 102 975 l 262 1051 z "},"º":{"ha":648,"x_min":102,"x_max":546,"o":"m 265 732 q 271 724 265 729 q 284 717 273 722 q 324 712 296 712 q 363 717 352 712 q 378 724 368 718 q 384 732 383 726 l 384 929 q 378 938 384 933 q 364 945 374 941 q 324 949 352 949 q 285 945 296 949 q 271 938 281 943 q 265 929 265 935 l 265 732 m 170 720 l 170 941 q 242 1023 170 995 q 324 1038 278 1038 q 406 1023 369 1038 q 479 941 479 996 l 479 720 q 406 638 479 667 q 324 624 370 624 q 241 639 279 624 q 170 720 170 667 m 102 450 l 102 457 l 157 574 l 546 574 l 546 567 l 491 450 l 102 450 z "},"»":{"ha":819,"x_min":136,"x_max":718,"o":"m 260 206 l 254 206 l 136 262 l 300 539 l 136 815 l 254 871 l 260 871 l 456 537 l 260 206 m 522 206 l 515 206 l 397 262 l 561 539 l 397 815 l 515 871 l 522 871 l 718 537 l 522 206 z "},"¼":{"ha":996,"x_min":102,"x_max":861,"o":"m 596 228 l 708 228 l 708 366 l 596 228 m 708 -27 l 708 132 l 460 132 l 460 157 l 490 220 l 714 509 l 785 543 l 810 543 l 810 228 l 861 228 l 861 203 l 827 132 l 810 132 l 810 9 l 732 -27 l 708 -27 m 262 1051 l 286 1051 l 286 518 l 209 481 l 184 481 l 184 937 l 102 899 l 102 975 l 262 1051 m 239 -27 l 143 19 l 624 1051 l 631 1051 l 726 1005 l 245 -27 l 239 -27 z "},"½":{"ha":1042,"x_min":102,"x_max":906,"o":"m 525 0 l 525 24 l 555 89 l 720 241 q 803 341 803 318 q 803 342 803 342 l 803 415 q 799 423 802 420 q 772 438 792 431 q 716 448 747 448 q 660 437 686 448 q 633 422 642 431 q 629 414 629 418 l 630 345 l 553 309 l 528 309 l 528 414 q 615 524 528 487 q 716 543 662 543 q 817 524 770 543 q 905 418 904 488 l 905 342 q 807 192 905 275 l 695 96 l 906 96 l 906 71 l 872 0 l 525 0 m 262 1051 l 286 1051 l 286 518 l 209 481 l 184 481 l 184 937 l 102 899 l 102 975 l 262 1051 m 239 -27 l 143 19 l 624 1051 l 631 1051 l 726 1005 l 245 -27 l 239 -27 z "},"¾":{"ha":1129,"x_min":102,"x_max":994,"o":"m 102 659 l 180 696 l 203 696 l 203 611 q 208 603 203 607 q 234 587 216 595 q 292 577 259 577 q 346 587 320 577 q 373 602 367 595 q 376 610 376 606 l 376 709 q 372 718 376 713 q 346 732 365 726 q 290 742 319 742 q 195 730 220 742 l 298 928 l 132 928 l 132 953 l 165 1024 l 461 1024 l 345 829 q 391 815 370 823 q 478 709 478 781 l 478 607 q 391 501 478 537 q 288 482 346 482 q 189 501 234 482 q 102 611 102 538 l 102 659 m 729 228 l 841 228 l 841 366 l 729 228 m 841 -27 l 841 132 l 593 132 l 593 157 l 623 220 l 847 509 l 918 543 l 943 543 l 943 228 l 994 228 l 994 203 l 960 132 l 943 132 l 943 9 l 865 -27 l 841 -27 m 372 -27 l 276 19 l 757 1051 l 764 1051 l 859 1005 l 378 -27 l 372 -27 z "},"¿":{"ha":888,"x_min":102,"x_max":787,"o":"m 787 373 l 787 210 q 633 22 787 86 q 444 -14 547 -14 q 256 22 342 -14 q 102 210 102 86 l 102 312 q 332 623 102 479 q 393 716 391 660 l 524 779 l 530 779 q 412 534 530 607 q 237 311 237 427 l 237 210 q 319 131 237 163 q 444 109 376 109 q 569 131 512 109 q 651 210 651 163 l 651 312 l 780 373 l 787 373 m 509 1013 q 520 1001 509 1013 q 532 955 532 989 q 509 896 532 920 q 451 871 485 871 q 393 896 417 871 q 370 955 370 920 q 393 1013 370 989 q 451 1038 417 1038 q 509 1013 485 1038 z "},"À":{"ha":956,"x_min":136,"x_max":821,"o":"m 136 -27 l 136 814 q 290 1002 136 938 q 478 1038 376 1038 q 667 1002 581 1038 q 821 814 821 938 q 821 34 821 814 l 692 -27 l 685 -27 l 685 450 l 271 450 l 271 34 l 142 -27 l 136 -27 m 271 574 l 685 574 l 685 814 q 603 893 685 861 q 478 916 546 916 q 353 893 410 916 q 271 814 271 861 l 271 574 m 404 1333 l 411 1333 l 521 1099 l 441 1062 l 435 1062 l 285 1276 l 404 1333 z "},"Á":{"ha":956,"x_min":136,"x_max":821,"o":"m 136 -27 l 136 814 q 290 1002 136 938 q 478 1038 376 1038 q 667 1002 581 1038 q 821 814 821 938 q 821 34 821 814 l 692 -27 l 685 -27 l 685 450 l 271 450 l 271 34 l 142 -27 l 136 -27 m 271 574 l 685 574 l 685 814 q 603 893 685 861 q 478 916 546 916 q 353 893 410 916 q 271 814 271 861 l 271 574 m 554 1333 l 561 1333 l 680 1276 l 530 1062 l 524 1062 l 444 1099 l 554 1333 z "},"Â":{"ha":956,"x_min":136,"x_max":821,"o":"m 136 -27 l 136 814 q 290 1002 136 938 q 478 1038 376 1038 q 667 1002 581 1038 q 821 814 821 938 q 821 34 821 814 l 692 -27 l 685 -27 l 685 450 l 271 450 l 271 34 l 142 -27 l 136 -27 m 271 574 l 685 574 l 685 814 q 603 893 685 861 q 478 916 546 916 q 353 893 410 916 q 271 814 271 861 l 271 574 m 294 1099 l 398 1276 l 517 1333 l 524 1333 l 669 1099 l 590 1062 l 583 1062 l 481 1203 l 381 1062 l 374 1062 l 294 1099 z "},"Ã":{"ha":956,"x_min":136,"x_max":821,"o":"m 136 -27 l 136 814 q 290 1002 136 938 q 478 1038 376 1038 q 667 1002 581 1038 q 821 814 821 938 q 821 34 821 814 l 692 -27 l 685 -27 l 685 450 l 271 450 l 271 34 l 142 -27 l 136 -27 m 271 574 l 685 574 l 685 814 q 603 893 685 861 q 478 916 546 916 q 353 893 410 916 q 271 814 271 861 l 271 574 m 319 1111 q 415 1305 319 1305 q 508 1257 458 1305 q 559 1224 543 1224 q 582 1273 582 1224 l 656 1305 l 661 1305 q 565 1111 661 1111 q 472 1158 522 1111 q 421 1192 437 1192 q 398 1143 398 1192 l 323 1111 l 319 1111 z "},"Ä":{"ha":956,"x_min":136,"x_max":821,"o":"m 136 -27 l 136 814 q 290 1002 136 938 q 478 1038 376 1038 q 667 1002 581 1038 q 821 814 821 938 q 821 34 821 814 l 692 -27 l 685 -27 l 685 450 l 271 450 l 271 34 l 142 -27 l 136 -27 m 271 574 l 685 574 l 685 814 q 603 893 685 861 q 478 916 546 916 q 353 893 410 916 q 271 814 271 861 l 271 574 m 527 1164 q 515 1176 527 1164 q 503 1222 503 1188 q 527 1281 503 1257 q 585 1305 551 1305 q 642 1281 618 1305 q 666 1222 666 1257 q 642 1164 666 1188 q 585 1139 618 1139 q 527 1164 551 1139 m 323 1164 q 312 1176 323 1164 q 300 1222 300 1188 q 323 1281 300 1257 q 381 1305 347 1305 q 439 1281 415 1305 q 463 1222 463 1257 q 439 1164 463 1188 q 381 1139 415 1139 q 323 1164 347 1139 z "},"Å":{"ha":956,"x_min":136,"x_max":821,"o":"m 136 -27 l 136 814 q 290 1002 136 938 q 478 1038 376 1038 q 667 1002 581 1038 q 821 814 821 938 q 821 34 821 814 l 692 -27 l 685 -27 l 685 450 l 271 450 l 271 34 l 142 -27 l 136 -27 m 271 574 l 685 574 l 685 814 q 603 893 685 861 q 478 916 546 916 q 353 893 410 916 q 271 814 271 861 l 271 574 m 570 1110 q 478 1077 532 1077 q 387 1110 424 1077 q 345 1205 345 1147 q 387 1300 345 1261 q 478 1333 422 1333 q 570 1300 532 1333 q 612 1205 612 1263 q 570 1110 612 1147 m 478 1263 q 441 1249 455 1263 q 428 1205 428 1234 q 442 1161 428 1174 q 477 1147 457 1147 q 513 1162 498 1147 q 527 1205 527 1175 q 512 1250 527 1236 q 478 1263 498 1263 z "},"Æ":{"ha":1334,"x_min":136,"x_max":1300,"o":"m 136 -27 l 136 814 q 290 1002 136 938 q 478 1038 376 1038 q 666 999 589 1038 q 685 990 675 994 l 757 1024 l 1187 1024 l 1187 1017 l 1132 901 l 821 901 l 821 574 l 1187 574 l 1187 567 l 1132 450 l 821 450 l 821 123 l 1300 123 l 1300 117 l 1245 0 l 685 0 l 685 450 l 271 450 l 271 34 l 142 -27 l 136 -27 m 271 574 l 685 574 l 685 814 q 603 893 685 861 q 478 916 546 916 q 353 893 410 916 q 271 814 271 861 l 271 574 z "},"Ç":{"ha":956,"x_min":136,"x_max":821,"o":"m 821 373 l 821 210 q 667 22 821 86 q 527 -12 601 -5 q 576 -140 576 -70 q 502 -305 576 -233 l 495 -305 l 366 -244 q 457 -103 457 -185 q 426 -11 457 -60 q 290 22 353 -4 q 136 210 136 86 l 136 814 q 290 1002 136 938 q 478 1038 376 1038 q 667 1002 581 1038 q 821 814 821 938 l 821 712 l 692 651 l 685 651 l 685 814 q 603 893 685 860 q 478 916 546 916 q 353 893 410 916 q 271 814 271 861 l 271 210 q 353 131 271 164 q 478 109 408 109 q 603 131 546 109 q 685 210 685 163 l 685 312 l 814 373 l 821 373 z "},"È":{"ha":785,"x_min":136,"x_max":751,"o":"m 343 1333 l 350 1333 l 460 1099 l 380 1062 l 374 1062 l 224 1276 l 343 1333 m 136 0 l 136 990 l 208 1024 l 637 1024 l 637 1017 l 583 901 l 271 901 l 271 574 l 637 574 l 637 567 l 583 450 l 271 450 l 271 123 l 751 123 l 751 117 l 696 0 l 136 0 z "},"É":{"ha":785,"x_min":136,"x_max":751,"o":"m 464 1333 l 471 1333 l 590 1276 l 440 1062 l 433 1062 l 354 1099 l 464 1333 m 136 0 l 136 990 l 208 1024 l 637 1024 l 637 1017 l 583 901 l 271 901 l 271 574 l 637 574 l 637 567 l 583 450 l 271 450 l 271 123 l 751 123 l 751 117 l 696 0 l 136 0 z "},"Ê":{"ha":785,"x_min":136,"x_max":751,"o":"m 212 1099 l 316 1276 l 435 1333 l 442 1333 l 587 1099 l 508 1062 l 501 1062 l 399 1203 l 299 1062 l 292 1062 l 212 1099 m 136 0 l 136 990 l 208 1024 l 637 1024 l 637 1017 l 583 901 l 271 901 l 271 574 l 637 574 l 637 567 l 583 450 l 271 450 l 271 123 l 751 123 l 751 117 l 696 0 l 136 0 z "},"Ë":{"ha":785,"x_min":136,"x_max":751,"o":"m 442 1164 q 430 1176 442 1164 q 418 1222 418 1188 q 442 1281 418 1257 q 500 1305 466 1305 q 557 1281 534 1305 q 581 1222 581 1257 q 557 1164 581 1188 q 500 1139 534 1139 q 442 1164 466 1139 m 239 1164 q 227 1176 239 1164 q 215 1222 215 1188 q 239 1281 215 1257 q 296 1305 262 1305 q 354 1281 330 1305 q 378 1222 378 1257 q 354 1164 378 1188 q 296 1139 330 1139 q 239 1164 262 1139 m 136 0 l 136 990 l 208 1024 l 637 1024 l 637 1017 l 583 901 l 271 901 l 271 574 l 637 574 l 637 567 l 583 450 l 271 450 l 271 123 l 751 123 l 751 117 l 696 0 l 136 0 z "},"Ì":{"ha":407,"x_min":45,"x_max":281,"o":"m 164 1333 l 171 1333 l 281 1099 l 201 1062 l 195 1062 l 45 1276 l 164 1333 m 136 -27 l 136 990 l 264 1051 l 271 1051 l 271 34 l 142 -27 l 136 -27 z "},"Í":{"ha":407,"x_min":126,"x_max":362,"o":"m 236 1333 l 243 1333 l 362 1276 l 212 1062 l 205 1062 l 126 1099 l 236 1333 m 136 -27 l 136 990 l 264 1051 l 271 1051 l 271 34 l 142 -27 l 136 -27 z "},"Î":{"ha":407,"x_min":16,"x_max":391,"o":"m 136 -27 l 136 990 l 264 1051 l 271 1051 l 271 34 l 142 -27 l 136 -27 m 16 1099 l 119 1276 l 239 1333 l 245 1333 l 391 1099 l 311 1062 l 304 1062 l 203 1203 l 102 1062 l 96 1062 l 16 1099 z "},"Ï":{"ha":407,"x_min":20,"x_max":387,"o":"m 136 -27 l 136 990 l 264 1051 l 271 1051 l 271 34 l 142 -27 l 136 -27 m 248 1164 q 236 1176 248 1164 q 224 1222 224 1188 q 248 1281 224 1257 q 305 1305 271 1305 q 363 1281 339 1305 q 387 1222 387 1257 q 363 1164 387 1188 q 305 1139 339 1139 q 248 1164 271 1139 m 44 1164 q 32 1176 44 1164 q 20 1222 20 1188 q 44 1281 20 1257 q 102 1305 68 1305 q 159 1281 136 1305 q 183 1222 183 1257 q 159 1164 183 1188 q 102 1139 136 1139 q 44 1164 68 1139 z "},"Ð":{"ha":943,"x_min":34,"x_max":807,"o":"m 136 0 l 136 450 l 34 450 l 34 457 l 89 574 l 136 574 l 136 990 l 208 1024 l 465 1024 q 653 988 567 1024 q 807 800 807 924 l 807 224 q 653 36 807 100 q 465 0 567 0 l 136 0 m 271 122 l 465 122 q 589 144 532 122 q 671 224 671 177 l 671 800 q 589 880 671 847 q 465 902 533 902 l 271 902 l 271 574 l 553 574 l 553 567 l 498 450 l 271 450 l 271 122 z "},"Ñ":{"ha":956,"x_min":136,"x_max":821,"o":"m 136 -27 l 136 814 q 290 1002 136 938 q 478 1038 376 1038 q 667 1002 581 1038 q 821 814 821 938 l 821 34 l 692 -27 l 685 -27 l 685 814 q 603 893 685 861 q 478 916 546 916 q 353 893 410 916 q 271 814 271 861 l 271 34 l 142 -27 l 136 -27 m 319 1111 q 415 1305 319 1305 q 508 1257 458 1305 q 559 1224 543 1224 q 582 1273 582 1224 l 656 1305 l 661 1305 q 565 1111 661 1111 q 472 1158 522 1111 q 421 1192 437 1192 q 398 1143 398 1192 l 323 1111 l 319 1111 z "},"Ò":{"ha":956,"x_min":136,"x_max":821,"o":"m 271 210 q 353 131 271 164 q 478 109 410 109 q 603 131 546 109 q 685 210 685 163 l 685 814 q 603 893 685 860 q 478 916 546 916 q 353 893 410 916 q 271 814 271 861 l 271 210 m 136 210 q 136 814 136 210 q 290 1002 136 938 q 478 1038 376 1038 q 667 1002 581 1038 q 821 814 821 938 l 821 210 q 667 22 821 86 q 478 -14 581 -14 q 290 22 376 -14 q 136 210 136 86 m 404 1333 l 411 1333 l 521 1099 l 441 1062 l 435 1062 l 285 1276 l 404 1333 z "},"Ó":{"ha":956,"x_min":136,"x_max":821,"o":"m 271 210 q 353 131 271 164 q 478 109 410 109 q 603 131 546 109 q 685 210 685 163 l 685 814 q 603 893 685 860 q 478 916 546 916 q 353 893 410 916 q 271 814 271 861 l 271 210 m 136 210 q 136 814 136 210 q 290 1002 136 938 q 478 1038 376 1038 q 667 1002 581 1038 q 821 814 821 938 l 821 210 q 667 22 821 86 q 478 -14 581 -14 q 290 22 376 -14 q 136 210 136 86 m 554 1333 l 561 1333 l 680 1276 l 530 1062 l 524 1062 l 444 1099 l 554 1333 z "},"Ô":{"ha":956,"x_min":136,"x_max":821,"o":"m 271 210 q 353 131 271 164 q 478 109 410 109 q 603 131 546 109 q 685 210 685 163 l 685 814 q 603 893 685 860 q 478 916 546 916 q 353 893 410 916 q 271 814 271 861 l 271 210 m 136 210 q 136 814 136 210 q 290 1002 136 938 q 478 1038 376 1038 q 667 1002 581 1038 q 821 814 821 938 l 821 210 q 667 22 821 86 q 478 -14 581 -14 q 290 22 376 -14 q 136 210 136 86 m 294 1099 l 398 1276 l 517 1333 l 524 1333 l 669 1099 l 590 1062 l 583 1062 l 481 1203 l 381 1062 l 374 1062 l 294 1099 z "},"Õ":{"ha":956,"x_min":136,"x_max":821,"o":"m 271 210 q 353 131 271 164 q 478 109 410 109 q 603 131 546 109 q 685 210 685 163 l 685 814 q 603 893 685 860 q 478 916 546 916 q 353 893 410 916 q 271 814 271 861 l 271 210 m 136 210 q 136 814 136 210 q 290 1002 136 938 q 478 1038 376 1038 q 667 1002 581 1038 q 821 814 821 938 l 821 210 q 667 22 821 86 q 478 -14 581 -14 q 290 22 376 -14 q 136 210 136 86 m 319 1111 q 415 1305 319 1305 q 508 1257 458 1305 q 559 1224 543 1224 q 582 1273 582 1224 l 656 1305 l 661 1305 q 565 1111 661 1111 q 472 1158 522 1111 q 421 1192 437 1192 q 398 1143 398 1192 l 323 1111 l 319 1111 z "},"Ö":{"ha":956,"x_min":136,"x_max":821,"o":"m 271 210 q 353 131 271 164 q 478 109 410 109 q 603 131 546 109 q 685 210 685 163 l 685 814 q 603 893 685 860 q 478 916 546 916 q 353 893 410 916 q 271 814 271 861 l 271 210 m 136 210 q 136 814 136 210 q 290 1002 136 938 q 478 1038 376 1038 q 667 1002 581 1038 q 821 814 821 938 l 821 210 q 667 22 821 86 q 478 -14 581 -14 q 290 22 376 -14 q 136 210 136 86 m 527 1164 q 515 1176 527 1164 q 503 1222 503 1188 q 527 1281 503 1257 q 585 1305 551 1305 q 642 1281 618 1305 q 666 1222 666 1257 q 642 1164 666 1188 q 585 1139 618 1139 q 527 1164 551 1139 m 323 1164 q 312 1176 323 1164 q 300 1222 300 1188 q 323 1281 300 1257 q 381 1305 347 1305 q 439 1281 415 1305 q 463 1222 463 1257 q 439 1164 463 1188 q 381 1139 415 1139 q 323 1164 347 1139 z "},"×":{"ha":729,"x_min":102,"x_max":627,"o":"m 102 688 l 106 692 l 228 736 l 364 600 l 501 736 l 623 692 l 627 688 l 452 512 l 627 336 l 623 332 l 501 288 l 364 425 l 228 288 l 106 332 l 102 336 l 277 512 l 102 688 z "},"Ø":{"ha":956,"x_min":136,"x_max":821,"o":"m 274 -27 l 267 -27 l 197 7 l 221 59 q 136 210 136 118 l 136 814 q 290 1002 136 937 q 478 1038 376 1038 q 661 1004 576 1038 l 682 1051 l 689 1051 l 760 1017 l 736 965 q 821 814 821 906 l 821 210 q 667 22 821 87 q 478 -14 581 -14 q 296 20 380 -14 l 274 -27 m 349 133 q 475 109 409 109 q 603 131 546 109 q 685 210 685 163 l 685 814 q 677 840 685 827 l 349 133 m 608 891 q 481 914 551 914 q 353 893 410 914 q 271 814 271 861 l 271 210 q 279 184 271 196 l 608 891 z "},"Ù":{"ha":956,"x_min":136,"x_max":821,"o":"m 136 990 l 264 1051 l 271 1051 l 271 210 q 353 131 271 163 q 478 109 410 109 q 603 131 546 109 q 685 210 685 163 l 685 990 l 814 1051 l 821 1051 l 821 210 q 667 22 821 86 q 478 -14 581 -14 q 290 22 376 -14 q 136 210 136 86 l 136 990 m 404 1333 l 411 1333 l 521 1099 l 441 1062 l 435 1062 l 285 1276 l 404 1333 z "},"Ú":{"ha":956,"x_min":136,"x_max":821,"o":"m 136 990 l 264 1051 l 271 1051 l 271 210 q 353 131 271 163 q 478 109 410 109 q 603 131 546 109 q 685 210 685 163 l 685 990 l 814 1051 l 821 1051 l 821 210 q 667 22 821 86 q 478 -14 581 -14 q 290 22 376 -14 q 136 210 136 86 l 136 990 m 554 1333 l 561 1333 l 680 1276 l 530 1062 l 524 1062 l 444 1099 l 554 1333 z "},"Û":{"ha":956,"x_min":136,"x_max":821,"o":"m 136 990 l 264 1051 l 271 1051 l 271 210 q 353 131 271 163 q 478 109 410 109 q 603 131 546 109 q 685 210 685 163 l 685 990 l 814 1051 l 821 1051 l 821 210 q 667 22 821 86 q 478 -14 581 -14 q 290 22 376 -14 q 136 210 136 86 l 136 990 m 294 1099 l 398 1276 l 517 1333 l 524 1333 l 669 1099 l 590 1062 l 583 1062 l 481 1203 l 381 1062 l 374 1062 l 294 1099 z "},"Ü":{"ha":956,"x_min":136,"x_max":821,"o":"m 136 990 l 264 1051 l 271 1051 l 271 210 q 353 131 271 163 q 478 109 410 109 q 603 131 546 109 q 685 210 685 163 l 685 990 l 814 1051 l 821 1051 l 821 210 q 667 22 821 86 q 478 -14 581 -14 q 290 22 376 -14 q 136 210 136 86 l 136 990 m 527 1164 q 515 1176 527 1164 q 503 1222 503 1188 q 527 1281 503 1257 q 585 1305 551 1305 q 642 1281 618 1305 q 666 1222 666 1257 q 642 1164 666 1188 q 585 1139 618 1139 q 527 1164 551 1139 m 323 1164 q 312 1176 323 1164 q 300 1222 300 1188 q 323 1281 300 1257 q 381 1305 347 1305 q 439 1281 415 1305 q 463 1222 463 1257 q 439 1164 463 1188 q 381 1139 415 1139 q 323 1164 347 1139 z "},"Ý":{"ha":888,"x_min":102,"x_max":787,"o":"m 376 -27 l 376 327 q 256 359 313 335 q 102 547 102 422 l 102 990 l 231 1051 l 237 1051 l 237 547 q 319 467 237 500 q 444 445 376 445 q 569 467 512 445 q 651 547 651 500 l 651 990 l 780 1051 l 787 1051 l 787 547 q 633 359 787 423 q 512 327 576 335 l 512 34 l 383 -27 l 376 -27 m 554 1333 l 561 1333 l 680 1276 l 530 1062 l 524 1062 l 444 1099 l 554 1333 z "},"Þ":{"ha":909,"x_min":136,"x_max":807,"o":"m 136 -27 l 136 990 l 264 1051 l 271 1051 l 271 861 l 465 861 q 653 825 567 861 q 807 637 807 762 l 807 407 q 653 219 807 283 q 465 183 567 183 l 271 183 l 271 34 l 142 -27 l 136 -27 m 271 739 l 271 305 l 465 305 q 589 328 532 305 q 671 407 671 360 l 671 637 q 589 717 671 685 q 465 739 532 739 l 271 739 z "},"ß":{"ha":861,"x_min":136,"x_max":760,"o":"m 136 -27 l 136 814 q 259 1002 136 940 q 417 1038 331 1038 q 575 1002 503 1038 q 699 814 699 940 l 699 733 q 615 581 699 656 q 760 408 760 518 l 760 210 q 606 22 760 87 q 417 -14 519 -14 l 363 -14 l 363 -7 l 417 109 q 542 131 485 109 q 624 210 624 163 l 624 408 q 542 487 624 454 q 417 509 485 509 l 362 509 l 362 516 l 417 631 q 511 654 475 631 q 563 733 563 685 l 563 814 q 511 893 563 862 q 417 916 475 916 q 323 893 359 916 q 271 814 271 862 l 271 34 l 142 -27 l 136 -27 z "},"à":{"ha":719,"x_min":68,"x_max":617,"o":"m 617 34 l 488 -27 l 481 -27 l 481 9 q 342 -14 416 -14 q 195 13 263 -14 q 68 153 68 63 l 68 336 q 195 475 68 427 q 342 502 263 502 q 481 479 417 502 l 481 570 q 439 621 481 604 q 336 637 397 637 l 171 637 l 171 644 l 225 760 l 336 760 q 490 733 422 760 q 617 593 617 684 l 617 34 m 203 176 q 246 125 203 142 q 342 109 288 109 q 439 125 397 109 q 481 176 481 142 l 481 312 q 439 363 481 346 q 342 380 397 380 q 245 363 288 380 q 203 312 203 346 l 203 176 m 292 1062 l 299 1062 l 409 828 l 330 791 l 323 791 l 173 1005 l 292 1062 z "},"á":{"ha":719,"x_min":68,"x_max":617,"o":"m 617 34 l 488 -27 l 481 -27 l 481 9 q 342 -14 416 -14 q 195 13 263 -14 q 68 153 68 63 l 68 336 q 195 475 68 427 q 342 502 263 502 q 481 479 417 502 l 481 570 q 439 621 481 604 q 336 637 397 637 l 171 637 l 171 644 l 225 760 l 336 760 q 490 733 422 760 q 617 593 617 684 l 617 34 m 203 176 q 246 125 203 142 q 342 109 288 109 q 439 125 397 109 q 481 176 481 142 l 481 312 q 439 363 481 346 q 342 380 397 380 q 245 363 288 380 q 203 312 203 346 l 203 176 m 450 1062 l 456 1062 l 576 1005 l 426 791 l 419 791 l 340 828 l 450 1062 z "},"â":{"ha":719,"x_min":68,"x_max":617,"o":"m 617 34 l 488 -27 l 481 -27 l 481 9 q 342 -14 416 -14 q 195 13 263 -14 q 68 153 68 63 l 68 336 q 195 475 68 427 q 342 502 263 502 q 481 479 417 502 l 481 570 q 439 621 481 604 q 336 637 397 637 l 171 637 l 171 644 l 225 760 l 336 760 q 490 733 422 760 q 617 593 617 684 l 617 34 m 203 176 q 246 125 203 142 q 342 109 288 109 q 439 125 397 109 q 481 176 481 142 l 481 312 q 439 363 481 346 q 342 380 397 380 q 245 363 288 380 q 203 312 203 346 l 203 176 m 186 828 l 290 1005 l 409 1062 l 416 1062 l 560 828 l 481 791 l 475 791 l 373 932 l 273 791 l 266 791 l 186 828 z "},"ã":{"ha":719,"x_min":68,"x_max":617,"o":"m 617 34 l 488 -27 l 481 -27 l 481 9 q 342 -14 416 -14 q 195 13 263 -14 q 68 153 68 63 l 68 336 q 195 475 68 427 q 342 502 263 502 q 481 479 417 502 l 481 570 q 439 621 481 604 q 336 637 397 637 l 171 637 l 171 644 l 225 760 l 336 760 q 490 733 422 760 q 617 593 617 684 l 617 34 m 203 176 q 246 125 203 142 q 342 109 288 109 q 439 125 397 109 q 481 176 481 142 l 481 312 q 439 363 481 346 q 342 380 397 380 q 245 363 288 380 q 203 312 203 346 l 203 176 m 218 836 q 314 1029 218 1029 q 407 982 357 1029 q 458 949 441 949 q 481 998 481 949 l 555 1029 l 559 1029 q 464 836 559 836 q 371 883 420 836 q 320 916 336 916 q 297 867 297 916 l 222 836 l 218 836 z "},"ä":{"ha":719,"x_min":68,"x_max":617,"o":"m 617 34 l 488 -27 l 481 -27 l 481 9 q 342 -14 416 -14 q 195 13 263 -14 q 68 153 68 63 l 68 336 q 195 475 68 427 q 342 502 263 502 q 481 479 417 502 l 481 570 q 439 621 481 604 q 336 637 397 637 l 171 637 l 171 644 l 225 760 l 336 760 q 490 733 422 760 q 617 593 617 684 l 617 34 m 203 176 q 246 125 203 142 q 342 109 288 109 q 439 125 397 109 q 481 176 481 142 l 481 312 q 439 363 481 346 q 342 380 397 380 q 245 363 288 380 q 203 312 203 346 l 203 176 m 415 896 q 403 908 415 896 q 391 955 391 920 q 415 1013 391 989 q 473 1038 439 1038 q 530 1013 507 1038 q 554 955 554 989 q 530 896 554 920 q 473 871 507 871 q 415 896 439 871 m 212 896 q 200 908 212 896 q 188 955 188 920 q 212 1013 188 989 q 269 1038 235 1038 q 327 1013 303 1038 q 351 955 351 989 q 327 896 351 920 q 269 871 303 871 q 212 896 235 871 z "},"å":{"ha":719,"x_min":68,"x_max":617,"o":"m 617 34 l 488 -27 l 481 -27 l 481 9 q 342 -14 416 -14 q 195 13 263 -14 q 68 153 68 63 l 68 336 q 195 475 68 427 q 342 502 263 502 q 481 479 417 502 l 481 570 q 439 621 481 604 q 336 637 397 637 l 171 637 l 171 644 l 225 760 l 336 760 q 490 733 422 760 q 617 593 617 684 l 617 34 m 203 176 q 246 125 203 142 q 342 109 288 109 q 439 125 397 109 q 481 176 481 142 l 481 312 q 439 363 481 346 q 342 380 397 380 q 245 363 288 380 q 203 312 203 346 l 203 176 m 465 839 q 373 806 427 806 q 281 839 319 806 q 239 934 239 876 q 281 1029 239 990 q 373 1062 317 1062 q 465 1029 427 1062 q 507 934 507 991 q 465 839 507 876 m 373 991 q 336 977 350 991 q 323 934 323 963 q 337 890 323 903 q 372 876 352 876 q 408 891 393 876 q 422 934 422 904 q 407 979 422 964 q 373 991 393 991 z "},"æ":{"ha":1146,"x_min":68,"x_max":1044,"o":"m 203 176 q 246 125 203 142 q 342 109 288 109 q 439 125 397 109 q 481 176 481 142 l 481 312 q 439 363 481 346 q 342 380 397 380 q 245 363 288 380 q 203 312 203 346 l 203 176 m 1044 300 l 1044 153 q 918 13 1044 62 q 763 -14 849 -14 q 608 13 672 -14 q 589 21 600 16 l 488 -27 l 481 -27 l 481 9 q 342 -14 416 -14 q 195 13 263 -14 q 68 153 68 63 l 68 336 q 195 475 68 427 q 342 502 263 502 q 481 479 417 502 l 481 570 q 439 621 481 604 q 336 637 397 637 l 171 637 l 171 644 l 225 760 l 336 760 q 490 733 423 760 q 550 703 525 720 q 608 733 574 720 q 763 760 674 760 q 918 733 849 760 q 1044 593 1044 683 l 1044 507 l 617 176 q 660 125 617 142 q 763 109 702 109 q 866 125 824 109 q 909 176 909 142 l 909 239 l 1038 300 l 1044 300 m 617 319 l 909 554 l 909 570 q 866 621 909 604 q 763 637 824 637 q 660 621 702 637 q 617 570 617 604 l 617 319 z "},"ç":{"ha":766,"x_min":102,"x_max":665,"o":"m 665 300 l 665 153 q 538 13 665 62 q 431 -12 489 -6 q 480 -140 480 -69 q 406 -305 480 -233 l 399 -305 l 271 -244 q 361 -103 361 -185 q 330 -11 361 -59 q 229 13 275 -5 q 102 153 102 60 l 102 593 q 229 733 102 683 q 383 760 297 760 q 538 733 469 760 q 665 593 665 683 l 665 507 l 536 446 l 529 446 l 529 570 q 487 621 529 604 q 383 637 444 637 q 280 621 322 637 q 237 570 237 604 l 237 176 q 280 125 237 142 q 383 109 322 109 q 487 125 444 109 q 529 176 529 142 l 529 239 l 658 300 l 665 300 z "},"è":{"ha":766,"x_min":102,"x_max":665,"o":"m 665 300 l 665 153 q 538 13 665 63 q 383 -14 469 -14 q 229 13 297 -14 q 102 153 102 63 l 102 593 q 229 733 102 683 q 383 760 297 760 q 538 733 469 760 q 665 593 665 683 l 665 507 l 237 176 q 280 125 237 142 q 383 109 322 109 q 487 125 444 109 q 529 176 529 142 l 529 239 l 658 300 l 665 300 m 237 319 l 529 554 l 529 570 q 487 621 529 604 q 383 637 444 637 q 280 621 322 637 q 237 570 237 604 l 237 319 m 306 1062 l 313 1062 l 422 828 l 343 791 l 336 791 l 186 1005 l 306 1062 z "},"é":{"ha":766,"x_min":102,"x_max":665,"o":"m 665 300 l 665 153 q 538 13 665 63 q 383 -14 469 -14 q 229 13 297 -14 q 102 153 102 63 l 102 593 q 229 733 102 683 q 383 760 297 760 q 538 733 469 760 q 665 593 665 683 l 665 507 l 237 176 q 280 125 237 142 q 383 109 322 109 q 487 125 444 109 q 529 176 529 142 l 529 239 l 658 300 l 665 300 m 237 319 l 529 554 l 529 570 q 487 621 529 604 q 383 637 444 637 q 280 621 322 637 q 237 570 237 604 l 237 319 m 463 1062 l 470 1062 l 589 1005 l 439 791 l 433 791 l 353 828 l 463 1062 z "},"ê":{"ha":766,"x_min":102,"x_max":665,"o":"m 665 300 l 665 153 q 538 13 665 63 q 383 -14 469 -14 q 229 13 297 -14 q 102 153 102 63 l 102 593 q 229 733 102 683 q 383 760 297 760 q 538 733 469 760 q 665 593 665 683 l 665 507 l 237 176 q 280 125 237 142 q 383 109 322 109 q 487 125 444 109 q 529 176 529 142 l 529 239 l 658 300 l 665 300 m 237 319 l 529 554 l 529 570 q 487 621 529 604 q 383 637 444 637 q 280 621 322 637 q 237 570 237 604 l 237 319 m 199 828 l 303 1005 l 422 1062 l 429 1062 l 574 828 l 495 791 l 488 791 l 387 932 l 286 791 l 279 791 l 199 828 z "},"ë":{"ha":766,"x_min":102,"x_max":665,"o":"m 665 300 l 665 153 q 538 13 665 63 q 383 -14 469 -14 q 229 13 297 -14 q 102 153 102 63 l 102 593 q 229 733 102 683 q 383 760 297 760 q 538 733 469 760 q 665 593 665 683 l 665 507 l 237 176 q 280 125 237 142 q 383 109 322 109 q 487 125 444 109 q 529 176 529 142 l 529 239 l 658 300 l 665 300 m 237 319 l 529 554 l 529 570 q 487 621 529 604 q 383 637 444 637 q 280 621 322 637 q 237 570 237 604 l 237 319 m 429 896 q 417 908 429 896 q 405 955 405 920 q 429 1013 405 989 q 486 1038 452 1038 q 544 1013 520 1038 q 568 955 568 989 q 544 896 568 920 q 486 871 520 871 q 429 896 452 871 m 225 896 q 213 908 225 896 q 201 955 201 920 q 225 1013 201 989 q 283 1038 249 1038 q 340 1013 317 1038 q 364 955 364 989 q 340 896 364 920 q 283 871 317 871 q 225 896 249 871 z "},"ì":{"ha":407,"x_min":45,"x_max":281,"o":"m 136 -27 l 136 712 l 264 773 l 271 773 l 271 34 l 142 -27 l 136 -27 m 164 1062 l 171 1062 l 281 828 l 201 791 l 195 791 l 45 1005 l 164 1062 z "},"í":{"ha":407,"x_min":126,"x_max":362,"o":"m 236 1062 l 243 1062 l 362 1005 l 212 791 l 205 791 l 126 828 l 236 1062 m 136 -27 l 136 712 l 264 773 l 271 773 l 271 34 l 142 -27 l 136 -27 z "},"î":{"ha":407,"x_min":16,"x_max":391,"o":"m 16 828 l 120 1005 l 239 1062 l 246 1062 l 391 828 l 312 791 l 305 791 l 203 932 l 103 791 l 96 791 l 16 828 m 136 -27 l 136 712 l 264 773 l 271 773 l 271 34 l 142 -27 l 136 -27 z "},"ï":{"ha":407,"x_min":20,"x_max":387,"o":"m 136 -27 l 136 712 l 264 773 l 271 773 l 271 34 l 142 -27 l 136 -27 m 248 896 q 236 908 248 896 q 224 955 224 920 q 248 1013 224 989 q 305 1038 271 1038 q 363 1013 339 1038 q 387 955 387 989 q 363 896 387 920 q 305 871 339 871 q 248 896 271 871 m 44 896 q 32 908 44 896 q 20 955 20 920 q 44 1013 20 989 q 102 1038 68 1038 q 159 1013 136 1038 q 183 955 183 989 q 159 896 183 920 q 102 871 136 871 q 44 896 68 871 z "},"ð":{"ha":800,"x_min":102,"x_max":760,"o":"m 237 176 q 280 125 237 142 q 383 109 322 109 q 487 125 445 109 q 529 176 529 142 l 529 433 q 487 484 529 467 q 383 500 444 500 q 280 484 322 500 q 237 433 237 467 l 237 176 m 102 153 l 102 456 q 229 596 102 547 q 383 623 297 623 q 529 600 465 623 l 529 768 l 439 701 l 433 701 l 326 747 l 491 871 q 447 893 473 883 q 322 916 389 916 l 322 1038 q 511 1002 423 1038 q 598 951 564 980 l 647 987 l 654 987 l 760 941 l 657 865 q 665 814 665 825 l 665 153 q 538 13 665 62 q 383 -14 469 -14 q 229 13 295 -14 q 102 153 102 63 z "},"ñ":{"ha":766,"x_min":102,"x_max":665,"o":"m 102 -27 l 102 593 q 229 733 102 684 q 383 760 297 760 q 538 733 469 760 q 665 593 665 684 l 665 34 l 536 -27 l 529 -27 l 529 570 q 487 621 529 604 q 383 637 444 637 q 280 621 322 637 q 237 570 237 604 l 237 34 l 109 -27 l 102 -27 m 232 836 q 328 1029 232 1029 q 420 982 371 1029 q 471 949 455 949 q 494 998 494 949 l 569 1029 l 573 1029 q 477 836 573 836 q 385 883 434 836 q 334 916 350 916 q 311 867 311 916 l 236 836 l 232 836 z "},"ò":{"ha":766,"x_min":102,"x_max":665,"o":"m 237 176 q 280 125 237 142 q 383 109 322 109 q 487 125 444 109 q 529 176 529 142 l 529 570 q 487 621 529 604 q 383 637 444 637 q 280 621 322 637 q 237 570 237 604 l 237 176 m 102 153 l 102 593 q 229 733 102 683 q 383 760 297 760 q 538 733 469 760 q 665 593 665 683 l 665 153 q 538 13 665 63 q 383 -14 469 -14 q 229 13 297 -14 q 102 153 102 63 m 306 1062 l 313 1062 l 422 828 l 343 791 l 336 791 l 186 1005 l 306 1062 z "},"ó":{"ha":766,"x_min":102,"x_max":665,"o":"m 237 176 q 280 125 237 142 q 383 109 322 109 q 487 125 444 109 q 529 176 529 142 l 529 570 q 487 621 529 604 q 383 637 444 637 q 280 621 322 637 q 237 570 237 604 l 237 176 m 102 153 l 102 593 q 229 733 102 683 q 383 760 297 760 q 538 733 469 760 q 665 593 665 683 l 665 153 q 538 13 665 63 q 383 -14 469 -14 q 229 13 297 -14 q 102 153 102 63 m 463 1062 l 470 1062 l 589 1005 l 439 791 l 433 791 l 353 828 l 463 1062 z "},"ô":{"ha":766,"x_min":102,"x_max":665,"o":"m 237 176 q 280 125 237 142 q 383 109 322 109 q 487 125 444 109 q 529 176 529 142 l 529 570 q 487 621 529 604 q 383 637 444 637 q 280 621 322 637 q 237 570 237 604 l 237 176 m 102 153 l 102 593 q 229 733 102 683 q 383 760 297 760 q 538 733 469 760 q 665 593 665 683 l 665 153 q 538 13 665 63 q 383 -14 469 -14 q 229 13 297 -14 q 102 153 102 63 m 199 828 l 303 1005 l 422 1062 l 429 1062 l 574 828 l 495 791 l 488 791 l 387 932 l 286 791 l 279 791 l 199 828 z "},"õ":{"ha":766,"x_min":102,"x_max":665,"o":"m 237 176 q 280 125 237 142 q 383 109 322 109 q 487 125 444 109 q 529 176 529 142 l 529 570 q 487 621 529 604 q 383 637 444 637 q 280 621 322 637 q 237 570 237 604 l 237 176 m 102 153 l 102 593 q 229 733 102 683 q 383 760 297 760 q 538 733 469 760 q 665 593 665 683 l 665 153 q 538 13 665 63 q 383 -14 469 -14 q 229 13 297 -14 q 102 153 102 63 m 232 836 q 328 1029 232 1029 q 420 982 371 1029 q 471 949 455 949 q 494 998 494 949 l 569 1029 l 573 1029 q 477 836 573 836 q 385 883 434 836 q 334 916 350 916 q 311 867 311 916 l 236 836 l 232 836 z "},"ö":{"ha":766,"x_min":102,"x_max":665,"o":"m 237 176 q 280 125 237 142 q 383 109 322 109 q 487 125 444 109 q 529 176 529 142 l 529 570 q 487 621 529 604 q 383 637 444 637 q 280 621 322 637 q 237 570 237 604 l 237 176 m 102 153 l 102 593 q 229 733 102 683 q 383 760 297 760 q 538 733 469 760 q 665 593 665 683 l 665 153 q 538 13 665 63 q 383 -14 469 -14 q 229 13 297 -14 q 102 153 102 63 m 429 896 q 417 908 429 896 q 405 955 405 920 q 429 1013 405 989 q 486 1038 452 1038 q 544 1013 520 1038 q 568 955 568 989 q 544 896 568 920 q 486 871 520 871 q 429 896 452 871 m 225 896 q 213 908 225 896 q 201 955 201 920 q 225 1013 201 989 q 283 1038 249 1038 q 340 1013 317 1038 q 364 955 364 989 q 340 896 364 920 q 283 871 317 871 q 225 896 249 871 z "},"÷":{"ha":823,"x_min":102,"x_max":722,"o":"m 355 679 q 343 691 355 679 q 331 738 331 703 q 355 796 331 772 q 412 821 378 821 q 470 796 446 821 q 494 738 494 772 q 470 679 494 703 q 412 654 446 654 q 355 679 378 654 m 355 231 q 343 243 355 231 q 331 290 331 256 q 355 349 331 324 q 412 373 378 373 q 470 349 446 373 q 494 290 494 324 q 470 231 494 256 q 412 207 446 207 q 355 231 378 207 m 102 450 l 102 457 l 157 574 l 722 574 l 722 567 l 667 450 l 102 450 z "},"ø":{"ha":766,"x_min":102,"x_max":665,"o":"m 243 -27 l 237 -27 l 166 7 l 180 37 q 102 153 102 82 l 102 593 q 229 733 102 684 q 383 760 297 760 q 508 743 451 760 l 522 773 l 529 773 l 600 739 l 587 709 q 665 593 665 663 l 665 153 q 538 13 665 62 q 383 -14 469 -14 q 258 3 315 -14 l 243 -27 m 456 630 q 383 637 424 637 q 280 621 322 637 q 237 570 237 604 l 237 176 q 239 163 237 170 l 456 630 m 528 583 l 310 116 q 383 109 342 109 q 487 125 444 109 q 529 176 529 142 l 529 570 q 528 583 529 576 z "},"ù":{"ha":766,"x_min":102,"x_max":665,"o":"m 102 712 l 231 773 l 237 773 l 237 176 q 280 125 237 142 q 383 109 322 109 q 487 125 444 109 q 529 176 529 142 l 529 712 l 658 773 l 665 773 l 665 153 q 538 13 665 62 q 383 -14 469 -14 q 229 13 297 -14 q 102 153 102 62 l 102 712 m 306 1062 l 313 1062 l 422 828 l 343 791 l 336 791 l 186 1005 l 306 1062 z "},"ú":{"ha":766,"x_min":102,"x_max":665,"o":"m 102 712 l 231 773 l 237 773 l 237 176 q 280 125 237 142 q 383 109 322 109 q 487 125 444 109 q 529 176 529 142 l 529 712 l 658 773 l 665 773 l 665 153 q 538 13 665 62 q 383 -14 469 -14 q 229 13 297 -14 q 102 153 102 62 l 102 712 m 463 1062 l 470 1062 l 589 1005 l 439 791 l 433 791 l 353 828 l 463 1062 z "},"û":{"ha":766,"x_min":102,"x_max":665,"o":"m 102 712 l 231 773 l 237 773 l 237 176 q 280 125 237 142 q 383 109 322 109 q 487 125 444 109 q 529 176 529 142 l 529 712 l 658 773 l 665 773 l 665 153 q 538 13 665 62 q 383 -14 469 -14 q 229 13 297 -14 q 102 153 102 62 l 102 712 m 199 828 l 303 1005 l 422 1062 l 429 1062 l 574 828 l 495 791 l 488 791 l 387 932 l 286 791 l 279 791 l 199 828 z "},"ü":{"ha":766,"x_min":102,"x_max":665,"o":"m 102 712 l 231 773 l 237 773 l 237 176 q 280 125 237 142 q 383 109 322 109 q 487 125 444 109 q 529 176 529 142 l 529 712 l 658 773 l 665 773 l 665 153 q 538 13 665 62 q 383 -14 469 -14 q 229 13 297 -14 q 102 153 102 62 l 102 712 m 429 896 q 417 908 429 896 q 405 955 405 920 q 429 1013 405 989 q 486 1038 452 1038 q 544 1013 520 1038 q 568 955 568 989 q 544 896 568 920 q 486 871 520 871 q 429 896 452 871 m 225 896 q 213 908 225 896 q 201 955 201 920 q 225 1013 201 989 q 283 1038 249 1038 q 340 1013 317 1038 q 364 955 364 989 q 340 896 364 920 q 283 871 317 871 q 225 896 249 871 z "},"ý":{"ha":800,"x_min":102,"x_max":665,"o":"m 102 712 l 231 773 l 237 773 l 237 176 q 280 125 237 142 q 383 109 322 109 q 487 125 444 109 q 529 176 529 142 l 529 712 l 658 773 l 665 773 l 665 -125 q 538 -265 665 -216 q 383 -292 469 -292 l 172 -292 l 172 -285 l 227 -170 l 383 -170 q 487 -153 444 -170 q 529 -102 529 -136 l 529 9 q 383 -14 464 -14 q 229 13 297 -14 q 102 153 102 62 l 102 712 m 463 1062 l 470 1062 l 589 1005 l 439 791 l 433 791 l 353 828 l 463 1062 z "},"þ":{"ha":800,"x_min":136,"x_max":699,"o":"m 563 570 q 520 621 563 604 q 417 637 478 637 q 314 621 356 637 q 271 570 271 604 l 271 176 q 314 125 271 142 q 417 109 356 109 q 520 125 478 109 q 563 176 563 142 l 563 570 m 136 -305 l 136 990 l 264 1051 l 271 1051 l 271 736 q 417 760 336 760 q 572 733 503 760 q 699 593 699 683 l 699 153 q 572 13 699 62 q 417 -14 503 -14 q 271 9 336 -14 l 271 -244 l 142 -305 l 136 -305 z "},"ÿ":{"ha":800,"x_min":102,"x_max":665,"o":"m 102 712 l 231 773 l 237 773 l 237 176 q 280 125 237 142 q 383 109 322 109 q 487 125 444 109 q 529 176 529 142 l 529 712 l 658 773 l 665 773 l 665 -125 q 538 -265 665 -216 q 383 -292 469 -292 l 172 -292 l 172 -285 l 227 -170 l 383 -170 q 487 -153 444 -170 q 529 -102 529 -136 l 529 9 q 383 -14 464 -14 q 229 13 297 -14 q 102 153 102 62 l 102 712 m 429 896 q 417 908 429 896 q 405 955 405 920 q 429 1013 405 989 q 486 1038 452 1038 q 544 1013 520 1038 q 568 955 568 989 q 544 896 568 920 q 486 871 520 871 q 429 896 452 871 m 225 896 q 213 908 225 896 q 201 955 201 920 q 225 1013 201 989 q 283 1038 249 1038 q 340 1013 317 1038 q 364 955 364 989 q 340 896 364 920 q 283 871 317 871 q 225 896 249 871 z "},"Ā":{"ha":956,"x_min":136,"x_max":821,"o":"m 136 -27 l 136 814 q 290 1002 136 938 q 478 1038 376 1038 q 667 1002 581 1038 q 821 814 821 938 q 821 34 821 814 l 692 -27 l 685 -27 l 685 450 l 271 450 l 271 34 l 142 -27 l 136 -27 m 271 574 l 685 574 l 685 814 q 603 893 685 861 q 478 916 546 916 q 353 893 410 916 q 271 814 271 861 l 271 574 m 317 1111 l 317 1118 l 372 1234 l 682 1234 l 682 1227 l 627 1111 l 317 1111 z "},"ā":{"ha":719,"x_min":68,"x_max":617,"o":"m 617 34 l 488 -27 l 481 -27 l 481 9 q 342 -14 416 -14 q 195 13 263 -14 q 68 153 68 63 l 68 336 q 195 475 68 427 q 342 502 263 502 q 481 479 417 502 l 481 570 q 439 621 481 604 q 336 637 397 637 l 171 637 l 171 644 l 225 760 l 336 760 q 490 733 422 760 q 617 593 617 684 l 617 34 m 203 176 q 246 125 203 142 q 342 109 288 109 q 439 125 397 109 q 481 176 481 142 l 481 312 q 439 363 481 346 q 342 380 397 380 q 245 363 288 380 q 203 312 203 346 l 203 176 m 203 836 l 203 842 l 258 959 l 569 959 l 569 952 l 514 836 l 203 836 z "},"Ă":{"ha":956,"x_min":136,"x_max":821,"o":"m 136 -27 l 136 814 q 290 1002 136 938 q 478 1038 376 1038 q 667 1002 581 1038 q 821 814 821 938 q 821 34 821 814 l 692 -27 l 685 -27 l 685 450 l 271 450 l 271 34 l 142 -27 l 136 -27 m 271 574 l 685 574 l 685 814 q 603 893 685 861 q 478 916 546 916 q 353 893 410 916 q 271 814 271 861 l 271 574 m 317 1213 l 317 1219 l 368 1320 q 484 1230 416 1230 q 601 1320 552 1230 l 652 1219 l 652 1213 q 483 1111 583 1111 q 317 1213 378 1111 z "},"ă":{"ha":719,"x_min":68,"x_max":617,"o":"m 617 34 l 488 -27 l 481 -27 l 481 9 q 342 -14 416 -14 q 195 13 263 -14 q 68 153 68 63 l 68 336 q 195 475 68 427 q 342 502 263 502 q 481 479 417 502 l 481 570 q 439 621 481 604 q 336 637 397 637 l 171 637 l 171 644 l 225 760 l 336 760 q 490 733 422 760 q 617 593 617 684 l 617 34 m 203 176 q 246 125 203 142 q 342 109 288 109 q 439 125 397 109 q 481 176 481 142 l 481 312 q 439 363 481 346 q 342 380 397 380 q 245 363 288 380 q 203 312 203 346 l 203 176 m 203 937 l 203 944 l 254 1045 q 370 954 302 954 q 487 1045 438 954 l 538 944 l 538 937 q 369 836 469 836 q 203 937 264 836 z "},"Ą":{"ha":956,"x_min":136,"x_max":821,"o":"m 271 574 l 685 574 l 685 814 q 603 893 685 861 q 478 916 546 916 q 353 893 410 916 q 271 814 271 861 l 271 574 m 136 -27 l 136 814 q 290 1002 136 938 q 478 1038 376 1038 q 667 1002 581 1038 q 821 814 821 938 l 821 34 l 699 -24 q 675 -103 675 -64 q 766 -244 675 -185 l 637 -305 l 631 -305 q 557 -140 557 -233 q 685 56 557 -26 l 685 450 l 271 450 l 271 34 l 142 -27 l 136 -27 z "},"ą":{"ha":719,"x_min":68,"x_max":629,"o":"m 203 176 q 246 125 203 142 q 342 109 288 109 q 439 125 397 109 q 481 176 481 142 l 481 312 q 439 363 481 346 q 342 380 397 380 q 245 363 288 380 q 203 312 203 346 l 203 176 m 68 153 l 68 336 q 195 475 68 427 q 342 502 263 502 q 481 479 417 502 l 481 570 q 439 621 481 604 q 336 637 397 637 l 171 637 l 171 644 l 225 760 l 336 760 q 490 733 422 760 q 617 593 617 684 l 617 34 l 597 24 q 538 -103 538 -42 q 629 -244 538 -185 l 500 -305 l 494 -305 q 420 -140 420 -233 q 481 3 420 -61 l 481 9 q 342 -14 416 -14 q 195 13 263 -14 q 68 153 68 63 z "},"Ć":{"ha":956,"x_min":136,"x_max":821,"o":"m 821 373 l 821 210 q 667 22 821 86 q 478 -14 581 -14 q 290 22 376 -14 q 136 210 136 86 l 136 814 q 290 1002 136 938 q 478 1038 376 1038 q 667 1002 581 1038 q 821 814 821 938 l 821 712 l 692 651 l 685 651 l 685 814 q 603 893 685 860 q 478 916 546 916 q 353 893 410 916 q 271 814 271 861 l 271 210 q 353 131 271 164 q 478 109 410 109 q 603 131 546 109 q 685 210 685 163 l 685 312 l 814 373 l 821 373 m 554 1333 l 561 1333 l 680 1276 l 530 1062 l 524 1062 l 444 1099 l 554 1333 z "},"ć":{"ha":766,"x_min":102,"x_max":665,"o":"m 665 300 l 665 153 q 538 13 665 63 q 383 -14 469 -14 q 229 13 297 -14 q 102 153 102 63 l 102 593 q 229 733 102 683 q 383 760 297 760 q 538 733 469 760 q 665 593 665 683 l 665 507 l 536 446 l 529 446 l 529 570 q 487 621 529 604 q 383 637 444 637 q 280 621 322 637 q 237 570 237 604 l 237 176 q 280 125 237 142 q 383 109 322 109 q 487 125 444 109 q 529 176 529 142 l 529 239 l 658 300 l 665 300 m 463 1062 l 470 1062 l 589 1005 l 439 791 l 433 791 l 353 828 l 463 1062 z "},"Ĉ":{"ha":956,"x_min":136,"x_max":821,"o":"m 821 373 l 821 210 q 667 22 821 86 q 478 -14 581 -14 q 290 22 376 -14 q 136 210 136 86 l 136 814 q 290 1002 136 938 q 478 1038 376 1038 q 667 1002 581 1038 q 821 814 821 938 l 821 712 l 692 651 l 685 651 l 685 814 q 603 893 685 860 q 478 916 546 916 q 353 893 410 916 q 271 814 271 861 l 271 210 q 353 131 271 164 q 478 109 410 109 q 603 131 546 109 q 685 210 685 163 l 685 312 l 814 373 l 821 373 m 294 1099 l 398 1276 l 517 1333 l 524 1333 l 669 1099 l 590 1062 l 583 1062 l 481 1203 l 381 1062 l 374 1062 l 294 1099 z "},"ĉ":{"ha":766,"x_min":102,"x_max":665,"o":"m 665 300 l 665 153 q 538 13 665 63 q 383 -14 469 -14 q 229 13 297 -14 q 102 153 102 63 l 102 593 q 229 733 102 683 q 383 760 297 760 q 538 733 469 760 q 665 593 665 683 l 665 507 l 536 446 l 529 446 l 529 570 q 487 621 529 604 q 383 637 444 637 q 280 621 322 637 q 237 570 237 604 l 237 176 q 280 125 237 142 q 383 109 322 109 q 487 125 444 109 q 529 176 529 142 l 529 239 l 658 300 l 665 300 m 199 828 l 303 1005 l 422 1062 l 429 1062 l 574 828 l 495 791 l 488 791 l 387 932 l 286 791 l 279 791 l 199 828 z "},"Ċ":{"ha":956,"x_min":136,"x_max":821,"o":"m 821 373 l 821 210 q 667 22 821 86 q 478 -14 581 -14 q 290 22 376 -14 q 136 210 136 86 l 136 814 q 290 1002 136 938 q 478 1038 376 1038 q 667 1002 581 1038 q 821 814 821 938 l 821 712 l 692 651 l 685 651 l 685 814 q 603 893 685 860 q 478 916 546 916 q 353 893 410 916 q 271 814 271 861 l 271 210 q 353 131 271 164 q 478 109 410 109 q 603 131 546 109 q 685 210 685 163 l 685 312 l 814 373 l 821 373 m 420 1164 q 409 1176 420 1164 q 397 1222 397 1188 q 420 1281 397 1257 q 478 1305 444 1305 q 536 1281 512 1305 q 559 1222 559 1257 q 536 1164 559 1188 q 478 1139 512 1139 q 420 1164 444 1139 z "},"ċ":{"ha":766,"x_min":102,"x_max":665,"o":"m 665 300 l 665 153 q 538 13 665 63 q 383 -14 469 -14 q 229 13 297 -14 q 102 153 102 63 l 102 593 q 229 733 102 683 q 383 760 297 760 q 538 733 469 760 q 665 593 665 683 l 665 507 l 536 446 l 529 446 l 529 570 q 487 621 529 604 q 383 637 444 637 q 280 621 322 637 q 237 570 237 604 l 237 176 q 280 125 237 142 q 383 109 322 109 q 487 125 444 109 q 529 176 529 142 l 529 239 l 658 300 l 665 300 m 326 896 q 314 908 326 896 q 302 955 302 920 q 326 1013 302 989 q 383 1038 349 1038 q 441 1013 417 1038 q 465 955 465 989 q 441 896 465 920 q 383 871 417 871 q 326 896 349 871 z "},"Č":{"ha":956,"x_min":136,"x_max":821,"o":"m 821 373 l 821 210 q 667 22 821 86 q 478 -14 581 -14 q 290 22 376 -14 q 136 210 136 86 l 136 814 q 290 1002 136 938 q 478 1038 376 1038 q 667 1002 581 1038 q 821 814 821 938 l 821 712 l 692 651 l 685 651 l 685 814 q 603 893 685 860 q 478 916 546 916 q 353 893 410 916 q 271 814 271 861 l 271 210 q 353 131 271 164 q 478 109 410 109 q 603 131 546 109 q 685 210 685 163 l 685 312 l 814 373 l 821 373 m 439 1062 l 294 1296 l 373 1333 l 380 1333 l 481 1192 l 582 1333 l 589 1333 l 669 1296 l 565 1119 l 446 1062 l 439 1062 z "},"č":{"ha":766,"x_min":102,"x_max":665,"o":"m 665 300 l 665 153 q 538 13 665 63 q 383 -14 469 -14 q 229 13 297 -14 q 102 153 102 63 l 102 593 q 229 733 102 683 q 383 760 297 760 q 538 733 469 760 q 665 593 665 683 l 665 507 l 536 446 l 529 446 l 529 570 q 487 621 529 604 q 383 637 444 637 q 280 621 322 637 q 237 570 237 604 l 237 176 q 280 125 237 142 q 383 109 322 109 q 487 125 444 109 q 529 176 529 142 l 529 239 l 658 300 l 665 300 m 326 791 l 181 1025 l 260 1062 l 267 1062 l 368 921 l 469 1062 l 475 1062 l 555 1025 l 452 848 l 332 791 l 326 791 z "},"Ď":{"ha":943,"x_min":136,"x_max":807,"o":"m 271 122 l 465 122 q 589 144 532 122 q 671 224 671 177 l 671 800 q 589 880 671 847 q 465 902 533 902 l 271 902 l 271 122 m 136 0 l 136 990 l 208 1024 l 465 1024 q 653 988 567 1024 q 807 800 807 924 l 807 224 q 653 36 807 100 q 465 0 567 0 l 136 0 m 392 1062 l 248 1296 l 326 1333 l 333 1333 l 435 1192 l 535 1333 l 542 1333 l 622 1296 l 518 1119 l 399 1062 l 392 1062 z "},"ď":{"ha":821,"x_min":102,"x_max":922,"o":"m 102 153 q 102 593 102 153 q 229 733 102 684 q 383 760 297 760 q 529 736 464 760 l 529 990 l 658 1051 l 665 1051 l 665 153 q 538 13 665 62 q 383 -14 469 -14 q 229 13 297 -14 q 102 153 102 63 m 237 176 q 280 125 237 142 q 383 109 322 109 q 487 125 444 109 q 529 176 529 142 l 529 570 q 487 621 529 604 q 383 637 444 637 q 280 621 322 637 q 237 570 237 604 l 237 176 m 796 1062 l 803 1062 l 922 1005 l 772 791 l 766 791 l 686 828 l 796 1062 z "},"Đ":{"ha":943,"x_min":34,"x_max":807,"o":"m 136 0 l 136 450 l 34 450 l 34 457 l 89 574 l 136 574 l 136 990 l 208 1024 l 465 1024 q 653 988 567 1024 q 807 800 807 924 l 807 224 q 653 36 807 100 q 465 0 567 0 l 136 0 m 271 122 l 465 122 q 589 144 532 122 q 671 224 671 177 l 671 800 q 589 880 671 847 q 465 902 533 902 l 271 902 l 271 574 l 553 574 l 553 567 l 498 450 l 271 450 l 271 122 z "},"đ":{"ha":800,"x_min":102,"x_max":766,"o":"m 102 153 l 102 593 q 229 733 102 684 q 383 760 297 760 q 529 736 464 760 l 529 826 l 351 826 l 351 833 l 406 949 l 529 949 l 529 990 l 658 1051 l 665 1051 l 665 949 l 766 949 l 766 943 l 711 826 l 665 826 l 665 153 q 538 13 665 62 q 383 -14 469 -14 q 229 13 297 -14 q 102 153 102 63 m 237 176 q 280 125 237 142 q 383 109 322 109 q 487 125 444 109 q 529 176 529 142 l 529 570 q 487 621 529 604 q 383 637 444 637 q 280 621 322 637 q 237 570 237 604 l 237 176 z "},"Ē":{"ha":785,"x_min":136,"x_max":751,"o":"m 235 1111 l 235 1118 l 290 1234 l 600 1234 l 600 1227 l 545 1111 l 235 1111 m 136 0 l 136 990 l 208 1024 l 637 1024 l 637 1017 l 583 901 l 271 901 l 271 574 l 637 574 l 637 567 l 583 450 l 271 450 l 271 123 l 751 123 l 751 117 l 696 0 l 136 0 z "},"ē":{"ha":766,"x_min":102,"x_max":665,"o":"m 665 300 l 665 153 q 538 13 665 63 q 383 -14 469 -14 q 229 13 297 -14 q 102 153 102 63 l 102 593 q 229 733 102 683 q 383 760 297 760 q 538 733 469 760 q 665 593 665 683 l 665 507 l 237 176 q 280 125 237 142 q 383 109 322 109 q 487 125 444 109 q 529 176 529 142 l 529 239 l 658 300 l 665 300 m 237 319 l 529 554 l 529 570 q 487 621 529 604 q 383 637 444 637 q 280 621 322 637 q 237 570 237 604 l 237 319 m 217 836 l 217 842 l 272 959 l 583 959 l 583 952 l 528 836 l 217 836 z "},"Ĕ":{"ha":785,"x_min":136,"x_max":751,"o":"m 229 1213 l 229 1219 l 279 1320 q 396 1230 328 1230 q 513 1320 464 1230 l 564 1219 l 564 1213 q 395 1111 495 1111 q 229 1213 290 1111 m 136 0 l 136 990 l 208 1024 l 637 1024 l 637 1017 l 583 901 l 271 901 l 271 574 l 637 574 l 637 567 l 583 450 l 271 450 l 271 123 l 751 123 l 751 117 l 696 0 l 136 0 z "},"ĕ":{"ha":766,"x_min":102,"x_max":665,"o":"m 665 300 l 665 153 q 538 13 665 63 q 383 -14 469 -14 q 229 13 297 -14 q 102 153 102 63 l 102 593 q 229 733 102 683 q 383 760 297 760 q 538 733 469 760 q 665 593 665 683 l 665 507 l 237 176 q 280 125 237 142 q 383 109 322 109 q 487 125 444 109 q 529 176 529 142 l 529 239 l 658 300 l 665 300 m 237 319 l 529 554 l 529 570 q 487 621 529 604 q 383 637 444 637 q 280 621 322 637 q 237 570 237 604 l 237 319 m 217 937 l 217 944 l 267 1045 q 384 954 316 954 q 500 1045 452 954 l 552 944 l 552 937 q 382 836 483 836 q 217 937 278 836 z "},"Ė":{"ha":785,"x_min":136,"x_max":751,"o":"m 340 1164 q 328 1176 340 1164 q 316 1222 316 1188 q 340 1281 316 1257 q 397 1305 363 1305 q 455 1281 431 1305 q 479 1222 479 1257 q 455 1164 479 1188 q 397 1139 431 1139 q 340 1164 363 1139 m 136 0 l 136 990 l 208 1024 l 637 1024 l 637 1017 l 583 901 l 271 901 l 271 574 l 637 574 l 637 567 l 583 450 l 271 450 l 271 123 l 751 123 l 751 117 l 696 0 l 136 0 z "},"ė":{"ha":766,"x_min":102,"x_max":665,"o":"m 665 300 l 665 153 q 538 13 665 63 q 383 -14 469 -14 q 229 13 297 -14 q 102 153 102 63 l 102 593 q 229 733 102 683 q 383 760 297 760 q 538 733 469 760 q 665 593 665 683 l 665 507 l 237 176 q 280 125 237 142 q 383 109 322 109 q 487 125 444 109 q 529 176 529 142 l 529 239 l 658 300 l 665 300 m 237 319 l 529 554 l 529 570 q 487 621 529 604 q 383 637 444 637 q 280 621 322 637 q 237 570 237 604 l 237 319 m 326 896 q 314 908 326 896 q 302 955 302 920 q 326 1013 302 989 q 383 1038 349 1038 q 441 1013 417 1038 q 465 955 465 989 q 441 896 465 920 q 383 871 417 871 q 326 896 349 871 z "},"Ę":{"ha":785,"x_min":136,"x_max":751,"o":"m 136 0 l 136 990 l 208 1024 l 637 1024 l 637 1017 l 583 901 l 271 901 l 271 574 l 637 574 l 637 567 l 583 450 l 271 450 l 271 123 l 751 123 l 751 117 l 696 0 l 675 0 q 635 -103 635 -54 q 726 -244 635 -185 l 597 -305 l 591 -305 q 517 -140 517 -233 q 576 0 517 -62 l 136 0 z "},"ę":{"ha":766,"x_min":102,"x_max":665,"o":"m 237 319 l 529 554 l 529 570 q 487 621 529 604 q 383 637 444 637 q 280 621 322 637 q 237 570 237 604 l 237 319 m 665 300 l 665 153 q 538 13 665 63 q 481 -103 481 -47 q 572 -244 481 -185 l 443 -305 l 436 -305 q 362 -140 362 -233 q 410 -13 362 -71 q 383 -14 397 -14 q 229 13 297 -14 q 102 153 102 63 l 102 593 q 229 733 102 683 q 383 760 297 760 q 538 733 469 760 q 665 593 665 683 l 665 507 l 237 176 q 280 125 237 142 q 383 109 322 109 q 487 125 444 109 q 529 176 529 142 l 529 239 l 658 300 l 665 300 z "},"Ě":{"ha":785,"x_min":136,"x_max":751,"o":"m 361 1062 l 217 1296 l 296 1333 l 302 1333 l 404 1192 l 505 1333 l 511 1333 l 591 1296 l 488 1119 l 368 1062 l 361 1062 m 136 0 l 136 990 l 208 1024 l 637 1024 l 637 1017 l 583 901 l 271 901 l 271 574 l 637 574 l 637 567 l 583 450 l 271 450 l 271 123 l 751 123 l 751 117 l 696 0 l 136 0 z "},"ě":{"ha":766,"x_min":102,"x_max":665,"o":"m 665 300 l 665 153 q 538 13 665 63 q 383 -14 469 -14 q 229 13 297 -14 q 102 153 102 63 l 102 593 q 229 733 102 683 q 383 760 297 760 q 538 733 469 760 q 665 593 665 683 l 665 507 l 237 176 q 280 125 237 142 q 383 109 322 109 q 487 125 444 109 q 529 176 529 142 l 529 239 l 658 300 l 665 300 m 237 319 l 529 554 l 529 570 q 487 621 529 604 q 383 637 444 637 q 280 621 322 637 q 237 570 237 604 l 237 319 m 326 791 l 181 1025 l 260 1062 l 267 1062 l 368 921 l 469 1062 l 475 1062 l 555 1025 l 452 848 l 332 791 l 326 791 z "},"Ĝ":{"ha":956,"x_min":136,"x_max":821,"o":"m 821 574 l 821 210 q 667 22 821 86 q 478 -14 581 -14 q 290 22 376 -14 q 136 210 136 86 l 136 814 q 290 1002 136 938 q 478 1038 376 1038 q 667 1002 581 1038 q 821 814 821 938 l 821 712 l 692 651 l 685 651 l 685 814 q 603 893 685 861 q 478 916 546 916 q 353 893 410 916 q 271 814 271 861 l 271 210 q 353 131 271 163 q 478 109 410 109 q 603 131 546 109 q 685 210 685 163 l 685 450 l 449 450 l 449 457 l 504 574 l 821 574 m 294 1099 l 398 1276 l 517 1333 l 524 1333 l 669 1099 l 590 1062 l 583 1062 l 481 1203 l 381 1062 l 374 1062 l 294 1099 z "},"ĝ":{"ha":787,"x_min":102,"x_max":665,"o":"m 102 153 l 102 593 q 229 733 102 684 q 383 760 297 760 q 538 733 469 760 q 665 593 665 683 l 665 -125 q 538 -265 665 -216 q 383 -292 469 -292 l 172 -292 l 172 -285 l 227 -170 l 383 -170 q 487 -153 444 -170 q 529 -102 529 -136 l 529 9 q 383 -14 464 -14 q 229 13 297 -14 q 102 153 102 63 m 237 176 q 280 125 237 142 q 383 109 322 109 q 487 125 445 109 q 529 176 529 142 l 529 570 q 487 621 529 604 q 383 637 444 637 q 280 621 322 637 q 237 570 237 604 l 237 176 m 199 828 l 303 1005 l 422 1062 l 429 1062 l 574 828 l 495 791 l 488 791 l 387 932 l 286 791 l 279 791 l 199 828 z "},"Ğ":{"ha":956,"x_min":136,"x_max":821,"o":"m 821 574 l 821 210 q 667 22 821 86 q 478 -14 581 -14 q 290 22 376 -14 q 136 210 136 86 l 136 814 q 290 1002 136 938 q 478 1038 376 1038 q 667 1002 581 1038 q 821 814 821 938 l 821 712 l 692 651 l 685 651 l 685 814 q 603 893 685 861 q 478 916 546 916 q 353 893 410 916 q 271 814 271 861 l 271 210 q 353 131 271 163 q 478 109 410 109 q 603 131 546 109 q 685 210 685 163 l 685 450 l 449 450 l 449 457 l 504 574 l 821 574 m 317 1213 l 317 1219 l 368 1320 q 484 1230 416 1230 q 601 1320 552 1230 l 652 1219 l 652 1213 q 483 1111 583 1111 q 317 1213 378 1111 z "},"ğ":{"ha":787,"x_min":102,"x_max":665,"o":"m 102 153 l 102 593 q 229 733 102 684 q 383 760 297 760 q 538 733 469 760 q 665 593 665 683 l 665 -125 q 538 -265 665 -216 q 383 -292 469 -292 l 172 -292 l 172 -285 l 227 -170 l 383 -170 q 487 -153 444 -170 q 529 -102 529 -136 l 529 9 q 383 -14 464 -14 q 229 13 297 -14 q 102 153 102 63 m 237 176 q 280 125 237 142 q 383 109 322 109 q 487 125 445 109 q 529 176 529 142 l 529 570 q 487 621 529 604 q 383 637 444 637 q 280 621 322 637 q 237 570 237 604 l 237 176 m 217 937 l 217 944 l 267 1045 q 384 954 316 954 q 500 1045 452 954 l 552 944 l 552 937 q 382 836 483 836 q 217 937 278 836 z "},"Ġ":{"ha":956,"x_min":136,"x_max":821,"o":"m 821 574 l 821 210 q 667 22 821 86 q 478 -14 581 -14 q 290 22 376 -14 q 136 210 136 86 l 136 814 q 290 1002 136 938 q 478 1038 376 1038 q 667 1002 581 1038 q 821 814 821 938 l 821 712 l 692 651 l 685 651 l 685 814 q 603 893 685 861 q 478 916 546 916 q 353 893 410 916 q 271 814 271 861 l 271 210 q 353 131 271 163 q 478 109 410 109 q 603 131 546 109 q 685 210 685 163 l 685 450 l 449 450 l 449 457 l 504 574 l 821 574 m 420 1164 q 409 1176 420 1164 q 397 1222 397 1188 q 420 1281 397 1257 q 478 1305 444 1305 q 536 1281 512 1305 q 559 1222 559 1257 q 536 1164 559 1188 q 478 1139 512 1139 q 420 1164 444 1139 z "},"ġ":{"ha":787,"x_min":102,"x_max":665,"o":"m 102 153 l 102 593 q 229 733 102 684 q 383 760 297 760 q 538 733 469 760 q 665 593 665 683 l 665 -125 q 538 -265 665 -216 q 383 -292 469 -292 l 172 -292 l 172 -285 l 227 -170 l 383 -170 q 487 -153 444 -170 q 529 -102 529 -136 l 529 9 q 383 -14 464 -14 q 229 13 297 -14 q 102 153 102 63 m 237 176 q 280 125 237 142 q 383 109 322 109 q 487 125 445 109 q 529 176 529 142 l 529 570 q 487 621 529 604 q 383 637 444 637 q 280 621 322 637 q 237 570 237 604 l 237 176 m 326 896 q 314 908 326 896 q 302 955 302 920 q 326 1013 302 989 q 383 1038 349 1038 q 441 1013 417 1038 q 465 955 465 989 q 441 896 465 920 q 383 871 417 871 q 326 896 349 871 z "},"Ģ":{"ha":956,"x_min":136,"x_max":821,"o":"m 821 574 l 821 210 q 667 22 821 86 q 478 -14 581 -14 q 290 22 376 -14 q 136 210 136 86 l 136 814 q 290 1002 136 938 q 478 1038 376 1038 q 667 1002 581 1038 q 821 814 821 938 l 821 712 l 692 651 l 685 651 l 685 814 q 603 893 685 861 q 478 916 546 916 q 353 893 410 916 q 271 814 271 861 l 271 210 q 353 131 271 163 q 478 109 410 109 q 603 131 546 109 q 685 210 685 163 l 685 450 l 449 450 l 449 457 l 504 574 l 821 574 m 404 -305 l 397 -305 l 278 -248 l 428 -34 l 435 -34 l 514 -71 l 404 -305 z "},"ģ":{"ha":787,"x_min":102,"x_max":665,"o":"m 102 153 l 102 593 q 229 733 102 684 q 383 760 297 760 q 538 733 469 760 q 665 593 665 683 l 665 -125 q 538 -265 665 -216 q 383 -292 469 -292 l 172 -292 l 172 -285 l 227 -170 l 383 -170 q 487 -153 444 -170 q 529 -102 529 -136 l 529 9 q 383 -14 464 -14 q 229 13 297 -14 q 102 153 102 63 m 237 176 q 280 125 237 142 q 383 109 322 109 q 487 125 445 109 q 529 176 529 142 l 529 570 q 487 621 529 604 q 383 637 444 637 q 280 621 322 637 q 237 570 237 604 l 237 176 m 463 1062 l 470 1062 l 589 1005 l 439 791 l 433 791 l 353 828 l 463 1062 z "},"Ĥ":{"ha":943,"x_min":136,"x_max":807,"o":"m 294 1099 l 398 1276 l 517 1333 l 524 1333 l 669 1099 l 590 1062 l 583 1062 l 481 1203 l 381 1062 l 374 1062 l 294 1099 m 136 -27 l 136 990 l 264 1051 l 271 1051 l 271 574 l 671 574 l 671 990 l 800 1051 l 807 1051 l 807 34 l 678 -27 l 671 -27 l 671 450 l 271 450 l 271 34 l 142 -27 l 136 -27 z "},"ĥ":{"ha":800,"x_min":136,"x_max":699,"o":"m 136 -27 l 136 990 l 264 1051 l 271 1051 l 271 736 q 417 760 336 760 q 572 733 503 760 q 699 593 699 684 l 699 34 l 570 -27 l 563 -27 l 563 570 q 520 621 563 604 q 417 637 478 637 q 314 621 356 637 q 271 570 271 604 l 271 34 l 142 -27 l 136 -27 m 245 1099 l 349 1276 l 468 1333 l 475 1333 l 619 1099 l 541 1062 l 534 1062 l 432 1203 l 332 1062 l 325 1062 l 245 1099 z "},"Ħ":{"ha":943,"x_min":34,"x_max":909,"o":"m 136 -27 l 136 826 l 34 826 l 34 833 l 89 949 l 136 949 l 136 990 l 264 1051 l 271 1051 l 271 949 l 671 949 l 671 990 l 800 1051 l 807 1051 l 807 949 l 909 949 l 909 943 l 854 826 l 807 826 l 807 34 l 678 -27 l 671 -27 l 671 450 l 271 450 l 271 34 l 142 -27 l 136 -27 m 671 826 l 271 826 l 271 574 l 671 574 l 671 826 z "},"ħ":{"ha":800,"x_min":34,"x_max":699,"o":"m 34 826 l 34 833 l 89 949 l 136 949 l 136 990 l 264 1051 l 271 1051 l 271 949 l 449 949 l 449 943 l 394 826 l 271 826 l 271 736 q 417 760 336 760 q 572 733 503 760 q 699 593 699 684 l 699 34 l 570 -27 l 563 -27 l 563 570 q 520 621 563 604 q 417 637 478 637 q 314 621 356 637 q 271 570 271 604 l 271 34 l 142 -27 l 136 -27 l 136 826 l 34 826 z "},"Ĩ":{"ha":407,"x_min":33,"x_max":374,"o":"m 136 -27 l 136 990 l 264 1051 l 271 1051 l 271 34 l 142 -27 l 136 -27 m 33 1111 q 128 1305 33 1305 q 221 1257 172 1305 q 272 1224 256 1224 q 295 1273 295 1224 l 370 1305 l 374 1305 q 278 1111 374 1111 q 185 1158 235 1111 q 134 1192 151 1192 q 111 1143 111 1192 l 37 1111 l 33 1111 z "},"ĩ":{"ha":407,"x_min":33,"x_max":374,"o":"m 136 -27 l 136 712 l 264 773 l 271 773 l 271 34 l 142 -27 l 136 -27 m 33 836 q 128 1029 33 1029 q 221 982 172 1029 q 272 949 256 949 q 295 998 295 949 l 370 1029 l 374 1029 q 278 836 374 836 q 185 883 235 836 q 134 916 151 916 q 111 867 111 916 l 37 836 l 33 836 z "},"Ī":{"ha":407,"x_min":20,"x_max":386,"o":"m 136 -27 l 136 990 l 264 1051 l 271 1051 l 271 34 l 142 -27 l 136 -27 m 20 1111 l 20 1118 l 75 1234 l 386 1234 l 386 1227 l 331 1111 l 20 1111 z "},"ī":{"ha":407,"x_min":20,"x_max":386,"o":"m 136 -27 l 136 712 l 264 773 l 271 773 l 271 34 l 142 -27 l 136 -27 m 20 836 l 20 842 l 75 959 l 386 959 l 386 952 l 331 836 l 20 836 z "},"Ĭ":{"ha":407,"x_min":36,"x_max":371,"o":"m 136 -27 l 136 990 l 264 1051 l 271 1051 l 271 34 l 142 -27 l 136 -27 m 36 1213 l 36 1219 l 86 1320 q 203 1230 135 1230 q 319 1320 271 1230 l 371 1219 l 371 1213 q 201 1111 302 1111 q 36 1213 97 1111 z "},"ĭ":{"ha":407,"x_min":36,"x_max":371,"o":"m 136 -27 l 136 712 l 264 773 l 271 773 l 271 34 l 142 -27 l 136 -27 m 36 937 l 36 944 l 86 1045 q 203 954 135 954 q 319 1045 271 954 l 371 944 l 371 937 q 201 836 302 836 q 36 937 97 836 z "},"Į":{"ha":407,"x_min":70,"x_max":279,"o":"m 136 7 l 136 990 l 264 1051 l 271 1051 l 271 34 l 245 22 q 189 -103 189 -44 q 279 -244 189 -185 l 151 -305 l 144 -305 q 70 -140 70 -233 q 136 7 70 -58 z "},"į":{"ha":407,"x_min":70,"x_max":285,"o":"m 146 896 q 134 908 146 896 q 122 955 122 920 q 146 1013 122 989 q 203 1038 170 1038 q 261 1013 237 1038 q 285 955 285 989 q 261 896 285 920 q 203 871 237 871 q 146 896 170 871 m 136 7 l 136 712 l 264 773 l 271 773 l 271 34 l 245 22 q 189 -103 189 -44 q 279 -244 189 -185 l 151 -305 l 144 -305 q 70 -140 70 -233 q 136 7 70 -58 z "},"İ":{"ha":407,"x_min":122,"x_max":285,"o":"m 136 -27 l 136 990 l 264 1051 l 271 1051 l 271 34 l 142 -27 l 136 -27 m 146 1164 q 134 1176 146 1164 q 122 1222 122 1188 q 146 1281 122 1257 q 203 1305 170 1305 q 261 1281 237 1305 q 285 1222 285 1257 q 261 1164 285 1188 q 203 1139 237 1139 q 146 1164 170 1139 z "},"ı":{"ha":407,"x_min":136,"x_max":271,"o":"m 136 -27 l 136 712 l 264 773 l 271 773 l 271 34 l 142 -27 l 136 -27 z "},"Ĳ":{"ha":1189,"x_min":136,"x_max":1053,"o":"m 382 312 l 511 373 l 517 373 l 517 210 q 600 131 517 163 q 721 109 656 109 q 836 131 779 109 q 918 210 918 163 l 918 901 l 529 901 l 529 907 l 584 1024 l 1053 1024 l 1053 210 q 899 22 1053 86 q 721 -14 813 -14 q 536 22 622 -14 q 382 210 382 86 l 382 312 m 136 -27 l 136 990 l 264 1051 l 271 1051 l 271 34 l 142 -27 l 136 -27 z "},"ĳ":{"ha":746,"x_min":122,"x_max":624,"o":"m 475 712 l 604 773 l 610 773 l 610 -125 q 484 -265 610 -216 q 329 -292 415 -292 l 329 -285 l 385 -165 q 433 -153 411 -161 q 475 -102 475 -135 l 475 712 m 485 896 q 473 908 485 896 q 461 955 461 920 q 485 1013 461 989 q 543 1038 509 1038 q 600 1013 576 1038 q 624 955 624 989 q 600 896 624 920 q 543 871 576 871 q 485 896 509 871 m 146 896 q 134 908 146 896 q 122 955 122 920 q 146 1013 122 989 q 203 1038 170 1038 q 261 1013 237 1038 q 285 955 285 989 q 261 896 285 920 q 203 871 237 871 q 146 896 170 871 m 136 -27 l 136 712 l 264 773 l 271 773 l 271 34 l 142 -27 l 136 -27 z "},"Ĵ":{"ha":861,"x_min":54,"x_max":726,"o":"m 54 312 l 183 373 l 190 373 l 190 210 q 272 131 190 163 q 393 109 329 109 q 508 131 451 109 q 590 210 590 163 l 590 901 l 201 901 l 201 907 l 256 1024 l 726 1024 l 726 210 q 572 22 726 86 q 393 -14 486 -14 q 208 22 294 -14 q 54 210 54 86 l 54 312 m 317 1099 l 421 1276 l 541 1333 l 547 1333 l 692 1099 l 613 1062 l 606 1062 l 505 1203 l 404 1062 l 397 1062 l 317 1099 z "},"ĵ":{"ha":407,"x_min":-10,"x_max":391,"o":"m 136 712 l 264 773 l 271 773 l 271 -125 q 144 -265 271 -216 q -10 -292 76 -292 l -10 -285 l 46 -165 q 94 -153 72 -161 q 136 -102 136 -135 l 136 712 m 16 828 l 120 1005 l 239 1062 l 246 1062 l 391 828 l 312 791 l 305 791 l 203 932 l 103 791 l 96 791 l 16 828 z "},"Ķ":{"ha":922,"x_min":136,"x_max":800,"o":"m 136 -27 l 136 990 l 264 1051 l 271 1051 l 271 541 l 640 1051 l 646 1051 l 766 995 l 463 592 q 646 555 557 592 q 800 367 800 490 l 800 34 l 671 -27 l 665 -27 l 665 367 q 583 446 665 414 q 463 470 518 470 q 354 449 408 470 q 271 367 271 417 l 271 34 l 142 -27 l 136 -27 m 404 -305 l 397 -305 l 278 -248 l 428 -34 l 435 -34 l 514 -71 l 404 -305 z "},"ķ":{"ha":800,"x_min":136,"x_max":699,"o":"m 136 -27 l 136 990 l 264 1051 l 271 1051 l 271 486 l 555 773 l 562 773 l 681 717 l 454 508 q 572 483 518 503 q 699 343 699 435 l 699 34 l 570 -27 l 563 -27 l 563 319 q 520 370 563 353 q 417 387 478 387 q 314 370 356 387 q 271 319 271 353 l 271 34 l 142 -27 l 136 -27 m 348 -305 l 341 -305 l 222 -248 l 372 -34 l 378 -34 l 458 -71 l 348 -305 z "},"ĸ":{"ha":800,"x_min":136,"x_max":699,"o":"m 136 -27 l 136 712 l 264 773 l 271 773 l 271 486 l 555 773 l 562 773 l 681 717 l 454 508 q 572 483 518 503 q 699 343 699 435 l 699 34 l 570 -27 l 563 -27 l 563 319 q 520 370 563 353 q 417 387 478 387 q 314 370 356 387 q 271 319 271 353 l 271 34 l 142 -27 l 136 -27 z "},"Ĺ":{"ha":739,"x_min":126,"x_max":736,"o":"m 236 1333 l 243 1333 l 362 1276 l 212 1062 l 205 1062 l 126 1099 l 236 1333 m 136 0 l 136 990 l 264 1051 l 271 1051 l 271 123 l 736 123 l 736 117 l 681 0 l 136 0 z "},"ĺ":{"ha":407,"x_min":126,"x_max":362,"o":"m 236 1333 l 243 1333 l 362 1276 l 212 1062 l 205 1062 l 126 1099 l 236 1333 m 136 -27 l 136 990 l 264 1051 l 271 1051 l 271 34 l 142 -27 l 136 -27 z "},"Ļ":{"ha":739,"x_min":136,"x_max":736,"o":"m 372 -305 l 365 -305 l 245 -248 l 395 -34 l 402 -34 l 481 -71 l 372 -305 m 136 0 l 136 990 l 264 1051 l 271 1051 l 271 123 l 736 123 l 736 117 l 681 0 l 136 0 z "},"ļ":{"ha":407,"x_min":45,"x_max":281,"o":"m 171 -305 l 164 -305 l 45 -248 l 195 -34 l 201 -34 l 281 -71 l 171 -305 m 136 -27 l 136 990 l 264 1051 l 271 1051 l 271 34 l 142 -27 l 136 -27 z "},"Ľ":{"ha":739,"x_min":136,"x_max":736,"o":"m 403 1062 l 410 1062 l 529 1005 l 379 791 l 372 791 l 293 828 l 403 1062 m 136 0 l 136 990 l 264 1051 l 271 1051 l 271 123 l 736 123 l 736 117 l 681 0 l 136 0 z "},"ľ":{"ha":427,"x_min":136,"x_max":529,"o":"m 403 1062 l 410 1062 l 529 1005 l 379 791 l 372 791 l 293 828 l 403 1062 m 136 -27 l 136 990 l 264 1051 l 271 1051 l 271 34 l 142 -27 l 136 -27 z "},"Ŀ":{"ha":739,"x_min":136,"x_max":736,"o":"m 366 618 q 354 630 366 618 q 342 676 342 642 q 366 735 342 711 q 424 760 390 760 q 481 735 458 760 q 505 676 505 711 q 481 618 505 642 q 424 593 458 593 q 366 618 390 593 m 136 0 l 136 990 l 264 1051 l 271 1051 l 271 123 l 736 123 l 736 117 l 681 0 l 136 0 z "},"ŀ":{"ha":451,"x_min":136,"x_max":505,"o":"m 366 618 q 354 630 366 618 q 342 676 342 642 q 366 735 342 711 q 424 760 390 760 q 481 735 458 760 q 505 676 505 711 q 481 618 505 642 q 424 593 458 593 q 366 618 390 593 m 136 -27 l 136 990 l 264 1051 l 271 1051 l 271 34 l 142 -27 l 136 -27 z "},"Ł":{"ha":739,"x_min":136,"x_max":736,"o":"m 136 0 l 136 990 l 264 1051 l 271 1051 l 271 486 l 486 773 l 493 773 l 600 719 l 271 311 l 271 123 l 736 123 l 736 117 l 681 0 l 136 0 z "},"ł":{"ha":491,"x_min":14,"x_max":477,"o":"m 178 -27 l 178 367 l 127 284 l 121 284 l 14 339 l 178 543 l 178 990 l 307 1051 l 313 1051 l 313 690 l 363 773 l 370 773 l 477 719 l 313 515 l 313 34 l 184 -27 l 178 -27 z "},"Ń":{"ha":956,"x_min":136,"x_max":821,"o":"m 136 -27 l 136 814 q 290 1002 136 938 q 478 1038 376 1038 q 667 1002 581 1038 q 821 814 821 938 l 821 34 l 692 -27 l 685 -27 l 685 814 q 603 893 685 861 q 478 916 546 916 q 353 893 410 916 q 271 814 271 861 l 271 34 l 142 -27 l 136 -27 m 554 1333 l 561 1333 l 680 1276 l 530 1062 l 524 1062 l 444 1099 l 554 1333 z "},"ń":{"ha":766,"x_min":102,"x_max":665,"o":"m 102 -27 l 102 593 q 229 733 102 684 q 383 760 297 760 q 538 733 469 760 q 665 593 665 684 l 665 34 l 536 -27 l 529 -27 l 529 570 q 487 621 529 604 q 383 637 444 637 q 280 621 322 637 q 237 570 237 604 l 237 34 l 109 -27 l 102 -27 m 463 1062 l 470 1062 l 589 1005 l 439 791 l 433 791 l 353 828 l 463 1062 z "},"Ņ":{"ha":956,"x_min":136,"x_max":821,"o":"m 136 -27 l 136 814 q 290 1002 136 938 q 478 1038 376 1038 q 667 1002 581 1038 q 821 814 821 938 l 821 34 l 692 -27 l 685 -27 l 685 814 q 603 893 685 861 q 478 916 546 916 q 353 893 410 916 q 271 814 271 861 l 271 34 l 142 -27 l 136 -27 m 404 -305 l 397 -305 l 278 -248 l 428 -34 l 435 -34 l 514 -71 l 404 -305 z "},"ņ":{"ha":766,"x_min":102,"x_max":665,"o":"m 102 -27 l 102 593 q 229 733 102 684 q 383 760 297 760 q 538 733 469 760 q 665 593 665 684 l 665 34 l 536 -27 l 529 -27 l 529 570 q 487 621 529 604 q 383 637 444 637 q 280 621 322 637 q 237 570 237 604 l 237 34 l 109 -27 l 102 -27 m 319 -305 l 313 -305 l 193 -248 l 343 -34 l 350 -34 l 429 -71 l 319 -305 z "},"Ň":{"ha":956,"x_min":136,"x_max":821,"o":"m 136 -27 l 136 814 q 290 1002 136 938 q 478 1038 376 1038 q 667 1002 581 1038 q 821 814 821 938 l 821 34 l 692 -27 l 685 -27 l 685 814 q 603 893 685 861 q 478 916 546 916 q 353 893 410 916 q 271 814 271 861 l 271 34 l 142 -27 l 136 -27 m 439 1062 l 294 1296 l 373 1333 l 380 1333 l 481 1192 l 582 1333 l 589 1333 l 669 1296 l 565 1119 l 446 1062 l 439 1062 z "},"ň":{"ha":766,"x_min":102,"x_max":665,"o":"m 102 -27 l 102 593 q 229 733 102 684 q 383 760 297 760 q 538 733 469 760 q 665 593 665 684 l 665 34 l 536 -27 l 529 -27 l 529 570 q 487 621 529 604 q 383 637 444 637 q 280 621 322 637 q 237 570 237 604 l 237 34 l 109 -27 l 102 -27 m 326 791 l 181 1025 l 260 1062 l 267 1062 l 368 921 l 469 1062 l 475 1062 l 555 1025 l 452 848 l 332 791 l 326 791 z "},"ŉ":{"ha":766,"x_min":33,"x_max":665,"o":"m 102 -27 l 102 593 q 229 733 102 684 q 383 760 297 760 q 538 733 469 760 q 665 593 665 684 l 665 34 l 536 -27 l 529 -27 l 529 570 q 487 621 529 604 q 383 637 444 637 q 280 621 322 637 q 237 570 237 604 l 237 34 l 109 -27 l 102 -27 m 142 986 l 149 986 l 269 929 l 119 715 l 112 715 l 33 752 l 142 986 z "},"Ŋ":{"ha":956,"x_min":136,"x_max":821,"o":"m 136 -27 l 136 814 q 290 1002 136 938 q 478 1038 376 1038 q 667 1002 581 1038 q 821 814 821 938 l 821 -125 q 694 -265 821 -216 q 539 -292 625 -292 l 539 -285 l 595 -165 q 643 -153 621 -161 q 685 -102 685 -135 l 685 814 q 603 893 685 861 q 478 916 546 916 q 353 893 410 916 q 271 814 271 861 l 271 34 l 142 -27 l 136 -27 z "},"ŋ":{"ha":766,"x_min":102,"x_max":665,"o":"m 102 -27 l 102 593 q 229 733 102 684 q 383 760 297 760 q 538 733 469 760 q 665 593 665 684 l 665 -125 q 538 -265 665 -216 q 383 -292 469 -292 l 383 -285 l 439 -165 q 487 -153 465 -161 q 529 -102 529 -135 l 529 570 q 487 621 529 604 q 383 637 444 637 q 280 621 322 637 q 237 570 237 604 l 237 34 l 109 -27 l 102 -27 z "},"Ō":{"ha":956,"x_min":136,"x_max":821,"o":"m 271 210 q 353 131 271 164 q 478 109 410 109 q 603 131 546 109 q 685 210 685 163 l 685 814 q 603 893 685 860 q 478 916 546 916 q 353 893 410 916 q 271 814 271 861 l 271 210 m 136 210 q 136 814 136 210 q 290 1002 136 938 q 478 1038 376 1038 q 667 1002 581 1038 q 821 814 821 938 l 821 210 q 667 22 821 86 q 478 -14 581 -14 q 290 22 376 -14 q 136 210 136 86 m 317 1111 l 317 1118 l 372 1234 l 682 1234 l 682 1227 l 627 1111 l 317 1111 z "},"ō":{"ha":766,"x_min":102,"x_max":665,"o":"m 237 176 q 280 125 237 142 q 383 109 322 109 q 487 125 444 109 q 529 176 529 142 l 529 570 q 487 621 529 604 q 383 637 444 637 q 280 621 322 637 q 237 570 237 604 l 237 176 m 102 153 l 102 593 q 229 733 102 683 q 383 760 297 760 q 538 733 469 760 q 665 593 665 683 l 665 153 q 538 13 665 63 q 383 -14 469 -14 q 229 13 297 -14 q 102 153 102 63 m 217 836 l 217 842 l 272 959 l 583 959 l 583 952 l 528 836 l 217 836 z "},"Ŏ":{"ha":956,"x_min":136,"x_max":821,"o":"m 271 210 q 353 131 271 164 q 478 109 410 109 q 603 131 546 109 q 685 210 685 163 l 685 814 q 603 893 685 860 q 478 916 546 916 q 353 893 410 916 q 271 814 271 861 l 271 210 m 136 210 q 136 814 136 210 q 290 1002 136 938 q 478 1038 376 1038 q 667 1002 581 1038 q 821 814 821 938 l 821 210 q 667 22 821 86 q 478 -14 581 -14 q 290 22 376 -14 q 136 210 136 86 m 317 1213 l 317 1219 l 368 1320 q 484 1230 416 1230 q 601 1320 552 1230 l 652 1219 l 652 1213 q 483 1111 583 1111 q 317 1213 378 1111 z "},"ŏ":{"ha":766,"x_min":102,"x_max":665,"o":"m 237 176 q 280 125 237 142 q 383 109 322 109 q 487 125 444 109 q 529 176 529 142 l 529 570 q 487 621 529 604 q 383 637 444 637 q 280 621 322 637 q 237 570 237 604 l 237 176 m 102 153 l 102 593 q 229 733 102 683 q 383 760 297 760 q 538 733 469 760 q 665 593 665 683 l 665 153 q 538 13 665 63 q 383 -14 469 -14 q 229 13 297 -14 q 102 153 102 63 m 217 937 l 217 944 l 267 1045 q 384 954 316 954 q 500 1045 452 954 l 552 944 l 552 937 q 382 836 483 836 q 217 937 278 836 z "},"Ő":{"ha":956,"x_min":136,"x_max":821,"o":"m 271 210 q 353 131 271 164 q 478 109 410 109 q 603 131 546 109 q 685 210 685 163 l 685 814 q 603 893 685 860 q 478 916 546 916 q 353 893 410 916 q 271 814 271 861 l 271 210 m 136 210 q 136 814 136 210 q 290 1002 136 938 q 478 1038 376 1038 q 667 1002 581 1038 q 821 814 821 938 l 821 210 q 667 22 821 86 q 478 -14 581 -14 q 290 22 376 -14 q 136 210 136 86 m 633 1333 l 640 1333 l 759 1276 l 609 1062 l 602 1062 l 523 1099 l 633 1333 m 445 1333 l 452 1333 l 571 1276 l 421 1062 l 414 1062 l 335 1099 l 445 1333 z "},"ő":{"ha":766,"x_min":102,"x_max":665,"o":"m 237 176 q 280 125 237 142 q 383 109 322 109 q 487 125 444 109 q 529 176 529 142 l 529 570 q 487 621 529 604 q 383 637 444 637 q 280 621 322 637 q 237 570 237 604 l 237 176 m 102 153 l 102 593 q 229 733 102 683 q 383 760 297 760 q 538 733 469 760 q 665 593 665 683 l 665 153 q 538 13 665 63 q 383 -14 469 -14 q 229 13 297 -14 q 102 153 102 63 m 522 1062 l 529 1062 l 648 1005 l 498 791 l 492 791 l 412 828 l 522 1062 m 334 1062 l 341 1062 l 460 1005 l 311 791 l 304 791 l 224 828 l 334 1062 z "},"Œ":{"ha":1334,"x_min":136,"x_max":1300,"o":"m 136 210 l 136 814 q 290 1002 136 938 q 478 1038 376 1038 q 667 998 581 1038 l 685 990 l 757 1024 l 1187 1024 l 1187 1017 l 1132 901 l 821 901 l 821 574 l 1187 574 l 1187 567 l 1132 450 l 821 450 l 821 123 l 1300 123 l 1300 117 l 1245 0 l 685 0 l 685 31 q 667 22 676 26 q 478 -14 583 -14 q 290 22 376 -14 q 136 210 136 86 m 271 210 q 353 131 271 164 q 478 109 408 109 q 603 131 546 109 q 685 210 685 163 l 685 814 q 603 893 685 860 q 478 916 546 916 q 353 893 410 916 q 271 814 271 861 l 271 210 z "},"œ":{"ha":1194,"x_min":102,"x_max":1092,"o":"m 102 153 l 102 593 q 229 733 102 683 q 383 760 297 760 q 538 733 472 760 q 597 703 572 720 q 656 733 622 720 q 810 760 722 760 q 965 733 897 760 q 1092 593 1092 683 l 1092 507 l 665 176 q 707 125 665 142 q 810 109 749 109 q 914 125 871 109 q 956 176 956 142 l 956 239 l 1085 300 l 1092 300 l 1092 153 q 965 13 1092 63 q 810 -14 897 -14 q 656 13 722 -14 q 597 43 622 26 q 538 13 572 26 q 383 -14 472 -14 q 229 13 297 -14 q 102 153 102 63 m 237 176 q 280 125 237 142 q 383 109 322 109 q 487 125 444 109 q 529 176 529 142 l 529 570 q 487 621 529 604 q 383 637 444 637 q 280 621 322 637 q 237 570 237 604 l 237 176 m 665 570 l 665 319 l 956 554 l 956 570 q 914 621 956 604 q 810 637 871 637 q 707 621 749 637 q 665 570 665 604 z "},"Ŕ":{"ha":925,"x_min":136,"x_max":823,"o":"m 271 468 l 465 468 q 589 490 532 468 q 671 570 671 523 l 671 800 q 589 880 671 848 q 465 902 532 902 l 271 902 l 271 468 m 136 -27 l 136 990 l 208 1024 l 465 1024 q 653 988 567 1024 q 807 800 807 924 l 807 570 q 653 382 807 445 q 591 361 623 370 l 823 29 l 704 -27 l 697 -27 l 436 346 l 271 346 l 271 34 l 142 -27 l 136 -27 m 475 1333 l 481 1333 l 601 1276 l 451 1062 l 444 1062 l 365 1099 l 475 1333 z "},"ŕ":{"ha":488,"x_min":102,"x_max":475,"o":"m 102 -27 l 102 593 q 229 733 102 684 q 383 760 297 760 l 475 760 l 475 753 l 420 637 l 383 637 q 280 621 322 637 q 237 570 237 604 l 237 34 l 109 -27 l 102 -27 m 321 1062 l 328 1062 l 447 1005 l 297 791 l 290 791 l 211 828 l 321 1062 z "},"Ŗ":{"ha":925,"x_min":136,"x_max":823,"o":"m 271 468 l 465 468 q 589 490 532 468 q 671 570 671 523 l 671 800 q 589 880 671 848 q 465 902 532 902 l 271 902 l 271 468 m 136 -27 l 136 990 l 208 1024 l 465 1024 q 653 988 567 1024 q 807 800 807 924 l 807 570 q 653 382 807 445 q 591 361 623 370 l 823 29 l 704 -27 l 697 -27 l 436 346 l 271 346 l 271 34 l 142 -27 l 136 -27 m 404 -305 l 397 -305 l 278 -248 l 428 -34 l 435 -34 l 514 -71 l 404 -305 z "},"ŗ":{"ha":488,"x_min":16,"x_max":475,"o":"m 102 -27 l 102 593 q 229 733 102 684 q 383 760 297 760 l 475 760 l 475 753 l 420 637 l 383 637 q 280 621 322 637 q 237 570 237 604 l 237 34 l 109 -27 l 102 -27 m 142 -305 l 136 -305 l 16 -248 l 166 -34 l 173 -34 l 252 -71 l 142 -305 z "},"Ř":{"ha":925,"x_min":136,"x_max":823,"o":"m 271 468 l 465 468 q 589 490 532 468 q 671 570 671 523 l 671 800 q 589 880 671 848 q 465 902 532 902 l 271 902 l 271 468 m 136 -27 l 136 990 l 208 1024 l 465 1024 q 653 988 567 1024 q 807 800 807 924 l 807 570 q 653 382 807 445 q 591 361 623 370 l 823 29 l 704 -27 l 697 -27 l 436 346 l 271 346 l 271 34 l 142 -27 l 136 -27 m 398 1062 l 254 1296 l 332 1333 l 339 1333 l 441 1192 l 541 1333 l 548 1333 l 628 1296 l 524 1119 l 405 1062 l 398 1062 z "},"ř":{"ha":488,"x_min":77,"x_max":475,"o":"m 102 -27 l 102 593 q 229 733 102 684 q 383 760 297 760 l 475 760 l 475 753 l 420 637 l 383 637 q 280 621 322 637 q 237 570 237 604 l 237 34 l 109 -27 l 102 -27 m 222 791 l 77 1025 l 156 1062 l 163 1062 l 264 921 l 365 1062 l 372 1062 l 452 1025 l 348 848 l 229 791 l 222 791 z "},"Ś":{"ha":902,"x_min":109,"x_max":793,"o":"m 109 312 l 237 373 l 244 373 l 244 210 q 326 131 244 163 q 451 109 383 109 q 576 131 519 109 q 658 210 658 163 l 658 408 q 576 487 658 455 q 451 509 519 509 q 296 536 365 509 q 170 675 170 586 l 170 871 q 296 1011 170 962 q 451 1038 365 1038 q 606 1011 537 1038 q 732 871 732 961 l 732 785 l 604 724 l 597 724 l 597 848 q 554 899 597 882 q 451 916 512 916 q 348 899 390 916 q 305 848 305 882 l 305 699 q 348 648 305 665 q 451 631 390 631 q 640 595 553 631 q 793 408 793 532 l 793 210 q 640 22 793 87 q 451 -14 553 -14 q 262 22 349 -14 q 109 210 109 86 l 109 312 m 530 1333 l 536 1333 l 656 1276 l 506 1062 l 499 1062 l 420 1099 l 530 1333 z "},"ś":{"ha":726,"x_min":81,"x_max":644,"o":"m 81 239 l 210 300 l 217 300 l 217 176 q 259 125 217 142 q 363 109 302 109 q 467 125 426 109 q 509 176 509 143 l 509 282 q 465 333 509 315 q 362 350 423 350 q 229 376 295 350 q 110 516 110 425 l 110 593 q 222 729 110 680 q 363 760 292 760 q 479 739 430 760 q 596 593 596 689 l 467 532 l 460 532 l 460 570 q 433 623 460 609 q 363 637 405 637 q 275 621 304 637 q 245 570 245 604 l 245 540 q 273 489 245 506 q 362 472 301 472 q 517 446 448 472 q 644 306 644 397 l 644 153 q 517 13 644 62 q 363 -14 449 -14 q 208 13 277 -14 q 81 153 81 63 l 81 239 m 441 1062 l 448 1062 l 568 1005 l 418 791 l 411 791 l 332 828 l 441 1062 z "},"Ŝ":{"ha":902,"x_min":109,"x_max":793,"o":"m 109 312 l 237 373 l 244 373 l 244 210 q 326 131 244 163 q 451 109 383 109 q 576 131 519 109 q 658 210 658 163 l 658 408 q 576 487 658 455 q 451 509 519 509 q 296 536 365 509 q 170 675 170 586 l 170 871 q 296 1011 170 962 q 451 1038 365 1038 q 606 1011 537 1038 q 732 871 732 961 l 732 785 l 604 724 l 597 724 l 597 848 q 554 899 597 882 q 451 916 512 916 q 348 899 390 916 q 305 848 305 882 l 305 699 q 348 648 305 665 q 451 631 390 631 q 640 595 553 631 q 793 408 793 532 l 793 210 q 640 22 793 87 q 451 -14 553 -14 q 262 22 349 -14 q 109 210 109 86 l 109 312 m 264 1099 l 368 1276 l 488 1333 l 494 1333 l 639 1099 l 560 1062 l 553 1062 l 452 1203 l 351 1062 l 345 1062 l 264 1099 z "},"ŝ":{"ha":726,"x_min":81,"x_max":644,"o":"m 81 239 l 210 300 l 217 300 l 217 176 q 259 125 217 142 q 363 109 302 109 q 467 125 426 109 q 509 176 509 143 l 509 282 q 465 333 509 315 q 362 350 423 350 q 229 376 295 350 q 110 516 110 425 l 110 593 q 222 729 110 680 q 363 760 292 760 q 479 739 430 760 q 596 593 596 689 l 467 532 l 460 532 l 460 570 q 433 623 460 609 q 363 637 405 637 q 275 621 304 637 q 245 570 245 604 l 245 540 q 273 489 245 506 q 362 472 301 472 q 517 446 448 472 q 644 306 644 397 l 644 153 q 517 13 644 62 q 363 -14 449 -14 q 208 13 277 -14 q 81 153 81 63 l 81 239 m 179 828 l 283 1005 l 402 1062 l 409 1062 l 553 828 l 475 791 l 468 791 l 366 932 l 266 791 l 259 791 l 179 828 z "},"Ş":{"ha":902,"x_min":109,"x_max":793,"o":"m 109 312 l 237 373 l 244 373 l 244 210 q 326 131 244 163 q 451 109 383 109 q 576 131 519 109 q 658 210 658 163 l 658 408 q 576 487 658 455 q 451 509 519 509 q 296 536 365 509 q 170 675 170 586 l 170 871 q 296 1011 170 962 q 451 1038 365 1038 q 606 1011 537 1038 q 732 871 732 961 l 732 785 l 604 724 l 597 724 l 597 848 q 554 899 597 882 q 451 916 512 916 q 348 899 390 916 q 305 848 305 882 l 305 699 q 348 648 305 665 q 451 631 390 631 q 640 595 553 631 q 793 408 793 532 l 793 210 q 640 22 793 87 q 498 -12 574 -5 q 547 -140 547 -69 q 473 -305 547 -233 l 466 -305 l 337 -244 q 428 -103 428 -185 q 397 -11 428 -59 q 262 22 326 -4 q 109 210 109 87 l 109 312 z "},"ş":{"ha":726,"x_min":81,"x_max":644,"o":"m 81 239 l 210 300 l 217 300 l 217 176 q 259 125 217 142 q 363 109 302 109 q 467 125 426 109 q 509 176 509 143 l 509 282 q 465 333 509 315 q 362 350 423 350 q 229 376 295 350 q 110 516 110 425 l 110 593 q 222 729 110 680 q 363 760 292 760 q 479 739 430 760 q 596 593 596 689 l 467 532 l 460 532 l 460 570 q 433 623 460 609 q 363 637 405 637 q 275 621 304 637 q 245 570 245 604 l 245 540 q 273 489 245 506 q 362 472 301 472 q 517 446 448 472 q 644 306 644 397 l 644 153 q 517 13 644 62 q 412 -12 469 -6 q 460 -140 460 -69 q 387 -305 460 -233 l 380 -305 l 251 -244 q 342 -103 342 -185 q 310 -11 342 -58 q 208 13 255 -5 q 81 153 81 62 l 81 239 z "},"Š":{"ha":902,"x_min":109,"x_max":793,"o":"m 109 312 l 237 373 l 244 373 l 244 210 q 326 131 244 163 q 451 109 383 109 q 576 131 519 109 q 658 210 658 163 l 658 408 q 576 487 658 455 q 451 509 519 509 q 296 536 365 509 q 170 675 170 586 l 170 871 q 296 1011 170 962 q 451 1038 365 1038 q 606 1011 537 1038 q 732 871 732 961 l 732 785 l 604 724 l 597 724 l 597 848 q 554 899 597 882 q 451 916 512 916 q 348 899 390 916 q 305 848 305 882 l 305 699 q 348 648 305 665 q 451 631 390 631 q 640 595 553 631 q 793 408 793 532 l 793 210 q 640 22 793 87 q 451 -14 553 -14 q 262 22 349 -14 q 109 210 109 86 l 109 312 m 385 1062 l 241 1296 l 319 1333 l 326 1333 l 428 1192 l 528 1333 l 535 1333 l 615 1296 l 511 1119 l 392 1062 l 385 1062 z "},"š":{"ha":726,"x_min":81,"x_max":644,"o":"m 81 239 l 210 300 l 217 300 l 217 176 q 259 125 217 142 q 363 109 302 109 q 467 125 426 109 q 509 176 509 143 l 509 282 q 465 333 509 315 q 362 350 423 350 q 229 376 295 350 q 110 516 110 425 l 110 593 q 222 729 110 680 q 363 760 292 760 q 479 739 430 760 q 596 593 596 689 l 467 532 l 460 532 l 460 570 q 433 623 460 609 q 363 637 405 637 q 275 621 304 637 q 245 570 245 604 l 245 540 q 273 489 245 506 q 362 472 301 472 q 517 446 448 472 q 644 306 644 397 l 644 153 q 517 13 644 62 q 363 -14 449 -14 q 208 13 277 -14 q 81 153 81 63 l 81 239 m 292 791 l 148 1025 l 227 1062 l 233 1062 l 335 921 l 435 1062 l 442 1062 l 522 1025 l 418 848 l 299 791 l 292 791 z "},"Ţ":{"ha":723,"x_min":3,"x_max":720,"o":"m 294 -27 l 294 901 l 3 901 l 3 907 l 58 1024 l 720 1024 l 720 1017 l 665 901 l 429 901 l 429 35 q 528 -140 528 -40 q 454 -305 528 -233 l 448 -305 l 319 -244 q 410 -103 410 -185 q 367 4 410 -52 l 300 -27 l 294 -27 z "},"ţ":{"ha":518,"x_min":17,"x_max":501,"o":"m 191 -27 l 191 623 l 17 623 l 17 629 l 72 746 l 191 746 l 191 990 l 320 1051 l 327 1051 l 327 746 l 501 746 l 501 739 l 446 623 l 327 623 l 327 35 q 426 -140 426 -40 q 352 -305 426 -233 l 345 -305 l 216 -244 q 307 -103 307 -185 q 264 4 307 -52 l 198 -27 l 191 -27 z "},"Ť":{"ha":723,"x_min":3,"x_max":720,"o":"m 304 1062 l 159 1296 l 238 1333 l 245 1333 l 347 1192 l 447 1333 l 454 1333 l 534 1296 l 430 1119 l 311 1062 l 304 1062 m 294 -27 l 294 901 l 3 901 l 3 907 l 58 1024 l 720 1024 l 720 1017 l 665 901 l 429 901 l 429 34 l 300 -27 l 294 -27 z "},"ť":{"ha":518,"x_min":17,"x_max":589,"o":"m 463 1062 l 470 1062 l 589 1005 l 439 791 l 433 791 l 353 828 l 463 1062 m 191 -27 l 191 623 l 17 623 l 17 629 l 72 746 l 191 746 l 191 990 l 320 1051 l 327 1051 l 327 746 l 501 746 l 501 739 l 446 623 l 327 623 l 327 34 l 198 -27 l 191 -27 z "},"Ŧ":{"ha":723,"x_min":3,"x_max":720,"o":"m 294 -27 l 294 450 l 154 450 l 154 457 l 209 574 l 294 574 l 294 901 l 3 901 l 3 907 l 58 1024 l 720 1024 l 720 1017 l 665 901 l 429 901 l 429 574 l 569 574 l 569 567 l 514 450 l 429 450 l 429 34 l 300 -27 l 294 -27 z "},"ŧ":{"ha":518,"x_min":17,"x_max":501,"o":"m 191 -27 l 191 383 l 52 383 l 52 390 l 106 507 l 191 507 l 191 623 l 17 623 l 17 629 l 72 746 l 191 746 l 191 990 l 320 1051 l 327 1051 l 327 746 l 501 746 l 501 739 l 446 623 l 327 623 l 327 507 l 467 507 l 467 500 l 412 383 l 327 383 l 327 34 l 198 -27 l 191 -27 z "},"Ũ":{"ha":956,"x_min":136,"x_max":821,"o":"m 136 990 l 264 1051 l 271 1051 l 271 210 q 353 131 271 163 q 478 109 410 109 q 603 131 546 109 q 685 210 685 163 l 685 990 l 814 1051 l 821 1051 l 821 210 q 667 22 821 86 q 478 -14 581 -14 q 290 22 376 -14 q 136 210 136 86 l 136 990 m 319 1111 q 415 1305 319 1305 q 508 1257 458 1305 q 559 1224 543 1224 q 582 1273 582 1224 l 656 1305 l 661 1305 q 565 1111 661 1111 q 472 1158 522 1111 q 421 1192 437 1192 q 398 1143 398 1192 l 323 1111 l 319 1111 z "},"ũ":{"ha":766,"x_min":102,"x_max":665,"o":"m 102 712 l 231 773 l 237 773 l 237 176 q 280 125 237 142 q 383 109 322 109 q 487 125 444 109 q 529 176 529 142 l 529 712 l 658 773 l 665 773 l 665 153 q 538 13 665 62 q 383 -14 469 -14 q 229 13 297 -14 q 102 153 102 62 l 102 712 m 232 836 q 328 1029 232 1029 q 420 982 371 1029 q 471 949 455 949 q 494 998 494 949 l 569 1029 l 573 1029 q 477 836 573 836 q 385 883 434 836 q 334 916 350 916 q 311 867 311 916 l 236 836 l 232 836 z "},"Ū":{"ha":956,"x_min":136,"x_max":821,"o":"m 136 990 l 264 1051 l 271 1051 l 271 210 q 353 131 271 163 q 478 109 410 109 q 603 131 546 109 q 685 210 685 163 l 685 990 l 814 1051 l 821 1051 l 821 210 q 667 22 821 86 q 478 -14 581 -14 q 290 22 376 -14 q 136 210 136 86 l 136 990 m 317 1111 l 317 1118 l 372 1234 l 682 1234 l 682 1227 l 627 1111 l 317 1111 z "},"ū":{"ha":766,"x_min":102,"x_max":665,"o":"m 102 712 l 231 773 l 237 773 l 237 176 q 280 125 237 142 q 383 109 322 109 q 487 125 444 109 q 529 176 529 142 l 529 712 l 658 773 l 665 773 l 665 153 q 538 13 665 62 q 383 -14 469 -14 q 229 13 297 -14 q 102 153 102 62 l 102 712 m 217 836 l 217 842 l 272 959 l 583 959 l 583 952 l 528 836 l 217 836 z "},"Ŭ":{"ha":956,"x_min":136,"x_max":821,"o":"m 136 990 l 264 1051 l 271 1051 l 271 210 q 353 131 271 163 q 478 109 410 109 q 603 131 546 109 q 685 210 685 163 l 685 990 l 814 1051 l 821 1051 l 821 210 q 667 22 821 86 q 478 -14 581 -14 q 290 22 376 -14 q 136 210 136 86 l 136 990 m 317 1213 l 317 1219 l 368 1320 q 484 1230 416 1230 q 601 1320 552 1230 l 652 1219 l 652 1213 q 483 1111 583 1111 q 317 1213 378 1111 z "},"ŭ":{"ha":766,"x_min":102,"x_max":665,"o":"m 102 712 l 231 773 l 237 773 l 237 176 q 280 125 237 142 q 383 109 322 109 q 487 125 444 109 q 529 176 529 142 l 529 712 l 658 773 l 665 773 l 665 153 q 538 13 665 62 q 383 -14 469 -14 q 229 13 297 -14 q 102 153 102 62 l 102 712 m 217 937 l 217 944 l 267 1045 q 384 954 316 954 q 500 1045 452 954 l 552 944 l 552 937 q 382 836 483 836 q 217 937 278 836 z "},"Ů":{"ha":956,"x_min":136,"x_max":821,"o":"m 136 990 l 264 1051 l 271 1051 l 271 210 q 353 131 271 163 q 478 109 410 109 q 603 131 546 109 q 685 210 685 163 l 685 990 l 814 1051 l 821 1051 l 821 210 q 667 22 821 86 q 478 -14 581 -14 q 290 22 376 -14 q 136 210 136 86 l 136 990 m 570 1110 q 478 1077 532 1077 q 387 1110 424 1077 q 345 1205 345 1147 q 387 1300 345 1261 q 478 1333 422 1333 q 570 1300 532 1333 q 612 1205 612 1263 q 570 1110 612 1147 m 478 1263 q 441 1249 455 1263 q 428 1205 428 1234 q 442 1161 428 1174 q 477 1147 457 1147 q 513 1162 498 1147 q 527 1205 527 1175 q 512 1250 527 1236 q 478 1263 498 1263 z "},"ů":{"ha":766,"x_min":102,"x_max":665,"o":"m 102 712 l 231 773 l 237 773 l 237 176 q 280 125 237 142 q 383 109 322 109 q 487 125 444 109 q 529 176 529 142 l 529 712 l 658 773 l 665 773 l 665 153 q 538 13 665 62 q 383 -14 469 -14 q 229 13 297 -14 q 102 153 102 62 l 102 712 m 475 839 q 384 806 438 806 q 292 839 330 806 q 250 934 250 876 q 292 1029 250 990 q 384 1062 328 1062 q 475 1029 438 1062 q 517 934 517 991 q 475 839 517 876 m 384 991 q 347 977 361 991 q 334 934 334 963 q 348 890 334 903 q 383 876 363 876 q 419 891 404 876 q 433 934 433 904 q 418 979 433 964 q 384 991 404 991 z "},"Ű":{"ha":956,"x_min":136,"x_max":821,"o":"m 136 990 l 264 1051 l 271 1051 l 271 210 q 353 131 271 163 q 478 109 410 109 q 603 131 546 109 q 685 210 685 163 l 685 990 l 814 1051 l 821 1051 l 821 210 q 667 22 821 86 q 478 -14 581 -14 q 290 22 376 -14 q 136 210 136 86 l 136 990 m 633 1333 l 640 1333 l 759 1276 l 609 1062 l 602 1062 l 523 1099 l 633 1333 m 445 1333 l 452 1333 l 571 1276 l 421 1062 l 414 1062 l 335 1099 l 445 1333 z "},"ű":{"ha":766,"x_min":102,"x_max":665,"o":"m 102 712 l 231 773 l 237 773 l 237 176 q 280 125 237 142 q 383 109 322 109 q 487 125 444 109 q 529 176 529 142 l 529 712 l 658 773 l 665 773 l 665 153 q 538 13 665 62 q 383 -14 469 -14 q 229 13 297 -14 q 102 153 102 62 l 102 712 m 522 1062 l 529 1062 l 648 1005 l 498 791 l 492 791 l 412 828 l 522 1062 m 334 1062 l 341 1062 l 460 1005 l 311 791 l 304 791 l 224 828 l 334 1062 z "},"Ų":{"ha":956,"x_min":136,"x_max":821,"o":"m 136 990 l 264 1051 l 271 1051 l 271 210 q 353 131 271 163 q 478 109 410 109 q 603 131 546 109 q 685 210 685 163 l 685 990 l 814 1051 l 821 1051 l 821 210 q 667 22 821 86 q 602 -103 602 -28 q 693 -244 602 -185 l 564 -305 l 557 -305 q 484 -140 484 -233 q 533 -11 484 -69 q 478 -14 506 -14 q 290 22 376 -14 q 136 210 136 86 l 136 990 z "},"ų":{"ha":766,"x_min":102,"x_max":665,"o":"m 102 712 l 231 773 l 237 773 l 237 176 q 280 125 237 142 q 383 109 322 109 q 487 125 444 109 q 529 176 529 142 l 529 712 l 658 773 l 665 773 l 665 153 q 538 13 665 62 q 480 -103 480 -37 q 571 -244 480 -185 l 442 -305 l 435 -305 q 361 -140 361 -233 q 410 -13 361 -70 q 383 -14 397 -14 q 229 13 297 -14 q 102 153 102 62 l 102 712 z "},"Ŵ":{"ha":1506,"x_min":136,"x_max":1370,"o":"m 136 990 l 264 1051 l 271 1051 l 271 210 q 353 131 271 163 q 478 109 410 109 q 603 131 546 109 q 685 210 685 163 l 685 990 l 814 1051 l 821 1051 l 821 210 q 903 131 821 163 q 1027 109 960 109 q 1152 131 1095 109 q 1234 210 1234 163 l 1234 990 l 1363 1051 l 1370 1051 l 1370 210 q 1216 22 1370 86 q 1027 -14 1130 -14 q 839 22 924 -14 q 753 72 787 44 q 667 22 718 44 q 478 -14 581 -14 q 290 22 376 -14 q 136 210 136 86 l 136 990 m 558 1099 l 662 1276 l 781 1333 l 788 1333 l 932 1099 l 854 1062 l 847 1062 l 745 1203 l 645 1062 l 638 1062 l 558 1099 z "},"ŵ":{"ha":1194,"x_min":102,"x_max":1092,"o":"m 102 712 l 231 773 l 237 773 l 237 176 q 280 125 237 142 q 383 109 322 109 q 487 125 444 109 q 529 176 529 142 l 529 712 l 658 773 l 665 773 l 665 176 q 707 125 665 142 q 810 109 749 109 q 914 125 871 109 q 956 176 956 142 l 956 712 l 1085 773 l 1092 773 l 1092 153 q 965 13 1092 62 q 810 -14 897 -14 q 656 13 726 -14 q 597 42 622 26 q 538 13 572 26 q 383 -14 468 -14 q 229 13 297 -14 q 102 153 102 62 l 102 712 m 406 828 l 509 1005 l 629 1062 l 635 1062 l 780 828 l 701 791 l 694 791 l 593 932 l 492 791 l 486 791 l 406 828 z "},"Ŷ":{"ha":888,"x_min":102,"x_max":787,"o":"m 376 -27 l 376 327 q 256 359 313 335 q 102 547 102 422 l 102 990 l 231 1051 l 237 1051 l 237 547 q 319 467 237 500 q 444 445 376 445 q 569 467 512 445 q 651 547 651 500 l 651 990 l 780 1051 l 787 1051 l 787 547 q 633 359 787 423 q 512 327 576 335 l 512 34 l 383 -27 l 376 -27 m 264 1099 l 368 1276 l 488 1333 l 494 1333 l 639 1099 l 560 1062 l 553 1062 l 452 1203 l 351 1062 l 345 1062 l 264 1099 z "},"ŷ":{"ha":800,"x_min":102,"x_max":665,"o":"m 102 712 l 231 773 l 237 773 l 237 176 q 280 125 237 142 q 383 109 322 109 q 487 125 444 109 q 529 176 529 142 l 529 712 l 658 773 l 665 773 l 665 -125 q 538 -265 665 -216 q 383 -292 469 -292 l 172 -292 l 172 -285 l 227 -170 l 383 -170 q 487 -153 444 -170 q 529 -102 529 -136 l 529 9 q 383 -14 464 -14 q 229 13 297 -14 q 102 153 102 62 l 102 712 m 199 828 l 303 1005 l 422 1062 l 429 1062 l 574 828 l 495 791 l 488 791 l 387 932 l 286 791 l 279 791 l 199 828 z "},"Ÿ":{"ha":888,"x_min":102,"x_max":787,"o":"m 376 -27 l 376 327 q 256 359 313 335 q 102 547 102 422 l 102 990 l 231 1051 l 237 1051 l 237 547 q 319 467 237 500 q 444 445 376 445 q 569 467 512 445 q 651 547 651 500 l 651 990 l 780 1051 l 787 1051 l 787 547 q 633 359 787 423 q 512 327 576 335 l 512 34 l 383 -27 l 376 -27 m 490 1164 q 478 1176 490 1164 q 467 1222 467 1188 q 490 1281 467 1257 q 548 1305 514 1305 q 606 1281 582 1305 q 629 1222 629 1257 q 606 1164 629 1188 q 548 1139 582 1139 q 490 1164 514 1139 m 287 1164 q 275 1176 287 1164 q 263 1222 263 1188 q 287 1281 263 1257 q 345 1305 311 1305 q 402 1281 378 1305 q 426 1222 426 1257 q 402 1164 426 1188 q 345 1139 378 1139 q 287 1164 311 1139 z "},"Ź":{"ha":859,"x_min":102,"x_max":758,"o":"m 474 1333 l 481 1333 l 600 1276 l 450 1062 l 444 1062 l 364 1099 l 474 1333 m 102 0 l 102 7 l 541 901 l 109 901 l 109 907 l 163 1024 l 751 1024 l 751 1017 l 310 123 l 758 123 l 758 117 l 703 0 l 102 0 z "},"ź":{"ha":714,"x_min":68,"x_max":646,"o":"m 408 1062 l 415 1062 l 534 1005 l 385 791 l 378 791 l 298 828 l 408 1062 m 68 0 l 68 7 l 422 623 l 75 623 l 75 629 l 130 746 l 640 746 l 640 739 l 286 123 l 646 123 l 646 117 l 591 0 l 68 0 z "},"Ż":{"ha":859,"x_min":102,"x_max":758,"o":"m 381 1164 q 369 1176 381 1164 q 357 1222 357 1188 q 381 1281 357 1257 q 439 1305 405 1305 q 496 1281 473 1305 q 520 1222 520 1257 q 496 1164 520 1188 q 439 1139 473 1139 q 381 1164 405 1139 m 102 0 l 102 7 l 541 901 l 109 901 l 109 907 l 163 1024 l 751 1024 l 751 1017 l 310 123 l 758 123 l 758 117 l 703 0 l 102 0 z "},"ż":{"ha":714,"x_min":68,"x_max":646,"o":"m 307 896 q 295 908 307 896 q 283 955 283 920 q 307 1013 283 989 q 365 1038 331 1038 q 422 1013 399 1038 q 446 955 446 989 q 422 896 446 920 q 365 871 399 871 q 307 896 331 871 m 68 0 l 68 7 l 422 623 l 75 623 l 75 629 l 130 746 l 640 746 l 640 739 l 286 123 l 646 123 l 646 117 l 591 0 l 68 0 z "},"Ž":{"ha":859,"x_min":102,"x_max":758,"o":"m 386 1062 l 241 1296 l 320 1333 l 327 1333 l 429 1192 l 529 1333 l 536 1333 l 616 1296 l 512 1119 l 393 1062 l 386 1062 m 102 0 l 102 7 l 541 901 l 109 901 l 109 907 l 163 1024 l 751 1024 l 751 1017 l 310 123 l 758 123 l 758 117 l 703 0 l 102 0 z "},"ž":{"ha":714,"x_min":68,"x_max":646,"o":"m 326 791 l 181 1025 l 260 1062 l 267 1062 l 368 921 l 469 1062 l 475 1062 l 555 1025 l 452 848 l 332 791 l 326 791 m 68 0 l 68 7 l 422 623 l 75 623 l 75 629 l 130 746 l 640 746 l 640 739 l 286 123 l 646 123 l 646 117 l 591 0 l 68 0 z "},"ſ":{"ha":576,"x_min":34,"x_max":543,"o":"m 170 -27 l 170 555 l 34 555 l 34 562 l 89 678 l 170 678 l 170 871 q 296 1011 170 962 q 451 1038 365 1038 q 543 1038 451 1038 l 543 1031 l 488 916 l 451 916 q 348 899 390 916 q 305 848 305 882 l 305 34 l 176 -27 l 170 -27 z "},"Ƒ":{"ha":760,"x_min":-10,"x_max":637,"o":"m 136 -102 l 136 990 l 208 1024 l 637 1024 l 637 1017 l 583 901 l 271 901 l 271 574 l 637 574 l 637 567 l 583 450 l 271 450 l 271 -125 q 144 -265 271 -216 q -10 -292 76 -292 l -10 -285 l 46 -165 q 94 -153 72 -161 q 136 -102 136 -135 z "},"ƒ":{"ha":576,"x_min":-10,"x_max":509,"o":"m -10 -292 l -10 -285 l 46 -165 q 94 -153 72 -161 q 136 -102 136 -135 l 136 555 l 34 555 l 34 562 l 89 678 l 136 678 l 136 871 q 262 1011 136 962 q 417 1038 331 1038 l 509 1038 l 509 1031 l 454 916 l 417 916 q 314 899 356 916 q 271 848 271 882 l 271 678 l 496 678 l 496 671 l 441 555 l 271 555 l 271 -125 q 144 -265 271 -216 q -10 -292 76 -292 z "},"Ǥ":{"ha":956,"x_min":136,"x_max":922,"o":"m 821 574 l 821 361 l 922 361 l 922 354 l 867 237 l 821 237 l 821 210 q 667 22 821 86 q 478 -14 581 -14 q 290 22 376 -14 q 136 210 136 86 l 136 814 q 290 1002 136 938 q 478 1038 376 1038 q 667 1002 581 1038 q 821 814 821 938 l 821 712 l 692 651 l 685 651 l 685 814 q 603 893 685 861 q 478 916 546 916 q 353 893 410 916 q 271 814 271 861 l 271 210 q 353 131 271 163 q 478 109 410 109 q 603 131 546 109 q 685 210 685 163 l 685 237 l 507 237 l 507 244 l 562 361 l 685 361 l 685 450 l 449 450 l 449 457 l 504 574 l 821 574 z "},"ǥ":{"ha":787,"x_min":102,"x_max":753,"o":"m 338 316 l 338 323 l 393 439 l 529 439 l 529 570 q 487 621 529 604 q 383 637 444 637 q 280 621 322 637 q 237 570 237 604 l 237 176 q 280 125 237 142 q 383 109 322 109 q 487 125 445 109 q 529 176 529 142 l 529 316 l 338 316 m 102 153 l 102 593 q 229 733 102 684 q 383 760 297 760 q 538 733 469 760 q 665 593 665 683 l 665 439 l 753 439 l 753 433 l 698 316 l 665 316 l 665 -125 q 538 -265 665 -216 q 383 -292 469 -292 l 172 -292 l 172 -285 l 227 -170 l 383 -170 q 487 -153 444 -170 q 529 -102 529 -136 l 529 9 q 383 -14 464 -14 q 229 13 297 -14 q 102 153 102 63 z "},"Ǽ":{"ha":1334,"x_min":136,"x_max":1300,"o":"m 136 -27 l 136 814 q 290 1002 136 938 q 478 1038 376 1038 q 666 999 589 1038 q 685 990 675 994 l 757 1024 l 1187 1024 l 1187 1017 l 1132 901 l 821 901 l 821 574 l 1187 574 l 1187 567 l 1132 450 l 821 450 l 821 123 l 1300 123 l 1300 117 l 1245 0 l 685 0 l 685 450 l 271 450 l 271 34 l 142 -27 l 136 -27 m 271 574 l 685 574 l 685 814 q 603 893 685 861 q 478 916 546 916 q 353 893 410 916 q 271 814 271 861 l 271 574 m 729 1333 l 736 1333 l 855 1276 l 705 1062 l 699 1062 l 619 1099 l 729 1333 z "},"ǽ":{"ha":1146,"x_min":68,"x_max":1044,"o":"m 203 176 q 246 125 203 142 q 342 109 288 109 q 439 125 397 109 q 481 176 481 142 l 481 312 q 439 363 481 346 q 342 380 397 380 q 245 363 288 380 q 203 312 203 346 l 203 176 m 1044 300 l 1044 153 q 918 13 1044 62 q 763 -14 849 -14 q 608 13 672 -14 q 589 21 600 16 l 488 -27 l 481 -27 l 481 9 q 342 -14 416 -14 q 195 13 263 -14 q 68 153 68 63 l 68 336 q 195 475 68 427 q 342 502 263 502 q 481 479 417 502 l 481 570 q 439 621 481 604 q 336 637 397 637 l 171 637 l 171 644 l 225 760 l 336 760 q 490 733 423 760 q 550 703 525 720 q 608 733 574 720 q 763 760 674 760 q 918 733 849 760 q 1044 593 1044 683 l 1044 507 l 617 176 q 660 125 617 142 q 763 109 702 109 q 866 125 824 109 q 909 176 909 142 l 909 239 l 1038 300 l 1044 300 m 617 319 l 909 554 l 909 570 q 866 621 909 604 q 763 637 824 637 q 660 621 702 637 q 617 570 617 604 l 617 319 m 617 1062 l 624 1062 l 743 1005 l 593 791 l 587 791 l 507 828 l 617 1062 z "},"Ǿ":{"ha":956,"x_min":136,"x_max":821,"o":"m 274 -27 l 267 -27 l 197 7 l 221 59 q 136 210 136 118 l 136 814 q 290 1002 136 937 q 478 1038 376 1038 q 661 1004 576 1038 l 682 1051 l 689 1051 l 760 1017 l 736 965 q 821 814 821 906 l 821 210 q 667 22 821 87 q 478 -14 581 -14 q 296 20 380 -14 l 274 -27 m 349 133 q 475 109 409 109 q 603 131 546 109 q 685 210 685 163 l 685 814 q 677 840 685 827 l 349 133 m 608 891 q 481 914 551 914 q 353 893 410 914 q 271 814 271 861 l 271 210 q 279 184 271 196 l 608 891 m 554 1333 l 561 1333 l 680 1276 l 530 1062 l 524 1062 l 444 1099 l 554 1333 z "},"ǿ":{"ha":766,"x_min":102,"x_max":665,"o":"m 243 -27 l 237 -27 l 166 7 l 180 37 q 102 153 102 82 l 102 593 q 229 733 102 684 q 383 760 297 760 q 508 743 451 760 l 522 773 l 529 773 l 600 739 l 587 709 q 665 593 665 663 l 665 153 q 538 13 665 62 q 383 -14 469 -14 q 258 3 315 -14 l 243 -27 m 456 630 q 383 637 424 637 q 280 621 322 637 q 237 570 237 604 l 237 176 q 239 163 237 170 l 456 630 m 528 583 l 310 116 q 383 109 342 109 q 487 125 444 109 q 529 176 529 142 l 529 570 q 528 583 529 576 m 463 1062 l 470 1062 l 589 1005 l 439 791 l 433 791 l 353 828 l 463 1062 z "},"Ș":{"ha":902,"x_min":109,"x_max":793,"o":"m 109 312 l 237 373 l 244 373 l 244 210 q 326 131 244 163 q 451 109 383 109 q 576 131 519 109 q 658 210 658 163 l 658 408 q 576 487 658 455 q 451 509 519 509 q 296 536 365 509 q 170 675 170 586 l 170 871 q 296 1011 170 962 q 451 1038 365 1038 q 606 1011 537 1038 q 732 871 732 961 l 732 785 l 604 724 l 597 724 l 597 848 q 554 899 597 882 q 451 916 512 916 q 348 899 390 916 q 305 848 305 882 l 305 699 q 348 648 305 665 q 451 631 390 631 q 640 595 553 631 q 793 408 793 532 l 793 210 q 640 22 793 87 q 451 -14 553 -14 q 262 22 349 -14 q 109 210 109 86 l 109 312 m 380 -305 l 374 -305 l 254 -248 l 404 -34 l 411 -34 l 490 -71 l 380 -305 z "},"ș":{"ha":726,"x_min":81,"x_max":644,"o":"m 81 239 l 210 300 l 217 300 l 217 176 q 259 125 217 142 q 363 109 302 109 q 467 125 426 109 q 509 176 509 143 l 509 282 q 465 333 509 315 q 362 350 423 350 q 229 376 295 350 q 110 516 110 425 l 110 593 q 222 729 110 680 q 363 760 292 760 q 479 739 430 760 q 596 593 596 689 l 467 532 l 460 532 l 460 570 q 433 623 460 609 q 363 637 405 637 q 275 621 304 637 q 245 570 245 604 l 245 540 q 273 489 245 506 q 362 472 301 472 q 517 446 448 472 q 644 306 644 397 l 644 153 q 517 13 644 62 q 363 -14 449 -14 q 208 13 277 -14 q 81 153 81 63 l 81 239 m 288 -305 l 281 -305 l 161 -248 l 311 -34 l 318 -34 l 397 -71 l 288 -305 z "},"Ț":{"ha":723,"x_min":3,"x_max":720,"o":"m 323 -305 l 317 -305 l 197 -248 l 347 -34 l 354 -34 l 433 -71 l 323 -305 m 294 -27 l 294 901 l 3 901 l 3 907 l 58 1024 l 720 1024 l 720 1017 l 665 901 l 429 901 l 429 34 l 300 -27 l 294 -27 z "},"ț":{"ha":518,"x_min":17,"x_max":501,"o":"m 240 -305 l 233 -305 l 114 -248 l 264 -34 l 271 -34 l 350 -71 l 240 -305 m 191 -27 l 191 623 l 17 623 l 17 629 l 72 746 l 191 746 l 191 990 l 320 1051 l 327 1051 l 327 746 l 501 746 l 501 739 l 446 623 l 327 623 l 327 34 l 198 -27 l 191 -27 z "},"ȷ":{"ha":407,"x_min":-10,"x_max":271,"o":"m 136 712 l 264 773 l 271 773 l 271 -125 q 144 -265 271 -216 q -10 -292 76 -292 l -10 -285 l 46 -165 q 94 -153 72 -161 q 136 -102 136 -135 l 136 712 z "},"Δ":{"ha":808,"x_min":3,"x_max":804,"o":"m 3 0 l 334 996 l 452 1051 l 458 1051 l 804 0 l 3 0 m 186 123 l 621 123 l 406 824 l 186 123 z "},"Π":{"ha":943,"x_min":136,"x_max":807,"o":"m 142 -27 l 136 -27 l 136 990 l 208 1024 l 807 1024 l 807 34 l 678 -27 l 671 -27 l 671 901 l 271 901 l 271 34 l 142 -27 z "},"Σ":{"ha":816,"x_min":68,"x_max":714,"o":"m 68 0 l 410 525 l 68 990 l 140 1024 l 652 1024 l 652 1017 l 597 901 l 282 901 l 568 525 l 292 123 l 714 123 l 714 117 l 659 0 l 68 0 z "},"Ω":{"ha":956,"x_min":102,"x_max":854,"o":"m 102 0 l 102 7 l 157 123 l 302 123 l 302 169 l 290 174 q 136 362 136 237 l 136 814 q 290 1002 136 937 q 478 1038 376 1038 q 667 1002 581 1038 q 821 814 821 939 l 821 362 q 667 174 821 239 l 654 169 l 654 123 l 854 123 l 854 117 l 800 0 l 544 0 l 544 266 q 603 283 574 272 q 685 362 685 314 l 685 814 q 603 893 685 861 q 478 916 546 916 q 353 893 410 916 q 271 814 271 861 l 271 362 q 353 283 271 314 q 412 266 382 272 l 412 0 l 102 0 z "},"μ":{"ha":800,"x_min":136,"x_max":699,"o":"m 136 -305 l 136 712 l 264 773 l 271 773 l 271 176 q 314 125 271 142 q 417 109 356 109 q 520 125 478 109 q 563 176 563 142 l 563 712 l 692 773 l 699 773 l 699 153 q 572 13 699 62 q 417 -14 503 -14 q 271 9 336 -14 l 271 -244 l 142 -305 l 136 -305 z "},"π":{"ha":834,"x_min":136,"x_max":699,"o":"m 142 -27 l 136 -27 l 136 712 l 208 746 l 699 746 l 699 34 l 570 -27 l 563 -27 l 563 623 l 271 623 l 271 34 l 142 -27 z "},"Ḃ":{"ha":929,"x_min":136,"x_max":807,"o":"m 271 628 l 465 628 q 559 650 522 628 q 610 730 610 683 l 610 800 q 556 880 610 857 q 465 902 502 902 l 271 902 l 271 628 m 271 122 l 465 122 q 589 144 532 122 q 671 224 671 176 l 671 404 q 589 484 671 451 q 465 506 532 506 l 271 506 l 271 122 m 136 0 l 136 990 l 208 1024 l 465 1024 q 623 988 551 1024 q 746 800 746 925 l 746 730 q 663 578 746 652 q 807 404 807 515 l 807 224 q 653 36 807 100 q 465 0 567 0 l 136 0 m 345 1164 q 333 1176 345 1164 q 321 1222 321 1188 q 345 1281 321 1257 q 403 1305 369 1305 q 460 1281 437 1305 q 484 1222 484 1257 q 460 1164 484 1188 q 403 1139 437 1139 q 345 1164 369 1139 z "},"ḃ":{"ha":800,"x_min":136,"x_max":699,"o":"m 136 153 l 136 990 l 264 1051 l 271 1051 l 271 736 q 417 760 336 760 q 572 733 503 760 q 699 593 699 683 l 699 153 q 572 13 699 62 q 417 -14 503 -14 q 262 13 331 -14 q 136 153 136 63 m 271 570 l 271 176 q 314 125 271 142 q 417 109 356 109 q 520 125 478 109 q 563 176 563 142 l 563 570 q 520 621 563 604 q 417 637 478 637 q 314 621 356 637 q 271 570 271 604 m 403 896 q 391 908 403 896 q 379 955 379 920 q 403 1013 379 989 q 460 1038 427 1038 q 518 1013 494 1038 q 542 955 542 989 q 518 896 542 920 q 460 871 494 871 q 403 896 427 871 z "},"Ḋ":{"ha":943,"x_min":136,"x_max":807,"o":"m 271 122 l 465 122 q 589 144 532 122 q 671 224 671 177 l 671 800 q 589 880 671 847 q 465 902 533 902 l 271 902 l 271 122 m 136 0 l 136 990 l 208 1024 l 465 1024 q 653 988 567 1024 q 807 800 807 924 l 807 224 q 653 36 807 100 q 465 0 567 0 l 136 0 m 359 1164 q 348 1176 359 1164 q 336 1222 336 1188 q 359 1281 336 1257 q 417 1305 383 1305 q 475 1281 451 1305 q 498 1222 498 1257 q 475 1164 498 1188 q 417 1139 451 1139 q 359 1164 383 1139 z "},"ḋ":{"ha":800,"x_min":102,"x_max":665,"o":"m 102 153 q 102 593 102 153 q 229 733 102 684 q 383 760 297 760 q 529 736 464 760 l 529 990 l 658 1051 l 665 1051 l 665 153 q 538 13 665 62 q 383 -14 469 -14 q 229 13 297 -14 q 102 153 102 63 m 237 176 q 280 125 237 142 q 383 109 322 109 q 487 125 444 109 q 529 176 529 142 l 529 570 q 487 621 529 604 q 383 637 444 637 q 280 621 322 637 q 237 570 237 604 l 237 176 m 258 896 q 247 908 258 896 q 235 955 235 920 q 258 1013 235 989 q 316 1038 282 1038 q 374 1013 350 1038 q 397 955 397 989 q 374 896 397 920 q 316 871 350 871 q 258 896 282 871 z "},"Ḟ":{"ha":760,"x_min":136,"x_max":637,"o":"m 342 1164 q 331 1176 342 1164 q 319 1222 319 1188 q 342 1281 319 1257 q 400 1305 366 1305 q 458 1281 434 1305 q 481 1222 481 1257 q 458 1164 481 1188 q 400 1139 434 1139 q 342 1164 366 1139 m 136 -27 l 136 990 l 208 1024 l 637 1024 l 637 1017 l 583 901 l 271 901 l 271 574 l 637 574 l 637 567 l 583 450 l 271 450 l 271 34 l 142 -27 l 136 -27 z "},"ḟ":{"ha":576,"x_min":34,"x_max":509,"o":"m 136 -27 l 136 555 l 34 555 l 34 562 l 89 678 l 136 678 l 136 871 q 262 1011 136 962 q 417 1038 331 1038 l 509 1038 l 509 1031 l 454 916 l 417 916 q 314 899 356 916 q 271 848 271 882 l 271 678 l 496 678 l 496 671 l 441 555 l 271 555 l 271 34 l 142 -27 l 136 -27 m 254 1164 q 242 1176 254 1164 q 231 1222 231 1188 q 254 1281 231 1257 q 312 1305 278 1305 q 370 1281 346 1305 q 393 1222 393 1257 q 370 1164 393 1188 q 312 1139 346 1139 q 254 1164 278 1139 z "},"Ṁ":{"ha":1506,"x_min":136,"x_max":1370,"o":"m 136 -27 l 136 814 q 290 1002 136 938 q 478 1038 376 1038 q 667 1002 581 1038 q 753 952 718 980 q 839 1002 787 980 q 1027 1038 924 1038 q 1216 1002 1130 1038 q 1370 814 1370 938 l 1370 34 l 1241 -27 l 1234 -27 l 1234 814 q 1152 893 1234 861 q 1027 916 1095 916 q 903 893 960 916 q 821 814 821 861 l 821 34 l 692 -27 l 685 -27 l 685 814 q 603 893 685 861 q 478 916 546 916 q 353 893 410 916 q 271 814 271 861 l 271 34 l 142 -27 l 136 -27 m 692 1164 q 681 1176 692 1164 q 669 1222 669 1188 q 692 1281 669 1257 q 750 1305 716 1305 q 808 1281 784 1305 q 831 1222 831 1257 q 808 1164 831 1188 q 750 1139 784 1139 q 692 1164 716 1139 z "},"ṁ":{"ha":1194,"x_min":102,"x_max":1092,"o":"m 102 -27 l 102 593 q 229 733 102 684 q 383 760 297 760 q 538 733 468 760 q 597 704 572 720 q 656 733 622 720 q 810 760 726 760 q 965 733 897 760 q 1092 593 1092 684 l 1092 34 l 963 -27 l 956 -27 l 956 570 q 914 621 956 604 q 810 637 871 637 q 707 621 749 637 q 665 570 665 604 l 665 34 l 536 -27 l 529 -27 l 529 570 q 487 621 529 604 q 383 637 444 637 q 280 621 322 637 q 237 570 237 604 l 237 34 l 109 -27 l 102 -27 m 546 896 q 534 908 546 896 q 522 955 522 920 q 546 1013 522 989 q 604 1038 570 1038 q 661 1013 637 1038 q 685 955 685 989 q 661 896 685 920 q 604 871 637 871 q 546 896 570 871 z "},"Ṗ":{"ha":909,"x_min":136,"x_max":807,"o":"m 136 -27 l 136 990 l 208 1024 l 465 1024 q 653 988 567 1024 q 807 800 807 924 l 807 570 q 653 382 807 446 q 465 346 567 346 l 271 346 l 271 34 l 142 -27 l 136 -27 m 271 468 l 465 468 q 589 490 532 468 q 671 570 671 523 l 671 800 q 589 880 671 848 q 465 902 532 902 l 271 902 l 271 468 m 359 1164 q 348 1176 359 1164 q 336 1222 336 1188 q 359 1281 336 1257 q 417 1305 383 1305 q 475 1281 451 1305 q 498 1222 498 1257 q 475 1164 498 1188 q 417 1139 451 1139 q 359 1164 383 1139 z "},"ṗ":{"ha":800,"x_min":136,"x_max":699,"o":"m 699 593 q 699 153 699 593 q 572 13 699 62 q 417 -14 503 -14 q 271 9 336 -14 l 271 -244 l 142 -305 l 136 -305 l 136 593 q 262 733 136 684 q 417 760 331 760 q 572 733 503 760 q 699 593 699 683 m 563 570 q 520 621 563 604 q 417 637 478 637 q 314 621 356 637 q 271 570 271 604 l 271 176 q 314 125 271 142 q 417 109 356 109 q 520 125 478 109 q 563 176 563 142 l 563 570 m 363 896 q 351 908 363 896 q 339 955 339 920 q 363 1013 339 989 q 420 1038 387 1038 q 478 1013 454 1038 q 502 955 502 989 q 478 896 502 920 q 420 871 454 871 q 363 896 387 871 z "},"Ṡ":{"ha":902,"x_min":109,"x_max":793,"o":"m 109 312 l 237 373 l 244 373 l 244 210 q 326 131 244 163 q 451 109 383 109 q 576 131 519 109 q 658 210 658 163 l 658 408 q 576 487 658 455 q 451 509 519 509 q 296 536 365 509 q 170 675 170 586 l 170 871 q 296 1011 170 962 q 451 1038 365 1038 q 606 1011 537 1038 q 732 871 732 961 l 732 785 l 604 724 l 597 724 l 597 848 q 554 899 597 882 q 451 916 512 916 q 348 899 390 916 q 305 848 305 882 l 305 699 q 348 648 305 665 q 451 631 390 631 q 640 595 553 631 q 793 408 793 532 l 793 210 q 640 22 793 87 q 451 -14 553 -14 q 262 22 349 -14 q 109 210 109 86 l 109 312 m 394 1164 q 382 1176 394 1164 q 370 1222 370 1188 q 394 1281 370 1257 q 452 1305 418 1305 q 509 1281 486 1305 q 533 1222 533 1257 q 509 1164 533 1188 q 452 1139 486 1139 q 394 1164 418 1139 z "},"ṡ":{"ha":726,"x_min":81,"x_max":644,"o":"m 81 239 l 210 300 l 217 300 l 217 176 q 259 125 217 142 q 363 109 302 109 q 467 125 426 109 q 509 176 509 143 l 509 282 q 465 333 509 315 q 362 350 423 350 q 229 376 295 350 q 110 516 110 425 l 110 593 q 222 729 110 680 q 363 760 292 760 q 479 739 430 760 q 596 593 596 689 l 467 532 l 460 532 l 460 570 q 433 623 460 609 q 363 637 405 637 q 275 621 304 637 q 245 570 245 604 l 245 540 q 273 489 245 506 q 362 472 301 472 q 517 446 448 472 q 644 306 644 397 l 644 153 q 517 13 644 62 q 363 -14 449 -14 q 208 13 277 -14 q 81 153 81 63 l 81 239 m 304 896 q 293 908 304 896 q 281 955 281 920 q 304 1013 281 989 q 362 1038 328 1038 q 420 1013 396 1038 q 444 955 444 989 q 420 896 444 920 q 362 871 396 871 q 304 896 328 871 z "},"Ṫ":{"ha":723,"x_min":3,"x_max":720,"o":"m 299 1164 q 287 1176 299 1164 q 275 1222 275 1188 q 299 1281 275 1257 q 357 1305 323 1305 q 414 1281 391 1305 q 438 1222 438 1257 q 414 1164 438 1188 q 357 1139 391 1139 q 299 1164 323 1139 m 294 -27 l 294 901 l 3 901 l 3 907 l 58 1024 l 720 1024 l 720 1017 l 665 901 l 429 901 l 429 34 l 300 -27 l 294 -27 z "},"ṫ":{"ha":518,"x_min":17,"x_max":501,"o":"m 191 -27 l 191 623 l 17 623 l 17 629 l 72 746 l 191 746 l 191 990 l 320 1051 l 327 1051 l 327 746 l 501 746 l 501 739 l 446 623 l 327 623 l 327 34 l 198 -27 l 191 -27 m 201 1164 q 190 1176 201 1164 q 178 1222 178 1188 q 201 1281 178 1257 q 259 1305 225 1305 q 317 1281 293 1305 q 340 1222 340 1257 q 317 1164 340 1188 q 259 1139 293 1139 q 201 1164 225 1139 z "},"Ẁ":{"ha":1506,"x_min":136,"x_max":1370,"o":"m 136 990 l 264 1051 l 271 1051 l 271 210 q 353 131 271 163 q 478 109 410 109 q 603 131 546 109 q 685 210 685 163 l 685 990 l 814 1051 l 821 1051 l 821 210 q 903 131 821 163 q 1027 109 960 109 q 1152 131 1095 109 q 1234 210 1234 163 l 1234 990 l 1363 1051 l 1370 1051 l 1370 210 q 1216 22 1370 86 q 1027 -14 1130 -14 q 839 22 924 -14 q 753 72 787 44 q 667 22 718 44 q 478 -14 581 -14 q 290 22 376 -14 q 136 210 136 86 l 136 990 m 713 1333 l 720 1333 l 829 1099 l 750 1062 l 743 1062 l 593 1276 l 713 1333 z "},"ẁ":{"ha":1194,"x_min":102,"x_max":1092,"o":"m 102 712 l 231 773 l 237 773 l 237 176 q 280 125 237 142 q 383 109 322 109 q 487 125 444 109 q 529 176 529 142 l 529 712 l 658 773 l 665 773 l 665 176 q 707 125 665 142 q 810 109 749 109 q 914 125 871 109 q 956 176 956 142 l 956 712 l 1085 773 l 1092 773 l 1092 153 q 965 13 1092 62 q 810 -14 897 -14 q 656 13 726 -14 q 597 42 622 26 q 538 13 572 26 q 383 -14 468 -14 q 229 13 297 -14 q 102 153 102 62 l 102 712 m 562 1062 l 569 1062 l 679 828 l 600 791 l 593 791 l 443 1005 l 562 1062 z "},"Ẃ":{"ha":1506,"x_min":136,"x_max":1370,"o":"m 136 990 l 264 1051 l 271 1051 l 271 210 q 353 131 271 163 q 478 109 410 109 q 603 131 546 109 q 685 210 685 163 l 685 990 l 814 1051 l 821 1051 l 821 210 q 903 131 821 163 q 1027 109 960 109 q 1152 131 1095 109 q 1234 210 1234 163 l 1234 990 l 1363 1051 l 1370 1051 l 1370 210 q 1216 22 1370 86 q 1027 -14 1130 -14 q 839 22 924 -14 q 753 72 787 44 q 667 22 718 44 q 478 -14 581 -14 q 290 22 376 -14 q 136 210 136 86 l 136 990 m 782 1333 l 789 1333 l 908 1276 l 758 1062 l 751 1062 l 672 1099 l 782 1333 z "},"ẃ":{"ha":1194,"x_min":102,"x_max":1092,"o":"m 102 712 l 231 773 l 237 773 l 237 176 q 280 125 237 142 q 383 109 322 109 q 487 125 444 109 q 529 176 529 142 l 529 712 l 658 773 l 665 773 l 665 176 q 707 125 665 142 q 810 109 749 109 q 914 125 871 109 q 956 176 956 142 l 956 712 l 1085 773 l 1092 773 l 1092 153 q 965 13 1092 62 q 810 -14 897 -14 q 656 13 726 -14 q 597 42 622 26 q 538 13 572 26 q 383 -14 468 -14 q 229 13 297 -14 q 102 153 102 62 l 102 712 m 622 1062 l 629 1062 l 748 1005 l 598 791 l 591 791 l 512 828 l 622 1062 z "},"Ẅ":{"ha":1506,"x_min":136,"x_max":1370,"o":"m 136 990 l 264 1051 l 271 1051 l 271 210 q 353 131 271 163 q 478 109 410 109 q 603 131 546 109 q 685 210 685 163 l 685 990 l 814 1051 l 821 1051 l 821 210 q 903 131 821 163 q 1027 109 960 109 q 1152 131 1095 109 q 1234 210 1234 163 l 1234 990 l 1363 1051 l 1370 1051 l 1370 210 q 1216 22 1370 86 q 1027 -14 1130 -14 q 839 22 924 -14 q 753 72 787 44 q 667 22 718 44 q 478 -14 581 -14 q 290 22 376 -14 q 136 210 136 86 l 136 990 m 789 1164 q 777 1176 789 1164 q 765 1222 765 1188 q 789 1281 765 1257 q 846 1305 812 1305 q 904 1281 880 1305 q 928 1222 928 1257 q 904 1164 928 1188 q 846 1139 880 1139 q 789 1164 812 1139 m 585 1164 q 573 1176 585 1164 q 562 1222 562 1188 q 585 1281 562 1257 q 643 1305 609 1305 q 701 1281 677 1305 q 724 1222 724 1257 q 701 1164 724 1188 q 643 1139 677 1139 q 585 1164 609 1139 z "},"ẅ":{"ha":1194,"x_min":102,"x_max":1092,"o":"m 102 712 l 231 773 l 237 773 l 237 176 q 280 125 237 142 q 383 109 322 109 q 487 125 444 109 q 529 176 529 142 l 529 712 l 658 773 l 665 773 l 665 176 q 707 125 665 142 q 810 109 749 109 q 914 125 871 109 q 956 176 956 142 l 956 712 l 1085 773 l 1092 773 l 1092 153 q 965 13 1092 62 q 810 -14 897 -14 q 656 13 726 -14 q 597 42 622 26 q 538 13 572 26 q 383 -14 468 -14 q 229 13 297 -14 q 102 153 102 62 l 102 712 m 635 896 q 624 908 635 896 q 612 955 612 920 q 635 1013 612 989 q 693 1038 659 1038 q 751 1013 727 1038 q 774 955 774 989 q 751 896 774 920 q 693 871 727 871 q 635 896 659 871 m 432 896 q 420 908 432 896 q 408 955 408 920 q 432 1013 408 989 q 490 1038 456 1038 q 547 1013 524 1038 q 571 955 571 989 q 547 896 571 920 q 490 871 524 871 q 432 896 456 871 z "},"Ỳ":{"ha":888,"x_min":102,"x_max":787,"o":"m 376 -27 l 376 327 q 256 359 313 335 q 102 547 102 422 l 102 990 l 231 1051 l 237 1051 l 237 547 q 319 467 237 500 q 444 445 376 445 q 569 467 512 445 q 651 547 651 500 l 651 990 l 780 1051 l 787 1051 l 787 547 q 633 359 787 423 q 512 327 576 335 l 512 34 l 383 -27 l 376 -27 m 404 1333 l 411 1333 l 521 1099 l 441 1062 l 435 1062 l 285 1276 l 404 1333 z "},"ỳ":{"ha":800,"x_min":102,"x_max":665,"o":"m 102 712 l 231 773 l 237 773 l 237 176 q 280 125 237 142 q 383 109 322 109 q 487 125 444 109 q 529 176 529 142 l 529 712 l 658 773 l 665 773 l 665 -125 q 538 -265 665 -216 q 383 -292 469 -292 l 172 -292 l 172 -285 l 227 -170 l 383 -170 q 487 -153 444 -170 q 529 -102 529 -136 l 529 9 q 383 -14 464 -14 q 229 13 297 -14 q 102 153 102 62 l 102 712 m 321 1062 l 328 1062 l 437 828 l 358 791 l 351 791 l 201 1005 l 321 1062 z "},"‐":{"ha":823,"x_min":153,"x_max":671,"o":"m 153 450 l 153 457 l 208 574 l 671 574 l 671 567 l 616 450 l 153 450 z "},"‑":{"ha":823,"x_min":153,"x_max":671,"o":"m 153 450 l 153 457 l 208 574 l 671 574 l 671 567 l 616 450 l 153 450 z "},"‒":{"ha":823,"x_min":102,"x_max":722,"o":"m 102 450 l 102 457 l 157 574 l 722 574 l 722 567 l 667 450 l 102 450 z "},"–":{"ha":823,"x_min":102,"x_max":722,"o":"m 102 450 l 102 457 l 157 574 l 722 574 l 722 567 l 667 450 l 102 450 z "},"—":{"ha":823,"x_min":17,"x_max":806,"o":"m 17 450 l 17 457 l 72 574 l 806 574 l 806 567 l 751 450 l 17 450 z "},"―":{"ha":823,"x_min":17,"x_max":806,"o":"m 17 450 l 17 457 l 72 574 l 806 574 l 806 567 l 751 450 l 17 450 z "},"‗":{"ha":823,"x_min":102,"x_max":722,"o":"m 102 -123 l 102 -117 l 157 0 l 722 0 l 722 -7 l 667 -123 l 102 -123 m 102 -278 l 102 -271 l 157 -155 l 722 -155 l 722 -161 l 667 -278 l 102 -278 z "},"‘":{"ha":413,"x_min":102,"x_max":311,"o":"m 268 1051 l 297 1017 q 220 871 220 939 q 311 730 220 789 l 182 669 l 176 669 q 102 834 102 741 q 268 1051 102 964 z "},"’":{"ha":413,"x_min":102,"x_max":311,"o":"m 231 1051 l 237 1051 q 311 886 311 979 q 145 669 311 756 l 116 703 q 193 849 193 781 q 102 990 193 931 l 231 1051 z "},"‚":{"ha":413,"x_min":102,"x_max":311,"o":"m 231 189 l 237 189 q 311 23 311 116 q 145 -194 311 -106 l 116 -160 q 193 -14 193 -82 q 102 127 193 68 l 231 189 z "},"‛":{"ha":413,"x_min":102,"x_max":311,"o":"m 176 1051 l 182 1051 l 311 990 q 220 849 220 931 q 297 703 220 781 l 268 669 q 102 886 102 756 q 176 1051 102 979 z "},"“":{"ha":627,"x_min":102,"x_max":525,"o":"m 268 1051 l 297 1017 q 220 871 220 939 q 311 730 220 789 l 182 669 l 176 669 q 102 834 102 741 q 268 1051 102 964 m 481 1051 l 511 1017 q 434 871 434 939 q 525 730 434 789 l 396 669 l 389 669 q 315 834 315 741 q 481 1051 315 964 z "},"”":{"ha":627,"x_min":102,"x_max":525,"o":"m 444 1051 l 451 1051 q 525 886 525 979 q 359 669 525 756 l 330 703 q 406 849 406 781 q 315 990 406 931 l 444 1051 m 231 1051 l 237 1051 q 311 886 311 979 q 145 669 311 756 l 116 703 q 193 849 193 781 q 102 990 193 931 l 231 1051 z "},"„":{"ha":627,"x_min":102,"x_max":525,"o":"m 444 189 l 451 189 q 525 23 525 116 q 359 -194 525 -106 l 330 -160 q 406 -14 406 -82 q 315 127 406 68 l 444 189 m 231 189 l 237 189 q 311 23 311 116 q 145 -194 311 -106 l 116 -160 q 193 -14 193 -82 q 102 127 193 68 l 231 189 z "},"‟":{"ha":627,"x_min":102,"x_max":525,"o":"m 176 1051 q 182 1051 176 1051 l 311 990 q 220 849 220 931 q 297 703 220 781 l 268 669 q 102 886 102 756 q 176 1051 102 979 m 389 1051 l 396 1051 l 525 990 q 434 849 434 931 q 511 703 434 781 l 481 669 q 315 886 315 756 q 389 1051 315 979 z "},"†":{"ha":823,"x_min":102,"x_max":722,"o":"m 351 -27 l 344 -27 l 344 675 l 102 675 l 102 682 l 157 799 l 344 799 l 344 990 l 473 1051 l 479 1051 l 479 799 l 722 799 l 722 792 l 667 675 l 479 675 l 479 34 l 351 -27 z "},"‡":{"ha":823,"x_min":102,"x_max":722,"o":"m 351 -27 l 344 -27 l 344 225 l 102 225 l 102 232 l 157 349 l 344 349 l 344 675 l 102 675 l 102 682 l 157 799 l 344 799 l 344 990 l 473 1051 l 479 1051 l 479 799 l 722 799 l 722 792 l 667 675 l 479 675 l 479 349 l 722 349 l 722 342 l 667 225 l 479 225 l 479 34 l 351 -27 z "},"•":{"ha":766,"x_min":102,"x_max":665,"o":"m 102 406 l 102 616 q 229 756 102 707 q 383 783 297 783 q 538 756 471 783 q 665 616 665 705 l 665 406 q 538 267 665 315 q 383 240 469 240 q 229 267 295 240 q 102 406 102 317 z "},"‣":{"ha":629,"x_min":136,"x_max":562,"o":"m 136 245 l 136 774 l 562 519 l 136 245 z "},"․":{"ha":407,"x_min":122,"x_max":285,"o":"m 146 11 q 134 23 146 11 q 122 70 122 35 q 146 128 122 104 q 203 153 170 153 q 261 128 237 153 q 285 70 285 104 q 261 11 285 35 q 203 -14 237 -14 q 146 11 170 -14 z "},"‥":{"ha":635,"x_min":122,"x_max":513,"o":"m 374 11 q 362 23 374 11 q 350 70 350 35 q 374 128 350 104 q 431 153 397 153 q 489 128 465 153 q 513 70 513 104 q 489 11 513 35 q 431 -14 465 -14 q 374 11 397 -14 m 146 11 q 134 23 146 11 q 122 70 122 35 q 146 128 122 104 q 203 153 170 153 q 261 128 237 153 q 285 70 285 104 q 261 11 285 35 q 203 -14 237 -14 q 146 11 170 -14 z "},"…":{"ha":863,"x_min":122,"x_max":741,"o":"m 602 11 q 590 23 602 11 q 578 70 578 35 q 602 128 578 104 q 659 153 625 153 q 717 128 693 153 q 741 70 741 104 q 717 11 741 35 q 659 -14 693 -14 q 602 11 625 -14 m 374 11 q 362 23 374 11 q 350 70 350 35 q 374 128 350 104 q 431 153 397 153 q 489 128 465 153 q 513 70 513 104 q 489 11 513 35 q 431 -14 465 -14 q 374 11 397 -14 m 146 11 q 134 23 146 11 q 122 70 122 35 q 146 128 122 104 q 203 153 170 153 q 261 128 237 153 q 285 70 285 104 q 261 11 285 35 q 203 -14 237 -14 q 146 11 170 -14 z "},"‧":{"ha":407,"x_min":122,"x_max":285,"o":"m 146 452 q 134 465 146 452 q 122 511 122 477 q 146 570 122 545 q 203 594 170 594 q 261 570 237 594 q 285 511 285 545 q 261 452 285 477 q 203 428 237 428 q 146 452 170 428 z "},"‰":{"ha":2089,"x_min":102,"x_max":1987,"o":"m 1560 176 q 1602 125 1560 142 q 1706 109 1645 109 q 1809 125 1767 109 q 1851 176 1851 142 l 1851 339 q 1809 390 1851 373 q 1706 407 1767 407 q 1602 390 1645 407 q 1560 339 1560 373 l 1560 176 m 1424 153 l 1424 363 q 1551 503 1424 454 q 1706 529 1619 529 q 1860 503 1794 529 q 1987 363 1987 452 l 1987 153 q 1860 13 1987 62 q 1706 -14 1792 -14 q 1551 13 1617 -14 q 1424 153 1424 63 m 925 176 q 967 125 925 142 q 1071 109 1010 109 q 1174 125 1132 109 q 1217 176 1217 142 l 1217 339 q 1174 390 1217 373 q 1071 407 1132 407 q 967 390 1010 407 q 925 339 925 373 l 925 176 m 789 153 l 789 363 q 916 503 789 454 q 1071 529 985 529 q 1225 503 1159 529 q 1352 363 1352 452 l 1352 153 q 1225 13 1352 62 q 1071 -14 1157 -14 q 916 13 983 -14 q 789 153 789 63 m 237 685 q 280 634 237 651 q 383 617 322 617 q 487 634 444 617 q 529 685 529 651 l 529 848 q 487 899 529 882 q 383 916 444 916 q 280 899 322 916 q 237 848 237 882 l 237 685 m 102 661 l 102 871 q 229 1011 102 962 q 383 1038 297 1038 q 538 1011 471 1038 q 665 871 665 960 l 665 661 q 538 522 665 570 q 383 495 469 495 q 229 522 295 495 q 102 661 102 572 m 534 -27 l 439 19 l 920 1051 l 926 1051 l 1022 1005 l 541 -27 l 534 -27 z "},"′":{"ha":461,"x_min":102,"x_max":359,"o":"m 233 1051 l 240 1051 l 359 994 l 188 718 l 181 718 l 102 755 l 233 1051 z "},"″":{"ha":677,"x_min":102,"x_max":575,"o":"m 449 1051 l 456 1051 l 575 994 l 404 718 l 397 718 l 317 755 l 449 1051 m 233 1051 l 240 1051 l 359 994 l 188 718 l 181 718 l 102 755 l 233 1051 z "},"‴":{"ha":892,"x_min":102,"x_max":791,"o":"m 665 1051 l 671 1051 l 791 994 l 619 718 l 612 718 l 533 755 l 665 1051 m 449 1051 l 456 1051 l 575 994 l 404 718 l 397 718 l 317 755 l 449 1051 m 233 1051 l 240 1051 l 359 994 l 188 718 l 181 718 l 102 755 l 233 1051 z "},"‵":{"ha":461,"x_min":102,"x_max":359,"o":"m 221 1051 l 228 1051 l 359 755 l 280 718 l 273 718 l 102 994 l 221 1051 z "},"‶":{"ha":677,"x_min":102,"x_max":575,"o":"m 221 1051 l 228 1051 l 359 755 l 280 718 l 273 718 l 102 994 l 221 1051 m 437 1051 l 444 1051 l 575 755 l 496 718 l 489 718 l 317 994 l 437 1051 z "},"‷":{"ha":892,"x_min":102,"x_max":791,"o":"m 228 1051 l 359 755 l 280 718 l 273 718 l 102 994 l 221 1051 l 228 1051 m 437 1051 l 444 1051 l 575 755 l 496 718 l 489 718 l 317 994 l 437 1051 m 652 1051 l 659 1051 l 791 755 l 711 718 l 705 718 l 533 994 l 652 1051 z "},"‹":{"ha":558,"x_min":102,"x_max":422,"o":"m 298 206 l 102 537 l 298 871 l 304 871 l 422 815 l 258 539 l 422 262 l 304 206 l 298 206 z "},"›":{"ha":558,"x_min":136,"x_max":456,"o":"m 260 206 l 254 206 l 136 262 l 300 539 l 136 815 l 254 871 l 260 871 l 456 537 l 260 206 z "},"⁃":{"ha":802,"x_min":102,"x_max":701,"o":"m 463 827 l 463 625 l 591 699 l 697 625 l 701 619 l 524 517 l 701 416 l 697 410 l 591 336 l 463 410 l 463 262 l 346 208 l 339 208 l 339 410 l 211 336 l 105 410 l 102 416 l 277 517 l 102 619 l 105 625 l 211 699 l 339 625 l 339 772 l 456 827 l 463 827 z "},"⁄":{"ha":661,"x_min":7,"x_max":654,"o":"m 102 -95 l 7 -49 l 551 1119 l 557 1119 l 654 1073 l 109 -95 l 102 -95 z "},"€":{"ha":1073,"x_min":102,"x_max":937,"o":"m 937 373 l 937 210 q 783 22 937 86 q 595 -14 697 -14 q 406 22 492 -14 q 252 210 252 86 l 252 344 l 102 344 l 102 351 l 157 467 l 252 467 l 252 562 l 102 562 l 102 568 l 157 685 l 252 685 l 252 814 q 406 1002 252 938 q 595 1038 492 1038 q 783 1002 697 1038 q 937 814 937 938 l 937 712 l 808 651 l 802 651 l 802 814 q 720 893 802 860 q 595 916 663 916 q 470 893 527 916 q 388 814 388 861 l 388 685 l 722 685 l 722 678 l 667 562 l 388 562 l 388 467 l 722 467 l 722 460 l 667 344 l 388 344 l 388 210 q 470 131 388 164 q 595 109 525 109 q 720 131 663 109 q 802 210 802 163 l 802 312 l 930 373 l 937 373 z "},"℅":{"ha":1124,"x_min":102,"x_max":1023,"o":"m 747 114 q 751 106 747 110 q 778 91 760 98 q 834 81 803 81 q 890 92 865 81 q 917 107 908 98 q 921 115 921 111 l 921 400 q 917 408 920 405 q 890 424 910 416 q 834 434 865 434 q 778 425 802 434 q 751 410 759 417 q 747 401 747 406 l 747 114 m 646 111 q 646 404 646 111 q 733 510 646 476 q 834 529 782 529 q 935 510 890 529 q 1023 400 1023 473 l 1023 115 q 935 5 1023 41 q 834 -14 888 -14 q 733 5 781 -14 q 646 111 646 40 m 479 722 l 479 624 q 391 514 479 549 q 290 495 345 495 q 189 514 237 495 q 102 620 102 549 l 102 912 q 189 1019 102 985 q 290 1038 238 1038 q 391 1019 346 1038 q 479 909 479 982 l 479 847 l 401 810 l 377 810 l 377 909 q 373 917 376 913 q 347 932 366 924 q 290 943 321 943 q 234 933 258 943 q 208 918 215 926 q 203 910 203 914 l 203 623 q 208 614 204 618 q 234 600 216 606 q 290 590 259 590 q 347 600 321 590 q 373 616 364 607 q 377 624 377 620 l 377 686 l 454 722 l 479 722 m 370 -27 l 275 19 l 755 1051 l 762 1051 l 858 1005 l 377 -27 l 370 -27 z "},"ℓ":{"ha":751,"x_min":102,"x_max":616,"o":"m 366 456 q 445 666 407 540 q 494 942 494 830 q 416 745 459 885 q 366 456 366 581 m 102 0 q 231 201 170 99 q 225 301 225 248 q 245 497 225 401 q 391 979 326 904 q 522 1038 442 1038 q 583 1016 557 1038 q 616 907 616 989 q 595 741 616 845 q 354 184 548 503 q 414 79 376 79 q 443 95 427 79 q 486 155 464 117 l 605 155 q 509 27 553 68 q 408 -14 465 -14 q 273 55 321 -14 l 238 0 l 102 0 z "},"™":{"ha":1301,"x_min":102,"x_max":1165,"o":"m 247 465 l 247 928 l 102 928 l 102 953 l 136 1024 l 494 1024 l 494 1000 l 460 928 l 349 928 l 349 501 l 271 465 l 247 465 m 513 465 l 513 912 q 600 1019 513 985 q 701 1038 649 1038 q 802 1019 756 1038 q 837 1000 822 1010 q 876 1020 854 1011 q 977 1039 922 1039 q 1078 1020 1032 1039 q 1165 910 1165 983 l 1165 504 l 1087 467 l 1063 467 l 1063 910 q 1059 918 1063 914 q 1033 934 1053 926 q 977 944 1008 944 q 920 935 945 944 q 894 920 901 927 q 890 911 890 916 l 890 909 l 890 503 l 812 466 l 788 466 l 788 909 q 784 917 788 913 q 758 932 777 924 q 701 943 732 943 q 645 933 669 943 q 618 918 626 926 q 614 910 614 914 l 614 501 l 536 465 l 513 465 z "},"Ω":{"ha":956,"x_min":102,"x_max":854,"o":"m 102 0 l 102 7 l 157 123 l 302 123 l 302 169 l 290 174 q 136 362 136 237 l 136 814 q 290 1002 136 937 q 478 1038 376 1038 q 667 1002 581 1038 q 821 814 821 939 l 821 362 q 667 174 821 239 l 654 169 l 654 123 l 854 123 l 854 117 l 800 0 l 544 0 l 544 266 q 603 283 574 272 q 685 362 685 314 l 685 814 q 603 893 685 861 q 478 916 546 916 q 353 893 410 916 q 271 814 271 861 l 271 362 q 353 283 271 314 q 412 266 382 272 l 412 0 l 102 0 z "},"℮":{"ha":921,"x_min":102,"x_max":819,"o":"m 258 373 l 258 121 q 460 39 340 39 q 728 206 633 39 l 777 177 q 620 25 696 60 q 460 -10 544 -10 q 201 98 300 -10 q 102 373 102 207 q 201 648 102 541 q 460 756 301 756 q 709 660 606 756 q 819 373 812 564 l 258 373 m 663 423 l 663 625 q 459 707 576 707 q 258 624 340 707 l 258 423 l 663 423 z "},"∂":{"ha":859,"x_min":102,"x_max":724,"o":"m 311 0 q 160 62 218 0 q 102 235 102 123 q 205 498 102 377 q 530 656 341 656 q 601 654 553 656 q 589 814 601 755 q 546 928 574 890 q 482 968 516 968 q 402 913 437 968 q 352 785 376 873 l 260 825 q 374 978 307 930 q 505 1024 439 1024 q 659 930 594 1024 q 724 645 724 835 q 665 297 724 454 q 507 73 606 145 q 311 0 407 0 m 331 62 q 431 128 381 62 q 519 267 473 182 q 602 588 581 376 q 525 599 575 599 q 378 512 452 599 q 296 394 329 456 q 245 226 245 301 q 258 119 245 158 q 331 62 277 62 z "},"∆":{"ha":808,"x_min":3,"x_max":804,"o":"m 3 0 l 334 996 l 452 1051 l 458 1051 l 804 0 l 3 0 m 186 123 l 621 123 l 406 824 l 186 123 z "},"∏":{"ha":943,"x_min":136,"x_max":807,"o":"m 142 -305 l 136 -305 l 136 990 l 208 1024 l 807 1024 l 807 -244 l 678 -305 l 671 -305 l 671 901 l 271 901 l 271 -244 l 142 -305 z "},"∑":{"ha":816,"x_min":68,"x_max":714,"o":"m 68 -278 l 392 400 l 68 990 l 140 1024 l 652 1024 l 652 1017 l 597 901 l 260 901 l 545 399 l 263 -155 l 714 -155 l 714 -161 l 659 -278 l 68 -278 z "},"−":{"ha":823,"x_min":102,"x_max":722,"o":"m 102 450 l 102 457 l 157 574 l 722 574 l 722 567 l 667 450 l 102 450 z "},"∕":{"ha":661,"x_min":7,"x_max":654,"o":"m 102 -95 l 7 -49 l 551 1119 l 557 1119 l 654 1073 l 109 -95 l 102 -95 z "},"∗":{"ha":802,"x_min":102,"x_max":701,"o":"m 463 827 l 463 625 l 591 699 l 697 625 l 701 619 l 524 517 l 701 416 l 697 410 l 591 336 l 463 410 l 463 262 l 346 208 l 339 208 l 339 410 l 211 336 l 105 410 l 102 416 l 277 517 l 102 619 l 105 625 l 211 699 l 339 625 l 339 772 l 456 827 l 463 827 z "},"∘":{"ha":766,"x_min":102,"x_max":665,"o":"m 237 430 q 280 379 237 396 q 383 362 322 362 q 487 379 444 362 q 529 430 529 396 l 529 593 q 487 644 529 627 q 383 661 444 661 q 280 644 322 661 q 237 593 237 627 l 237 430 m 102 406 l 102 616 q 229 756 102 707 q 383 783 297 783 q 538 756 471 783 q 665 616 665 705 l 665 406 q 538 267 665 315 q 383 240 469 240 q 229 267 295 240 q 102 406 102 317 z "},"∙":{"ha":407,"x_min":122,"x_max":285,"o":"m 146 452 q 134 465 146 452 q 122 511 122 477 q 146 570 122 545 q 203 594 170 594 q 261 570 237 594 q 285 511 285 545 q 261 452 285 477 q 203 428 237 428 q 146 452 170 428 z "},"√":{"ha":985,"x_min":68,"x_max":951,"o":"m 356 -27 l 349 -27 l 210 386 l 68 386 l 68 393 l 123 509 l 311 509 l 410 184 l 717 1024 l 951 1024 l 951 1017 l 896 901 l 799 901 l 473 28 l 356 -27 z "},"∛":{"ha":985,"x_min":68,"x_max":951,"o":"m 189 695 l 259 728 l 280 728 l 280 652 q 283 645 280 648 q 308 631 293 636 q 360 622 332 622 q 408 631 382 622 q 433 644 427 637 q 435 651 435 647 l 435 741 q 432 748 435 744 q 408 762 427 755 q 358 770 385 770 q 273 759 294 770 l 366 938 l 216 938 l 216 960 l 246 1024 l 512 1024 l 408 848 q 448 836 430 844 q 528 741 528 804 l 528 648 q 449 553 528 586 q 357 536 408 536 q 267 553 307 536 q 189 652 189 587 l 189 695 m 356 -27 l 349 -27 l 210 386 l 68 386 l 68 393 l 123 509 l 311 509 l 410 184 l 717 1024 l 951 1024 l 951 1017 l 896 901 l 799 901 l 473 28 l 356 -27 z "},"∞":{"ha":1194,"x_min":102,"x_max":1092,"o":"m 237 430 q 280 379 237 396 q 383 362 322 362 q 487 379 445 362 q 529 430 529 396 l 529 593 q 487 644 529 627 q 383 661 444 661 q 280 644 322 661 q 237 593 237 627 l 237 430 m 102 406 l 102 616 q 229 756 102 707 q 383 783 297 783 q 538 756 472 783 q 596 726 572 743 q 656 756 621 743 q 810 783 723 783 q 965 756 899 783 q 1092 616 1092 705 l 1092 406 q 965 267 1092 315 q 810 240 897 240 q 656 267 722 240 q 597 296 622 280 q 538 267 572 280 q 383 240 471 240 q 229 267 295 240 q 102 406 102 317 m 665 430 q 707 379 665 396 q 810 362 749 362 q 914 379 871 362 q 956 430 956 396 l 956 593 q 914 644 956 627 q 810 661 871 661 q 707 644 749 661 q 665 593 665 627 l 665 430 z "},"≈":{"ha":772,"x_min":102,"x_max":670,"o":"m 102 269 q 262 514 102 514 q 414 446 353 514 q 500 389 463 389 q 549 459 549 389 l 663 514 l 670 514 q 509 269 670 269 q 358 338 418 269 q 271 394 309 394 q 222 324 222 394 l 109 269 l 102 269 m 102 507 q 262 752 102 752 q 414 684 353 752 q 500 627 463 627 q 549 697 549 627 l 663 752 l 670 752 q 509 507 670 507 q 358 576 418 507 q 271 632 309 632 q 222 562 222 632 l 109 507 l 102 507 z "},"≠":{"ha":823,"x_min":102,"x_max":722,"o":"m 292 136 l 196 182 l 264 327 l 102 327 l 102 334 l 157 450 l 321 450 l 378 574 l 102 574 l 102 581 l 157 697 l 436 697 l 525 888 l 532 888 l 627 842 l 559 697 l 722 697 l 722 690 l 667 574 l 503 574 l 445 450 l 722 450 l 722 444 l 667 327 l 387 327 l 298 136 l 292 136 z "},"≡":{"ha":823,"x_min":102,"x_max":722,"o":"m 102 203 l 102 210 l 157 327 l 722 327 l 722 320 l 667 203 l 102 203 m 102 697 l 102 704 l 157 821 l 722 821 l 722 814 l 667 697 l 102 697 m 102 450 l 102 457 l 157 574 l 722 574 l 722 567 l 667 450 l 102 450 z "},"≤":{"ha":907,"x_min":102,"x_max":772,"o":"m 102 543 l 102 550 l 157 667 l 716 905 l 772 788 l 772 781 l 315 593 l 772 406 l 772 399 l 716 281 l 102 543 m 102 130 l 102 136 l 157 253 l 772 253 l 772 246 l 717 130 l 102 130 z "},"≥":{"ha":907,"x_min":136,"x_max":806,"o":"m 806 655 l 806 648 l 750 531 l 191 293 l 136 410 l 136 417 l 593 605 l 136 793 l 136 800 l 191 917 l 806 655 m 136 130 l 136 136 l 191 253 l 806 253 l 806 246 l 751 130 l 136 130 z "},"◊":{"ha":796,"x_min":81,"x_max":715,"o":"m 408 195 l 576 492 l 393 814 l 222 511 l 408 195 m 398 0 l 81 500 l 398 1024 l 715 503 l 398 0 z "}}}
